<?xml version="1.0" encoding="UTF-8" standalone="no"?>
<!-- Created with Inkscape (http://www.inkscape.org/) -->

<svg
   xmlns:dc="http://purl.org/dc/elements/1.1/"
   xmlns:cc="http://creativecommons.org/ns#"
   xmlns:rdf="http://www.w3.org/1999/02/22-rdf-syntax-ns#"
   xmlns:svg="http://www.w3.org/2000/svg"
   xmlns="http://www.w3.org/2000/svg"
   xmlns:sodipodi="http://sodipodi.sourceforge.net/DTD/sodipodi-0.dtd"
   xmlns:inkscape="http://www.inkscape.org/namespaces/inkscape"
   width="200mm"
   height="200mm"
   viewBox="0 0 200 200"
   version="1.1"
   id="svg8"
   inkscape:version="0.92.2 2405546, 2018-03-11"
   sodipodi:docname="hyrest-logo-monochrome-secondary.svg"
   inkscape:export-filename="/home/prior/hyrest-logo-50px.png"
   inkscape:export-xdpi="6.3499999"
   inkscape:export-ydpi="6.3499999">
  <defs
     id="defs2">
    <inkscape:path-effect
       effect="skeletal"
       id="path-effect4568"
       is_visible="true"
       pattern="M 0,5 C 0,2.24 2.24,0 5,0 7.76,0 10,2.24 10,5 10,7.76 7.76,10 5,10 2.24,10 0,7.76 0,5 Z"
       copytype="single_stretched"
       prop_scale="0.26458333"
       scale_y_rel="false"
       spacing="0"
       normal_offset="0"
       tang_offset="0"
       prop_units="false"
       vertical_pattern="false"
       fuse_tolerance="0" />
    <inkscape:path-effect
       effect="bspline"
       id="path-effect4566"
       is_visible="true"
       weight="33.333333"
       steps="2"
       helper_size="0"
       apply_no_weight="true"
       apply_with_weight="true"
       only_selected="false" />
    <inkscape:path-effect
       effect="skeletal"
       id="path-effect4542"
       is_visible="true"
       pattern="M 0,5 C 0,2.24 2.24,0 5,0 7.76,0 10,2.24 10,5 10,7.76 7.76,10 5,10 2.24,10 0,7.76 0,5 Z"
       copytype="single_stretched"
       prop_scale="4.4979092"
       scale_y_rel="false"
       spacing="0"
       normal_offset="0"
       tang_offset="0"
       prop_units="false"
       vertical_pattern="false"
       fuse_tolerance="0" />
    <inkscape:path-effect
       effect="skeletal"
       id="path-effect4532"
       is_visible="true"
       pattern="M 0,5 C 0,2.24 2.24,0 5,0 7.76,0 10,2.24 10,5 10,7.76 7.76,10 5,10 2.24,10 0,7.76 0,5 Z"
       copytype="single_stretched"
       prop_scale="0.26458333"
       scale_y_rel="false"
       spacing="0"
       normal_offset="0"
       tang_offset="0"
       prop_units="false"
       vertical_pattern="false"
       fuse_tolerance="0" />
    <inkscape:path-effect
       effect="skeletal"
       id="path-effect4528"
       is_visible="true"
       pattern="M 0,5 C 0,2.24 2.24,0 5,0 7.76,0 10,2.24 10,5 10,7.76 7.76,10 5,10 2.24,10 0,7.76 0,5 Z"
       copytype="single_stretched"
       prop_scale="0.26458333"
       scale_y_rel="false"
       spacing="0"
       normal_offset="0"
       tang_offset="0"
       prop_units="false"
       vertical_pattern="false"
       fuse_tolerance="0" />
  </defs>
  <sodipodi:namedview
     id="base"
     pagecolor="#ffffff"
     bordercolor="#666666"
     borderopacity="1.0"
     inkscape:pageopacity="0.0"
     inkscape:pageshadow="2"
     inkscape:zoom="0.49497475"
     inkscape:cx="-189.75835"
     inkscape:cy="185.67225"
     inkscape:document-units="mm"
     inkscape:current-layer="layer1"
     showgrid="false"
     inkscape:measure-start="-195.97,-216.173"
     inkscape:measure-end="-371.736,-501.036"
     inkscape:window-width="1600"
     inkscape:window-height="882"
     inkscape:window-x="0"
     inkscape:window-y="18"
     inkscape:window-maximized="0" />
  <metadata
     id="metadata5">
    <rdf:RDF>
      <cc:Work
         rdf:about="">
        <dc:format>image/svg+xml</dc:format>
        <dc:type
           rdf:resource="http://purl.org/dc/dcmitype/StillImage" />
        <dc:title />
      </cc:Work>
    </rdf:RDF>
  </metadata>
  <g
     inkscape:label="Layer 1"
     inkscape:groupmode="layer"
     id="layer1"
     transform="translate(0,-97)">
    <path
       style="fill:none;fill-rule:evenodd;stroke:#ffffff;stroke-width:5.89551687;stroke-linecap:round;stroke-linejoin:miter;stroke-miterlimit:4;stroke-dasharray:none;stroke-opacity:1"
       d="M 100,127.13902 V 266.86098"
       id="path4570"
       inkscape:connector-curvature="0" />
    <path
       style="fill:none;fill-opacity:1;stroke:#ffffff;stroke-width:13.22327614;stroke-linecap:round;stroke-linejoin:miter;stroke-miterlimit:4;stroke-dasharray:none;stroke-opacity:1;paint-order:stroke fill markers"
       id="path4544"
       sodipodi:type="arc"
       sodipodi:cx="148.75548"
       sodipodi:cy="195.37166"
       sodipodi:rx="44.632881"
       sodipodi:ry="44.632881"
       sodipodi:start="3.8397244"
       sodipodi:end="2.443461"
       d="m 114.56471,166.68219 a 44.632881,44.632881 0 0 1 49.45611,-13.25172 44.632881,44.632881 0 0 1 29.36754,41.94119 44.632881,44.632881 0 0 1 -29.36754,41.94119 44.632881,44.632881 0 0 1 -49.45611,-13.25173"
       sodipodi:open="true" />
    <path
       style="fill:none;fill-opacity:1;stroke:#ffffff;stroke-width:6.98188972;stroke-linecap:round;stroke-linejoin:miter;stroke-miterlimit:4;stroke-dasharray:none;stroke-opacity:1;paint-order:stroke fill markers"
       id="path4552"
       sodipodi:type="arc"
       sodipodi:cx="148.22731"
       sodipodi:cy="195.37166"
       sodipodi:rx="32.251625"
       sodipodi:ry="32.251625"
       sodipodi:start="3.8397244"
       sodipodi:end="2.443461"
       d="m 123.52113,174.64071 a 32.251625,32.251625 0 0 1 35.73689,-9.57567 32.251625,32.251625 0 0 1 21.22092,30.30662 32.251625,32.251625 0 0 1 -21.22093,30.30661 32.251625,32.251625 0 0 1 -35.73688,-9.57567"
       sodipodi:open="true" />
    <path
       sodipodi:open="true"
       d="m 130.79824,180.59759 a 22.984371,22.984371 0 0 1 25.46817,-6.82418 22.984371,22.984371 0 0 1 15.12325,21.59825 22.984371,22.984371 0 0 1 -15.12325,21.59824 22.984371,22.984371 0 0 1 -25.46817,-6.82417"
       sodipodi:end="2.443461"
       sodipodi:start="3.8397244"
       sodipodi:ry="22.984371"
       sodipodi:rx="22.984371"
       sodipodi:cy="195.37166"
       sodipodi:cx="148.40529"
       sodipodi:type="arc"
       id="path4554"
       style="fill:none;fill-opacity:1;stroke:#ffffff;stroke-width:5.18352413;stroke-linecap:round;stroke-linejoin:miter;stroke-miterlimit:4;stroke-dasharray:none;stroke-opacity:1;paint-order:stroke fill markers" />
    <path
       id="path4556"
       style="fill:none;fill-opacity:1;stroke:#ffffff;stroke-width:13.22327614;stroke-linecap:round;stroke-linejoin:miter;stroke-miterlimit:4;stroke-dasharray:none;stroke-opacity:1;paint-order:stroke fill markers"
       sodipodi:type="arc"
       sodipodi:cx="51.24453"
       sodipodi:cy="195.37166"
       sodipodi:rx="44.632881"
       sodipodi:ry="44.632881"
       sodipodi:start="0.67893308"
       sodipodi:end="5.5850536"
       d="M 85.979764,223.39946 A 44.632881,44.632881 0 0 1 36.584657,237.5283 44.632881,44.632881 0 0 1 6.6137049,195.8001 44.632881,44.632881 0 0 1 35.778058,153.50422 44.632881,44.632881 0 0 1 85.4353,166.6822"
       sodipodi:open="true" />
    <path
       id="path4558"
       style="fill:none;fill-opacity:1;stroke:#ffffff;stroke-width:6.98188972;stroke-linecap:round;stroke-linejoin:miter;stroke-miterlimit:4;stroke-dasharray:none;stroke-opacity:1;paint-order:stroke fill markers"
       sodipodi:type="arc"
       sodipodi:cx="50.716373"
       sodipodi:cy="195.37166"
       sodipodi:rx="32.251625"
       sodipodi:ry="32.251625"
       sodipodi:start="0.67893308"
       sodipodi:end="5.5850536"
       d="m 75.81598,215.62449 a 32.251625,32.251625 0 0 1 -35.6928,10.20947 32.251625,32.251625 0 0 1 -21.656946,-30.15271 32.251625,32.251625 0 0 1 21.0741,-30.56291 32.251625,32.251625 0 0 1 35.882217,9.52237"
       sodipodi:open="true" />
    <path
       style="fill:none;fill-opacity:1;stroke:#ffffff;stroke-width:5.18352413;stroke-linecap:round;stroke-linejoin:miter;stroke-miterlimit:4;stroke-dasharray:none;stroke-opacity:1;paint-order:stroke fill markers"
       id="path4560"
       sodipodi:type="arc"
       sodipodi:cx="50.894352"
       sodipodi:cy="195.37166"
       sodipodi:rx="22.984371"
       sodipodi:ry="22.984371"
       sodipodi:start="0.67893308"
       sodipodi:end="5.5850536"
       d="m 68.781781,209.80499 a 22.984371,22.984371 0 0 1 -25.43675,7.27586 22.984371,22.984371 0 0 1 -15.433991,-21.48856 22.984371,22.984371 0 0 1 15.018621,-21.7809 22.984371,22.984371 0 0 1 25.571741,6.7862"
       sodipodi:open="true" />
    <path
       inkscape:connector-curvature="0"
       id="path3802"
       d="M 100,127.13902 V 266.86098"
       style="fill:none;fill-rule:evenodd;stroke:#6c99ff;stroke-width:5.89551687;stroke-linecap:round;stroke-linejoin:miter;stroke-miterlimit:4;stroke-dasharray:none;stroke-opacity:1" />
    <path
       sodipodi:open="true"
       d="m 114.56471,166.68219 a 44.632881,44.632881 0 0 1 49.45611,-13.25172 44.632881,44.632881 0 0 1 29.36754,41.94119 44.632881,44.632881 0 0 1 -29.36754,41.94119 44.632881,44.632881 0 0 1 -49.45611,-13.25173"
       sodipodi:end="2.443461"
       sodipodi:start="3.8397244"
       sodipodi:ry="44.632881"
       sodipodi:rx="44.632881"
       sodipodi:cy="195.37166"
       sodipodi:cx="148.75548"
       sodipodi:type="arc"
       id="path3804"
       style="fill:none;fill-opacity:1;stroke:#6c99ff;stroke-width:13.22327614;stroke-linecap:round;stroke-linejoin:miter;stroke-miterlimit:4;stroke-dasharray:none;stroke-opacity:1;paint-order:stroke fill markers" />
    <path
       sodipodi:open="true"
       d="m 123.52113,174.64071 a 32.251625,32.251625 0 0 1 35.73689,-9.57567 32.251625,32.251625 0 0 1 21.22092,30.30662 32.251625,32.251625 0 0 1 -21.22093,30.30661 32.251625,32.251625 0 0 1 -35.73688,-9.57567"
       sodipodi:end="2.443461"
       sodipodi:start="3.8397244"
       sodipodi:ry="32.251625"
       sodipodi:rx="32.251625"
       sodipodi:cy="195.37166"
       sodipodi:cx="148.22731"
       sodipodi:type="arc"
       id="path3806"
       style="fill:none;fill-opacity:1;stroke:#6c99ff;stroke-width:6.98188972;stroke-linecap:round;stroke-linejoin:miter;stroke-miterlimit:4;stroke-dasharray:none;stroke-opacity:1;paint-order:stroke fill markers" />
    <path
       style="fill:none;fill-opacity:1;stroke:#6c99ff;stroke-width:5.18352413;stroke-linecap:round;stroke-linejoin:miter;stroke-miterlimit:4;stroke-dasharray:none;stroke-opacity:1;paint-order:stroke fill markers"
       id="path3808"
       sodipodi:type="arc"
       sodipodi:cx="148.40529"
       sodipodi:cy="195.37166"
       sodipodi:rx="22.984371"
       sodipodi:ry="22.984371"
       sodipodi:start="3.8397244"
       sodipodi:end="2.443461"
       d="m 130.79824,180.59759 a 22.984371,22.984371 0 0 1 25.46817,-6.82418 22.984371,22.984371 0 0 1 15.12325,21.59825 22.984371,22.984371 0 0 1 -15.12325,21.59824 22.984371,22.984371 0 0 1 -25.46817,-6.82417"
       sodipodi:open="true" />
    <path
       sodipodi:open="true"
       d="M 85.979764,223.39946 A 44.632881,44.632881 0 0 1 36.584657,237.5283 44.632881,44.632881 0 0 1 6.6137049,195.8001 44.632881,44.632881 0 0 1 35.778058,153.50422 44.632881,44.632881 0 0 1 85.4353,166.6822"
       sodipodi:end="5.5850536"
       sodipodi:start="0.67893308"
       sodipodi:ry="44.632881"
       sodipodi:rx="44.632881"
       sodipodi:cy="195.37166"
       sodipodi:cx="51.24453"
       sodipodi:type="arc"
       style="fill:none;fill-opacity:1;stroke:#6c99ff;stroke-width:13.22327614;stroke-linecap:round;stroke-linejoin:miter;stroke-miterlimit:4;stroke-dasharray:none;stroke-opacity:1;paint-order:stroke fill markers"
       id="path3810" />
    <path
       sodipodi:open="true"
       d="m 75.81598,215.62449 a 32.251625,32.251625 0 0 1 -35.6928,10.20947 32.251625,32.251625 0 0 1 -21.656946,-30.15271 32.251625,32.251625 0 0 1 21.0741,-30.56291 32.251625,32.251625 0 0 1 35.882217,9.52237"
       sodipodi:end="5.5850536"
       sodipodi:start="0.67893308"
       sodipodi:ry="32.251625"
       sodipodi:rx="32.251625"
       sodipodi:cy="195.37166"
       sodipodi:cx="50.716373"
       sodipodi:type="arc"
       style="fill:none;fill-opacity:1;stroke:#6c99ff;stroke-width:6.98188972;stroke-linecap:round;stroke-linejoin:miter;stroke-miterlimit:4;stroke-dasharray:none;stroke-opacity:1;paint-order:stroke fill markers"
       id="path3812" />
    <path
       sodipodi:open="true"
       d="m 68.781781,209.80499 a 22.984371,22.984371 0 0 1 -25.43675,7.27586 22.984371,22.984371 0 0 1 -15.433991,-21.48856 22.984371,22.984371 0 0 1 15.018621,-21.7809 22.984371,22.984371 0 0 1 25.571741,6.7862"
       sodipodi:end="5.5850536"
       sodipodi:start="0.67893308"
       sodipodi:ry="22.984371"
       sodipodi:rx="22.984371"
       sodipodi:cy="195.37166"
       sodipodi:cx="50.894352"
       sodipodi:type="arc"
       id="path3814"
       style="fill:none;fill-opacity:1;stroke:#6c99ff;stroke-width:5.18352413;stroke-linecap:round;stroke-linejoin:miter;stroke-miterlimit:4;stroke-dasharray:none;stroke-opacity:1;paint-order:stroke fill markers" />
  </g>
</svg>
