<svg version="1.1" viewBox="0.0 0.0 865.2834645669292 374.26771653543307" fill="none" stroke="none" stroke-linecap="square" stroke-miterlimit="10" xmlns:xlink="http://www.w3.org/1999/xlink" xmlns="http://www.w3.org/2000/svg"><clipPath id="p.0"><path d="m0 0l865.28345 0l0 374.26773l-865.28345 0l0 -374.26773z" clip-rule="nonzero"/></clipPath><g clip-path="url(#p.0)"><path fill="#000000" fill-opacity="0.0" d="m0 0l865.28345 0l0 374.26773l-865.28345 0z" fill-rule="evenodd"/><path fill="#ffffff" d="m8.0 264.47507l40.913387 -40.91339l0 20.456696l765.4803 0l0 -20.456696l40.91339 40.91339l-40.91339 40.91339l0 -20.456696l-765.4803 0l0 20.456696z" fill-rule="evenodd"/><path stroke="#000000" stroke-width="1.0" stroke-linejoin="round" stroke-linecap="butt" d="m8.0 264.47507l40.913387 -40.91339l0 20.456696l765.4803 0l0 -20.456696l40.91339 40.91339l-40.91339 40.91339l0 -20.456696l-765.4803 0l0 20.456696z" fill-rule="evenodd"/><path fill="#000000" d="m270.63345 271.39505l0 -13.359375l4.609375 0q1.546875 0 2.375 0.203125q1.140625 0.25 1.953125 0.953125q1.0625 0.890625 1.578125 2.28125q0.53125 1.390625 0.53125 3.171875q0 1.515625 -0.359375 2.703125q-0.359375 1.171875 -0.921875 1.9375q-0.546875 0.765625 -1.203125 1.21875q-0.65625 0.4375 -1.59375 0.671875q-0.9375 0.21875 -2.140625 0.21875l-4.828125 0zm1.765625 -1.578125l2.859375 0q1.3125 0 2.0625 -0.234375q0.75 -0.25 1.203125 -0.703125q0.625 -0.625 0.96875 -1.6875q0.359375 -1.0625 0.359375 -2.578125q0 -2.09375 -0.6875 -3.21875q-0.6875 -1.125 -1.671875 -1.5q-0.703125 -0.28125 -2.28125 -0.28125l-2.8125 0l0 10.203125zm10.894836 -3.265625q0 -2.6875 1.484375 -3.96875q1.25 -1.078125 3.046875 -1.078125q2.0 0 3.265625 1.3125q1.265625 1.296875 1.265625 3.609375q0 1.859375 -0.5625 2.9375q-0.5625 1.0625 -1.640625 1.65625q-1.0625 0.59375 -2.328125 0.59375q-2.03125 0 -3.28125 -1.296875q-1.25 -1.3125 -1.25 -3.765625zm1.6875 0q0 1.859375 0.796875 2.796875q0.8125 0.921875 2.046875 0.921875q1.21875 0 2.03125 -0.921875q0.8125 -0.9375 0.8125 -2.84375q0 -1.796875 -0.8125 -2.71875q-0.8125 -0.921875 -2.03125 -0.921875q-1.234375 0 -2.046875 0.921875q-0.796875 0.90625 -0.796875 2.765625zm15.610107 1.296875l1.609375 0.21875q-0.265625 1.65625 -1.359375 2.609375q-1.078125 0.9375 -2.671875 0.9375q-1.984375 0 -3.1875 -1.296875q-1.203125 -1.296875 -1.203125 -3.71875q0 -1.578125 0.515625 -2.75q0.515625 -1.171875 1.578125 -1.75q1.0625 -0.59375 2.3125 -0.59375q1.578125 0 2.578125 0.796875q1.0 0.796875 1.28125 2.265625l-1.59375 0.234375q-0.234375 -0.96875 -0.8125 -1.453125q-0.578125 -0.5 -1.390625 -0.5q-1.234375 0 -2.015625 0.890625q-0.78125 0.890625 -0.78125 2.8125q0 1.953125 0.75 2.84375q0.75 0.875 1.953125 0.875q0.96875 0 1.609375 -0.59375q0.65625 -0.59375 0.828125 -1.828125zm9.34375 3.546875l0 -1.421875q-1.125 1.640625 -3.0625 1.640625q-0.859375 0 -1.609375 -0.328125q-0.734375 -0.328125 -1.09375 -0.828125q-0.359375 -0.5 -0.5 -1.21875q-0.109375 -0.46875 -0.109375 -1.53125l0 -5.984375l1.640625 0l0 5.359375q0 1.28125 0.109375 1.734375q0.15625 0.640625 0.65625 1.015625q0.5 0.375 1.234375 0.375q0.734375 0 1.375 -0.375q0.65625 -0.390625 0.921875 -1.03125q0.265625 -0.65625 0.265625 -1.890625l0 -5.1875l1.640625 0l0 9.671875l-1.46875 0zm4.047577 0l0 -9.671875l1.46875 0l0 1.359375q0.453125 -0.71875 1.203125 -1.140625q0.765625 -0.4375 1.71875 -0.4375q1.078125 0 1.765625 0.453125q0.6875 0.4375 0.96875 1.234375q1.15625 -1.6875 2.984375 -1.6875q1.453125 0 2.21875 0.796875q0.78125 0.796875 0.78125 2.453125l0 6.640625l-1.640625 0l0 -6.09375q0 -0.984375 -0.15625 -1.40625q-0.15625 -0.4375 -0.578125 -0.703125q-0.421875 -0.265625 -0.984375 -0.265625q-1.015625 0 -1.6875 0.6875q-0.671875 0.671875 -0.671875 2.15625l0 5.625l-1.640625 0l0 -6.28125q0 -1.09375 -0.40625 -1.640625q-0.40625 -0.546875 -1.3125 -0.546875q-0.6875 0 -1.28125 0.359375q-0.59375 0.359375 -0.859375 1.0625q-0.25 0.703125 -0.25 2.03125l0 5.015625l-1.640625 0zm22.165802 -3.109375l1.6875 0.203125q-0.40625 1.484375 -1.484375 2.3125q-1.078125 0.8125 -2.765625 0.8125q-2.125 0 -3.375 -1.296875q-1.234375 -1.3125 -1.234375 -3.671875q0 -2.453125 1.25 -3.796875q1.265625 -1.34375 3.265625 -1.34375q1.9375 0 3.15625 1.328125q1.234375 1.3125 1.234375 3.703125q0 0.15625 0 0.4375l-7.21875 0q0.09375 1.59375 0.90625 2.453125q0.8125 0.84375 2.015625 0.84375q0.90625 0 1.546875 -0.46875q0.640625 -0.484375 1.015625 -1.515625zm-5.390625 -2.65625l5.40625 0q-0.109375 -1.21875 -0.625 -1.828125q-0.78125 -0.953125 -2.03125 -0.953125q-1.125 0 -1.90625 0.765625q-0.765625 0.75 -0.84375 2.015625zm9.141357 5.765625l0 -9.671875l1.46875 0l0 1.375q1.0625 -1.59375 3.078125 -1.59375q0.875 0 1.609375 0.3125q0.734375 0.3125 1.09375 0.828125q0.375 0.5 0.515625 1.203125q0.09375 0.453125 0.09375 1.59375l0 5.953125l-1.640625 0l0 -5.890625q0 -1.0 -0.203125 -1.484375q-0.1875 -0.5 -0.671875 -0.796875q-0.484375 -0.296875 -1.140625 -0.296875q-1.046875 0 -1.8125 0.671875q-0.75 0.65625 -0.75 2.515625l0 5.28125l-1.640625 0zm13.953827 -1.46875l0.234375 1.453125q-0.6875 0.140625 -1.234375 0.140625q-0.890625 0 -1.390625 -0.28125q-0.484375 -0.28125 -0.6875 -0.734375q-0.203125 -0.46875 -0.203125 -1.9375l0 -5.578125l-1.203125 0l0 -1.265625l1.203125 0l0 -2.390625l1.625 -0.984375l0 3.375l1.65625 0l0 1.265625l-1.65625 0l0 5.671875q0 0.6875 0.078125 0.890625q0.09375 0.203125 0.28125 0.328125q0.203125 0.109375 0.578125 0.109375q0.265625 0 0.71875 -0.0625zm0.9489441 -1.421875l1.625 -0.25q0.125 0.96875 0.75 1.5q0.625 0.515625 1.75 0.515625q1.125 0 1.671875 -0.453125q0.546875 -0.46875 0.546875 -1.09375q0 -0.546875 -0.484375 -0.875q-0.328125 -0.21875 -1.671875 -0.546875q-1.8125 -0.46875 -2.515625 -0.796875q-0.6875 -0.328125 -1.046875 -0.90625q-0.359375 -0.59375 -0.359375 -1.3125q0 -0.640625 0.296875 -1.1875q0.296875 -0.5625 0.8125 -0.921875q0.375 -0.28125 1.03125 -0.46875q0.671875 -0.203125 1.421875 -0.203125q1.140625 0 2.0 0.328125q0.859375 0.328125 1.265625 0.890625q0.421875 0.5625 0.578125 1.5l-1.609375 0.21875q-0.109375 -0.75 -0.640625 -1.171875q-0.515625 -0.421875 -1.46875 -0.421875q-1.140625 0 -1.625 0.375q-0.46875 0.375 -0.46875 0.875q0 0.3125 0.1875 0.578125q0.203125 0.265625 0.640625 0.4375q0.234375 0.09375 1.4375 0.421875q1.75 0.453125 2.4375 0.75q0.6875 0.296875 1.078125 0.859375q0.390625 0.5625 0.390625 1.40625q0 0.828125 -0.484375 1.546875q-0.46875 0.71875 -1.375 1.125q-0.90625 0.390625 -2.046875 0.390625q-1.875 0 -2.875 -0.78125q-0.984375 -0.78125 -1.25 -2.328125z" fill-rule="nonzero"/><path fill="#000000" d="m365.84903 267.2388l0 -1.40625l4.828125 0l0 1.40625l-4.828125 0z" fill-rule="nonzero"/><path fill="#000000" d="m377.86465 269.9263l0.234375 1.453125q-0.6875 0.140625 -1.234375 0.140625q-0.890625 0 -1.390625 -0.28125q-0.484375 -0.28125 -0.6875 -0.734375q-0.203125 -0.46875 -0.203125 -1.9375l0 -5.578125l-1.203125 0l0 -1.265625l1.203125 0l0 -2.390625l1.625 -0.984375l0 3.375l1.65625 0l0 1.265625l-1.65625 0l0 5.671875q0 0.6875 0.078125 0.890625q0.09375 0.203125 0.28125 0.328125q0.203125 0.109375 0.578125 0.109375q0.265625 0 0.71875 -0.0625zm0.9957886 -3.375q0 -2.6875 1.484375 -3.96875q1.25 -1.078125 3.046875 -1.078125q2.0 0 3.265625 1.3125q1.265625 1.296875 1.265625 3.609375q0 1.859375 -0.5625 2.9375q-0.5625 1.0625 -1.640625 1.65625q-1.0625 0.59375 -2.328125 0.59375q-2.03125 0 -3.28125 -1.296875q-1.25 -1.3125 -1.25 -3.765625zm1.6875 0q0 1.859375 0.796875 2.796875q0.8125 0.921875 2.046875 0.921875q1.21875 0 2.03125 -0.921875q0.8125 -0.9375 0.8125 -2.84375q0 -1.796875 -0.8125 -2.71875q-0.8125 -0.921875 -2.03125 -0.921875q-1.234375 0 -2.046875 0.921875q-0.796875 0.90625 -0.796875 2.765625z" fill-rule="nonzero"/><path fill="#000000" d="m390.90805 267.2388l0 -1.40625l4.828125 0l0 1.40625l-4.828125 0z" fill-rule="nonzero"/><path fill="#000000" d="m398.07993 271.39505l5.125 -13.359375l1.90625 0l5.46875 13.359375l-2.015625 0l-1.546875 -4.046875l-5.59375 0l-1.46875 4.046875l-1.875 0zm3.859375 -5.484375l4.53125 0l-1.40625 -3.703125q-0.625 -1.6875 -0.9375 -2.765625q-0.265625 1.28125 -0.71875 2.546875l-1.46875 3.921875zm9.849823 9.1875l0 -13.375l1.484375 0l0 1.25q0.53125 -0.734375 1.1875 -1.09375q0.671875 -0.375 1.625 -0.375q1.234375 0 2.171875 0.640625q0.953125 0.625 1.4375 1.796875q0.484375 1.15625 0.484375 2.546875q0 1.484375 -0.53125 2.671875q-0.53125 1.1875 -1.546875 1.828125q-1.015625 0.625 -2.140625 0.625q-0.8125 0 -1.46875 -0.34375q-0.65625 -0.34375 -1.0625 -0.875l0 4.703125l-1.640625 0zm1.484375 -8.484375q0 1.859375 0.75 2.765625q0.765625 0.890625 1.828125 0.890625q1.09375 0 1.875 -0.921875q0.78125 -0.9375 0.78125 -2.875q0 -1.84375 -0.765625 -2.765625q-0.75 -0.921875 -1.8125 -0.921875q-1.046875 0 -1.859375 0.984375q-0.796875 0.96875 -0.796875 2.84375zm8.891327 8.484375l0 -13.375l1.484375 0l0 1.25q0.53125 -0.734375 1.1875 -1.09375q0.671875 -0.375 1.625 -0.375q1.234375 0 2.171875 0.640625q0.953125 0.625 1.4375 1.796875q0.484375 1.15625 0.484375 2.546875q0 1.484375 -0.53125 2.671875q-0.53125 1.1875 -1.546875 1.828125q-1.015625 0.625 -2.140625 0.625q-0.8125 0 -1.46875 -0.34375q-0.65625 -0.34375 -1.0625 -0.875l0 4.703125l-1.640625 0zm1.484375 -8.484375q0 1.859375 0.75 2.765625q0.765625 0.890625 1.828125 0.890625q1.09375 0 1.875 -0.921875q0.78125 -0.9375 0.78125 -2.875q0 -1.84375 -0.765625 -2.765625q-0.75 -0.921875 -1.8125 -0.921875q-1.046875 0 -1.859375 0.984375q-0.796875 0.96875 -0.796875 2.84375zm8.844482 4.78125l0 -13.359375l1.640625 0l0 13.359375l-1.640625 0zm4.1917114 -11.46875l0 -1.890625l1.640625 0l0 1.890625l-1.640625 0zm0 11.46875l0 -9.671875l1.640625 0l0 9.671875l-1.640625 0zm10.457306 -3.546875l1.609375 0.21875q-0.265625 1.65625 -1.359375 2.609375q-1.078125 0.9375 -2.671875 0.9375q-1.984375 0 -3.1875 -1.296875q-1.203125 -1.296875 -1.203125 -3.71875q0 -1.578125 0.515625 -2.75q0.515625 -1.171875 1.578125 -1.75q1.0625 -0.59375 2.3125 -0.59375q1.578125 0 2.578125 0.796875q1.0 0.796875 1.28125 2.265625l-1.59375 0.234375q-0.234375 -0.96875 -0.8125 -1.453125q-0.578125 -0.5 -1.390625 -0.5q-1.234375 0 -2.015625 0.890625q-0.78125 0.890625 -0.78125 2.8125q0 1.953125 0.75 2.84375q0.75 0.875 1.953125 0.875q0.96875 0 1.609375 -0.59375q0.65625 -0.59375 0.828125 -1.828125zm9.328125 2.359375q-0.921875 0.765625 -1.765625 1.09375q-0.828125 0.3125 -1.796875 0.3125q-1.59375 0 -2.453125 -0.78125q-0.859375 -0.78125 -0.859375 -1.984375q0 -0.71875 0.328125 -1.296875q0.328125 -0.59375 0.84375 -0.9375q0.53125 -0.359375 1.1875 -0.546875q0.46875 -0.125 1.453125 -0.25q1.984375 -0.234375 2.921875 -0.5625q0.015625 -0.34375 0.015625 -0.421875q0 -1.0 -0.46875 -1.421875q-0.625 -0.546875 -1.875 -0.546875q-1.15625 0 -1.703125 0.40625q-0.546875 0.40625 -0.8125 1.421875l-1.609375 -0.21875q0.21875 -1.015625 0.71875 -1.640625q0.5 -0.640625 1.453125 -0.984375q0.953125 -0.34375 2.1875 -0.34375q1.25 0 2.015625 0.296875q0.78125 0.28125 1.140625 0.734375q0.375 0.4375 0.515625 1.109375q0.078125 0.421875 0.078125 1.515625l0 2.1875q0 2.28125 0.109375 2.890625q0.109375 0.59375 0.40625 1.15625l-1.703125 0q-0.265625 -0.515625 -0.328125 -1.1875zm-0.140625 -3.671875q-0.890625 0.375 -2.671875 0.625q-1.015625 0.140625 -1.4375 0.328125q-0.421875 0.1875 -0.65625 0.53125q-0.21875 0.34375 -0.21875 0.78125q0 0.65625 0.5 1.09375q0.5 0.4375 1.453125 0.4375q0.9375 0 1.671875 -0.40625q0.75 -0.421875 1.09375 -1.140625q0.265625 -0.5625 0.265625 -1.640625l0 -0.609375zm7.781952 3.390625l0.234375 1.453125q-0.6875 0.140625 -1.234375 0.140625q-0.890625 0 -1.390625 -0.28125q-0.484375 -0.28125 -0.6875 -0.734375q-0.203125 -0.46875 -0.203125 -1.9375l0 -5.578125l-1.203125 0l0 -1.265625l1.203125 0l0 -2.390625l1.625 -0.984375l0 3.375l1.65625 0l0 1.265625l-1.65625 0l0 5.671875q0 0.6875 0.078125 0.890625q0.09375 0.203125 0.28125 0.328125q0.203125 0.109375 0.578125 0.109375q0.265625 0 0.71875 -0.0625zm1.6051941 -10.0l0 -1.890625l1.640625 0l0 1.890625l-1.640625 0zm0 11.46875l0 -9.671875l1.640625 0l0 9.671875l-1.640625 0zm3.535431 -4.84375q0 -2.6875 1.484375 -3.96875q1.25 -1.078125 3.046875 -1.078125q2.0 0 3.265625 1.3125q1.265625 1.296875 1.265625 3.609375q0 1.859375 -0.5625 2.9375q-0.5625 1.0625 -1.640625 1.65625q-1.0625 0.59375 -2.328125 0.59375q-2.03125 0 -3.28125 -1.296875q-1.25 -1.3125 -1.25 -3.765625zm1.6875 0q0 1.859375 0.796875 2.796875q0.8125 0.921875 2.046875 0.921875q1.21875 0 2.03125 -0.921875q0.8125 -0.9375 0.8125 -2.84375q0 -1.796875 -0.8125 -2.71875q-0.8125 -0.921875 -2.03125 -0.921875q-1.234375 0 -2.046875 0.921875q-0.796875 0.90625 -0.796875 2.765625zm9.297607 4.84375l0 -9.671875l1.46875 0l0 1.375q1.0625 -1.59375 3.078125 -1.59375q0.875 0 1.609375 0.3125q0.734375 0.3125 1.09375 0.828125q0.375 0.5 0.515625 1.203125q0.09375 0.453125 0.09375 1.59375l0 5.953125l-1.640625 0l0 -5.890625q0 -1.0 -0.203125 -1.484375q-0.1875 -0.5 -0.671875 -0.796875q-0.484375 -0.296875 -1.140625 -0.296875q-1.046875 0 -1.8125 0.671875q-0.75 0.65625 -0.75 2.515625l0 5.28125l-1.640625 0zm9.719482 -2.890625l1.625 -0.25q0.125 0.96875 0.75 1.5q0.625 0.515625 1.75 0.515625q1.125 0 1.671875 -0.453125q0.546875 -0.46875 0.546875 -1.09375q0 -0.546875 -0.484375 -0.875q-0.328125 -0.21875 -1.671875 -0.546875q-1.8125 -0.46875 -2.515625 -0.796875q-0.6875 -0.328125 -1.046875 -0.90625q-0.359375 -0.59375 -0.359375 -1.3125q0 -0.640625 0.296875 -1.1875q0.296875 -0.5625 0.8125 -0.921875q0.375 -0.28125 1.03125 -0.46875q0.671875 -0.203125 1.421875 -0.203125q1.140625 0 2.0 0.328125q0.859375 0.328125 1.265625 0.890625q0.421875 0.5625 0.578125 1.5l-1.609375 0.21875q-0.109375 -0.75 -0.640625 -1.171875q-0.515625 -0.421875 -1.46875 -0.421875q-1.140625 0 -1.625 0.375q-0.46875 0.375 -0.46875 0.875q0 0.3125 0.1875 0.578125q0.203125 0.265625 0.640625 0.4375q0.234375 0.09375 1.4375 0.421875q1.75 0.453125 2.4375 0.75q0.6875 0.296875 1.078125 0.859375q0.390625 0.5625 0.390625 1.40625q0 0.828125 -0.484375 1.546875q-0.46875 0.71875 -1.375 1.125q-0.90625 0.390625 -2.046875 0.390625q-1.875 0 -2.875 -0.78125q-0.984375 -0.78125 -1.25 -2.328125zm24.902008 -1.796875l1.765625 0.453125q-0.5625 2.171875 -2.0 3.328125q-1.4375 1.140625 -3.5312195 1.140625q-2.15625 0 -3.515625 -0.875q-1.34375 -0.890625 -2.0625 -2.546875q-0.703125 -1.671875 -0.703125 -3.59375q0 -2.078125 0.796875 -3.625q0.796875 -1.5625 2.265625 -2.359375q1.484375 -0.8125 3.25 -0.8125q1.9999695 0 3.3593445 1.015625q1.375 1.015625 1.90625 2.875l-1.734375 0.40625q-0.46875 -1.453125 -1.359375 -2.109375q-0.875 -0.671875 -2.2030945 -0.671875q-1.546875 0 -2.578125 0.734375q-1.03125 0.734375 -1.453125 1.984375q-0.421875 1.234375 -0.421875 2.5625q0 1.703125 0.5 2.96875q0.5 1.265625 1.546875 1.90625q1.046875 0.625 2.265625 0.625q1.4843445 0 2.5155945 -0.859375q1.03125 -0.859375 1.390625 -2.546875zm3.1292114 -0.15625q0 -2.6875 1.484375 -3.96875q1.25 -1.078125 3.046875 -1.078125q2.0 0 3.265625 1.3125q1.265625 1.296875 1.265625 3.609375q0 1.859375 -0.5625 2.9375q-0.5625 1.0625 -1.640625 1.65625q-1.0625 0.59375 -2.328125 0.59375q-2.03125 0 -3.28125 -1.296875q-1.25 -1.3125 -1.25 -3.765625zm1.6875 0q0 1.859375 0.796875 2.796875q0.8125 0.921875 2.046875 0.921875q1.21875 0 2.03125 -0.921875q0.8125 -0.9375 0.8125 -2.84375q0 -1.796875 -0.8125 -2.71875q-0.8125 -0.921875 -2.03125 -0.921875q-1.234375 0 -2.046875 0.921875q-0.796875 0.90625 -0.796875 2.765625zm9.297607 4.84375l0 -9.671875l1.46875 0l0 1.375q1.0625 -1.59375 3.078125 -1.59375q0.875 0 1.609375 0.3125q0.734375 0.3125 1.09375 0.828125q0.375 0.5 0.515625 1.203125q0.09375 0.453125 0.09375 1.59375l0 5.953125l-1.640625 0l0 -5.890625q0 -1.0 -0.203125 -1.484375q-0.1875 -0.5 -0.671875 -0.796875q-0.484375 -0.296875 -1.140625 -0.296875q-1.046875 0 -1.8125 0.671875q-0.75 0.65625 -0.75 2.515625l0 5.28125l-1.640625 0zm13.953796 -1.46875l0.234375 1.453125q-0.6875 0.140625 -1.234375 0.140625q-0.890625 0 -1.390625 -0.28125q-0.484375 -0.28125 -0.6875 -0.734375q-0.203125 -0.46875 -0.203125 -1.9375l0 -5.578125l-1.203125 0l0 -1.265625l1.203125 0l0 -2.390625l1.625 -0.984375l0 3.375l1.65625 0l0 1.265625l-1.65625 0l0 5.671875q0 0.6875 0.078125 0.890625q0.09375 0.203125 0.28125 0.328125q0.203125 0.109375 0.578125 0.109375q0.265625 0 0.71875 -0.0625zm1.6052246 -10.0l0 -1.890625l1.640625 0l0 1.890625l-1.640625 0zm0 11.46875l0 -9.671875l1.640625 0l0 9.671875l-1.640625 0zm4.1447754 0l0 -9.671875l1.46875 0l0 1.375q1.0625 -1.59375 3.078125 -1.59375q0.875 0 1.609375 0.3125q0.734375 0.3125 1.09375 0.828125q0.375 0.5 0.515625 1.203125q0.09375 0.453125 0.09375 1.59375l0 5.953125l-1.640625 0l0 -5.890625q0 -1.0 -0.203125 -1.484375q-0.1875 -0.5 -0.671875 -0.796875q-0.484375 -0.296875 -1.140625 -0.296875q-1.046875 0 -1.8125 0.671875q-0.75 0.65625 -0.75 2.515625l0 5.28125l-1.640625 0zm16.703857 0l0 -1.421875q-1.125 1.640625 -3.0625 1.640625q-0.859375 0 -1.609375 -0.328125q-0.734375 -0.328125 -1.09375 -0.828125q-0.359375 -0.5 -0.5 -1.21875q-0.109375 -0.46875 -0.109375 -1.53125l0 -5.984375l1.640625 0l0 5.359375q0 1.28125 0.109375 1.734375q0.15625 0.640625 0.65625 1.015625q0.5 0.375 1.234375 0.375q0.734375 0 1.375 -0.375q0.65625 -0.390625 0.921875 -1.03125q0.265625 -0.65625 0.265625 -1.890625l0 -5.1875l1.640625 0l0 9.671875l-1.46875 0zm10.375732 0l0 -1.421875q-1.125 1.640625 -3.0625 1.640625q-0.859375 0 -1.609375 -0.328125q-0.734375 -0.328125 -1.09375 -0.828125q-0.359375 -0.5 -0.5 -1.21875q-0.109375 -0.46875 -0.109375 -1.53125l0 -5.984375l1.640625 0l0 5.359375q0 1.28125 0.109375 1.734375q0.15625 0.640625 0.65625 1.015625q0.5 0.375 1.234375 0.375q0.734375 0 1.375 -0.375q0.65625 -0.390625 0.921875 -1.03125q0.265625 -0.65625 0.265625 -1.890625l0 -5.1875l1.640625 0l0 9.671875l-1.46875 0zm4.0476074 0l0 -9.671875l1.46875 0l0 1.359375q0.453125 -0.71875 1.203125 -1.140625q0.765625 -0.4375 1.71875 -0.4375q1.078125 0 1.765625 0.453125q0.6875 0.4375 0.96875 1.234375q1.15625 -1.6875 2.984375 -1.6875q1.453125 0 2.21875 0.796875q0.78125 0.796875 0.78125 2.453125l0 6.640625l-1.640625 0l0 -6.09375q0 -0.984375 -0.15625 -1.40625q-0.15625 -0.4375 -0.578125 -0.703125q-0.421875 -0.265625 -0.984375 -0.265625q-1.015625 0 -1.6875 0.6875q-0.671875 0.671875 -0.671875 2.15625l0 5.625l-1.640625 0l0 -6.28125q0 -1.09375 -0.40625 -1.640625q-0.40625 -0.546875 -1.3125 -0.546875q-0.6875 0 -1.28125 0.359375q-0.59375 0.359375 -0.859375 1.0625q-0.25 0.703125 -0.25 2.03125l0 5.015625l-1.640625 0z" fill-rule="nonzero"/><path fill="#000000" fill-opacity="0.0" d="m23.333334 192.53543c274.94727 0 449.33154 -44.13385 549.89453 -88.267715c100.56299 -44.133858 127.30475 -88.267715 254.60944 -88.267715" fill-rule="evenodd"/><path stroke="#0000ff" stroke-width="3.0" stroke-linejoin="round" stroke-linecap="butt" d="m23.333334 192.53543c274.94724 0 449.3315 -44.13385 549.89453 -88.267715c50.281494 -22.066925 82.10773 -44.133858 117.27661 -60.684055c17.58435 -8.275097 36.004578 -15.171013 57.985107 -19.998154c10.990234 -2.4135704 22.870667 -4.309946 35.98175 -5.60293c6.555481 -0.646492 13.418762 -1.1421375 20.632202 -1.4761581c0.9017334 -0.04175186 1.8088989 -0.08097839 2.7215576 -0.11766052c0.45635986 -0.018341064 0.91412354 -0.036045074 1.37323 -0.053108215l0.6416626 -0.022884369" fill-rule="evenodd"/><path fill="#0000ff" stroke="#0000ff" stroke-width="3.0" stroke-linecap="butt" d="m809.9261 21.267216l13.526123 -5.1910095l-13.698303 -4.71789z" fill-rule="evenodd"/><path fill="#000000" fill-opacity="0.0" d="m89.911125 138.62852l432.7874 -63.65355l6.0787354 41.291336l-432.7874 63.65355z" fill-rule="evenodd"/><path fill="#0000ff" d="m127.50622 160.30872l-1.9457397 -13.216934l1.7932129 -0.2637329l8.467964 9.351715l-1.527008 -10.372574l1.6695404 -0.24555969l1.9457397 13.216919l-1.7932129 0.26374817l-8.470238 -9.367172l1.5292892 10.388031l-1.669548 0.24555969zm19.245659 -5.9734497l1.6991272 -0.04458618q-0.18572998 1.5276489 -1.1317749 2.50383q-0.9483032 0.9607239 -2.6178436 1.2062683q-2.1023865 0.30921936 -3.5279694 -0.79193115q-1.4123993 -1.1188965 -1.7560272 -3.4531097q-0.35728455 -2.4269714 0.68370056 -3.9382782q1.0564423 -1.5135803 3.0351562 -1.8046112q1.9168701 -0.28193665 3.3160858 0.85469055q1.4123993 1.1188812 1.7605896 3.484024q0.022750854 0.15457153 0.063705444 0.4328308l-7.1419067 1.050415q0.32487488 1.5631104 1.253891 2.295105q0.92674255 0.7165222 2.1170654 0.5414429q0.8965912 -0.13186646 1.4621277 -0.6888428q0.56326294 -0.5724182 0.7840729 -1.6472473zm-5.7201233 -1.8435211l5.348709 -0.7866821q-0.28572083 -1.1898346 -0.8845978 -1.7176819q-0.9117584 -0.82928467 -2.1484528 -0.64738464q-1.1130219 0.16369629 -1.7744598 1.0348358q-0.64823914 0.8534241 -0.54119873 2.1169128zm15.985413 0.33372498l1.6991119 -0.04458618q-0.18572998 1.5276489 -1.1317596 2.50383q-0.9483185 0.9607239 -2.617859 1.2062683q-2.1023712 0.30921936 -3.527954 -0.7919464q-1.4123993 -1.1188812 -1.7560425 -3.4530945q-0.35728455 -2.4269714 0.68370056 -3.9382782q1.0564423 -1.5135956 3.0351562 -1.8046112q1.9168854 -0.28193665 3.316101 0.85469055q1.412384 1.1188812 1.7605743 3.4840088q0.022750854 0.15458679 0.0637207 0.43284607l-7.141922 1.050415q0.32487488 1.5631104 1.253891 2.2950897q0.92674255 0.7165222 2.1170654 0.54145813q0.89660645 -0.13186646 1.462143 -0.6888428q0.56326294 -0.5724335 0.7840729 -1.6472473zm-5.7201233 -1.8435211l5.348709 -0.7866821q-0.28572083 -1.1898346 -0.88461304 -1.7176819q-0.9117584 -0.82928467 -2.1484528 -0.64738464q-1.1130219 0.16369629 -1.7744446 1.0348358q-0.64823914 0.8534088 -0.54119873 2.1169128zm16.082718 3.4622345l-0.1775055 -1.2057495q-0.6872406 1.5540466 -2.464981 1.815506q-1.1439514 0.16824341 -2.195694 -0.32458496q-1.0517426 -0.49282837 -1.7434692 -1.5439758q-0.6917267 -1.0511627 -0.9079132 -2.5197144q-0.2116394 -1.4376221 0.09689331 -2.6674805q0.3062744 -1.2453308 1.1582184 -2.0023499q0.8674164 -0.75930786 2.0577393 -0.93437195q0.8656769 -0.12731934 1.585022 0.14590454q0.7325287 0.25550842 1.2363892 0.7815399l-0.6986542 -4.7457275l1.623169 -0.23873901l1.9457397 13.216934l-1.5149536 0.22280884zm-5.8200226 -4.024063q0.270813 1.8395386 1.178009 2.637909q0.9072113 0.7983551 1.9583893 0.64375305q1.0666504 -0.15687561 1.6812286 -1.1316833q0.6123047 -0.9902649 0.3506012 -2.7679749q-0.28901672 -1.963211 -1.1807556 -2.763855q-0.8940277 -0.8161011 -2.0070496 -0.6523895q-1.0666504 0.15687561 -1.6634979 1.144867q-0.5968323 0.98799133 -0.31692505 2.8893738zm15.40097 2.614914l-1.2243347 -8.316605l-1.4376526 0.21144104l-0.18434143 -1.252121l1.4376526 -0.2114563l-0.15019226 -1.0202484q-0.14109802 -0.9584198 -0.04159546 -1.4626465q0.13858032 -0.66789246 0.66911316 -1.1407471q0.53053284 -0.47286987 1.5971832 -0.6297455q0.68019104 -0.10003662 1.5377197 -0.068237305l-0.037979126 1.4585571q-0.5083313 -0.019989014 -0.9566345 0.045944214q-0.74201965 0.10913086 -1.0034027 0.4792328q-0.26365662 0.35464478 -0.13621521 1.2203064l0.12971497 0.88113403l1.8704987 -0.27511597l0.18434143 1.2521362l-1.8705139 0.2751007l1.22435 8.31662l-1.6077118 0.2364502zm3.4333038 -5.400818q-0.39141846 -2.658844 0.8905487 -4.1424255q1.0796661 -1.2485199 2.8574219 -1.5099945q1.978714 -0.29101562 3.4220276 0.8233185q1.44104 1.098877 1.7778473 3.3867188q0.27079773 1.8395538 -0.12867737 2.988037q-0.40176392 1.1330109 -1.3819427 1.8773193q-0.9647217 0.74201965 -2.2168732 0.92619324q-2.0096283 0.29556274 -3.4352112 -0.80558777q-1.4278564 -1.1166077 -1.785141 -3.543579zm1.6695404 -0.24555969q0.270813 1.8395538 1.195755 2.6511078q0.93811035 0.793808 2.1593475 0.6141968q1.20578 -0.1773529 1.8753662 -1.2076263q0.6673126 -1.0457306 0.3896637 -2.931656q-0.2617035 -1.77771 -1.1998138 -2.5715332q-0.9381256 -0.793808 -2.1439056 -0.61647034q-1.2212372 0.17962646 -1.8908234 1.2098999q-0.6564026 1.0125427 -0.3855896 2.8520813zm9.888641 3.4414673l-1.4086609 -9.568741l1.4531097 -0.21372986l0.21392822 1.4530945q0.40631104 -1.1021118 0.8222809 -1.4949493q0.431427 -0.39511108 1.0034027 -0.4792328q0.8193054 -0.12049866 1.7469177 0.2800293l-0.33576965 1.5813293q-0.6552429 -0.26687622 -1.2426605 -0.18048096q-0.5410614 0.079574585 -0.9106598 0.46559143q-0.36958313 0.38601685 -0.47317505 0.96980286q-0.15080261 0.9065857 0.001663208 1.9423065l0.7373352 5.0085144l-1.6077118 0.23646545zm10.219879 -4.4248505l1.5712891 -0.48379517q0.2647705 0.9402313 0.960495 1.3748779q0.69343567 0.4191742 1.8064728 0.2554779q1.1130219 -0.16369629 1.5880737 -0.6915741q0.47279358 -0.5433197 0.38175964 -1.1616669q-0.07965088 -0.54104614 -0.60665894 -0.7951813q-0.3564911 -0.16867065 -1.7337341 -0.29776q-1.8614807 -0.2000122 -2.6049042 -0.42233276q-0.72798157 -0.22457886 -1.1677246 -0.74424744q-0.44203186 -0.53512573 -0.5467224 -1.2462158q-0.09329224 -0.63378906 0.120773315 -1.2180328q0.21177673 -0.5997009 0.6695709 -1.0302734q0.3300476 -0.3328247 0.9520111 -0.6138153q0.63513184 -0.2987213 1.3771515 -0.40785217q1.1284943 -0.1659851 2.0265045 0.033599854q0.8980255 0.1995697 1.3818665 0.69696045q0.49931335 0.4951172 0.79045105 1.3998871l-1.5603943 0.45059204q-0.21743774 -0.7260895 -0.8044739 -1.0661621q-0.57159424 -0.3423462 -1.5145721 -0.2036438q-1.128479 0.16596985 -1.5530853 0.6074524q-0.4091339 0.43920898 -0.33631897 0.93388367q0.045516968 0.30915833 0.2696991 0.54467773q0.23965454 0.23323059 0.6975403 0.33961487q0.24552917 0.058639526 1.4836426 0.20819092q1.7973633 0.19364929 2.5207825 0.3873291q0.7234192 0.19366455 1.1918182 0.69332886q0.46839905 0.49964905 0.5912781 1.3344116q0.12062073 0.81929016 -0.2539215 1.6008606q-0.35906982 0.7792969 -1.196518 1.3130798q-0.8397064 0.51834106 -1.9681854 0.6843109q-1.8550415 0.2728424 -2.958191 -0.35456848q-1.087677 -0.62968445 -1.5757751 -2.1214142zm16.027832 -3.0206451l1.624115 -0.01777649q-0.021575928 1.6772461 -0.964859 2.779358q-0.93011475 1.0843811 -2.506897 1.3162994q-1.9632568 0.28874207 -3.3424683 -0.8192291q-1.3791962 -1.1079712 -1.7319336 -3.5040283q-0.22984314 -1.5612946 0.10960388 -2.7957q0.33946228 -1.2344055 1.3064575 -1.9609833q0.9647064 -0.74201965 2.2014008 -0.9239044q1.5613251 -0.22964478 2.666748 0.41322327q1.105423 0.64286804 1.5975952 2.0550232l-1.5426483 0.4637909q-0.37298584 -0.9243164 -1.0155029 -1.319397q-0.64479065 -0.41055298 -1.4486389 -0.29232788q-1.2212372 0.17962646 -1.8644562 1.1744385q-0.643219 0.994812 -0.36331177 2.8961945q0.2844696 1.9322968 1.1562042 2.7042847q0.86946106 0.75653076 2.0597687 0.5814667q0.9584503 -0.1409607 1.5057831 -0.8216095q0.56277466 -0.6829071 0.55303955 -1.9291229zm9.572479 0.9768524q-0.80055237 0.89160156 -1.5875397 1.3390045q-0.77378845 0.42967224 -1.7322235 0.57063293q-1.5767975 0.23191833 -2.540802 -0.4159546q-0.9640198 -0.6478729 -1.1392517 -1.8381653q-0.10467529 -0.7110901 0.13575745 -1.3307953q0.23814392 -0.63516235 0.6982269 -1.0502777q0.47325134 -0.43284607 1.0951996 -0.71383667q0.44555664 -0.19187927 1.4012451 -0.458786q1.9291229 -0.5206299 2.8088531 -0.9816742q-0.034606934 -0.34236145 -0.04598999 -0.41964722q-0.14564514 -0.9893341 -0.6708374 -1.338501q-0.69799805 -0.45010376 -1.9347076 -0.26820374q-1.1439362 0.16824341 -1.625824 0.6497345q-0.48188782 0.48150635 -0.596756 1.5249481l-1.624115 0.01776123q0.06851196 -1.0366211 0.4721527 -1.7277069q0.40138245 -0.7065582 1.2942963 -1.1853333q0.8929138 -0.47877502 2.114151 -0.65838623q1.2366943 -0.18190002 2.0373993 3.9672852E-4q0.8139038 0.1645813 1.2354431 0.5605774q0.43473816 0.37826538 0.6717224 1.0225067q0.13873291 0.40602112 0.29803467 1.4880981l0.31860352 2.1641846q0.33224487 2.2569122 0.5292206 2.843872q0.19468689 0.57151794 0.57032776 1.0848083l-1.6849976 0.24783325q-0.33790588 -0.47148132 -0.4975891 -1.1270905zm-0.6739197 -3.612259q-0.8265381 0.5005951 -2.552414 1.0071259q-0.9843292 0.286911 -1.3744049 0.5337982q-0.39007568 0.2468872 -0.5718994 0.6210785q-0.16635132 0.37191772 -0.102630615 0.80474854q0.095581055 0.6492615 0.65397644 1.0093384q0.5583954 0.3600769 1.5013885 0.22137451q0.92752075 -0.13641357 1.5949097 -0.6451874q0.6805725 -0.5265198 0.91596985 -1.2876129q0.18087769 -0.5951538 0.023849487 -1.661789l-0.08874512 -0.60287476zm4.820465 4.202667l-1.9457397 -13.216919l1.623169 -0.23873901l1.9457397 13.216919l-1.623169 0.23873901zm10.219437 -2.7033386q-0.80055237 0.8916168 -1.5875244 1.3390198q-0.7738037 0.42965698 -1.7322388 0.57063293q-1.5767822 0.23190308 -2.540802 -0.4159546q-0.9640198 -0.6478729 -1.1392365 -1.8381653q-0.10469055 -0.7110901 0.13574219 -1.3307953q0.23815918 -0.63516235 0.6982269 -1.0502777q0.47325134 -0.43284607 1.0952148 -0.7138519q0.44554138 -0.19186401 1.4012451 -0.45877075q1.9291077 -0.5206299 2.808838 -0.9816742q-0.034606934 -0.34236145 -0.04597473 -0.41964722q-0.14564514 -0.98934937 -0.67085266 -1.3385162q-0.69799805 -0.4500885 -1.9346924 -0.26820374q-1.1439514 0.16825867 -1.6258392 0.64974976q-0.48187256 0.4814911 -0.596756 1.5249329l-1.6240997 0.01777649q0.068496704 -1.0366364 0.4721527 -1.7277222q0.4013672 -0.70654297 1.294281 -1.185318q0.8929138 -0.47879028 2.114151 -0.6584015q1.2366943 -0.18188477 2.0374146 4.119873E-4q0.81388855 0.16456604 1.2354431 0.56056213q0.4347229 0.37828064 0.67170715 1.022522q0.13873291 0.40600586 0.29803467 1.4880981l0.31860352 2.1641693q0.33226013 2.2569275 0.5292206 2.8438873q0.19468689 0.5715027 0.57032776 1.0848083l-1.6849976 0.247818q-0.33789062 -0.47146606 -0.4975891 -1.1270905zm-0.6739197 -3.612259q-0.8265228 0.50061035 -2.5523987 1.0071411q-0.9843445 0.286911 -1.3744202 0.5337982q-0.39007568 0.2468872 -0.57188416 0.6210785q-0.16636658 0.37190247 -0.102645874 0.80474854q0.095581055 0.6492462 0.6539917 1.0093231q0.5583954 0.3600769 1.5013733 0.22138977q0.92752075 -0.13641357 1.5949097 -0.64520264q0.6805725 -0.5265045 0.9159851 -1.2876129q0.18086243 -0.5951538 0.023849487 -1.6617737l-0.088760376 -0.60289zm6.350876 3.9775848l-1.4994812 0.22053528l-1.9457397 -13.216919l1.6231537 -0.23872375l0.6940918 4.714798q0.84684753 -1.435379 2.4391022 -1.6695557q0.8811493 -0.1295929 1.721878 0.10998535q0.84072876 0.2395935 1.4464569 0.81381226q0.60343933 0.5587616 1.0159607 1.4298859q0.42797852 0.8688507 0.5804596 1.9045563q0.36183167 2.4578857 -0.6614075 3.982376q-1.0077972 1.522232 -2.723709 1.7745972q-1.6849976 0.24783325 -2.8682709 -1.0310974l0.1775055 1.2057495zm-0.73002625 -4.851654q0.25260925 1.7158813 0.8456116 2.4183044q0.941803 1.1407318 2.2557983 0.947464q1.0666504 -0.15687561 1.7030334 -1.1980591q0.6363983 -1.0411835 0.3678589 -2.8652802q-0.2753601 -1.8704681 -1.1493683 -2.6579132q-0.8740082 -0.78744507 -1.9406586 -0.63056946q-1.0511932 0.15460205 -1.7030487 1.1980591q-0.63638306 1.0411835 -0.37922668 2.7879944zm7.8408966 -7.786331l-0.2753601 -1.8704681l1.6231537 -0.23873138l0.27539062 1.8704605l-1.6231842 0.23873901zm1.6703949 11.346451l-1.4086761 -9.568741l1.6231537 -0.23872375l1.4086609 9.568741l-1.6231384 0.23872375zm4.0543213 -0.5962982l-1.9457397 -13.216919l1.623169 -0.23873138l1.9457397 13.216911l-1.623169 0.23873901zm2.476715 -11.956406l-0.27539062 -1.8704605l1.623169 -0.23873138l0.2753601 1.8704681l-1.6231384 0.23872375zm1.6703491 11.346466l-1.4086609 -9.568741l1.623169 -0.23873901l1.4086609 9.568741l-1.623169 0.23873901zm7.4268494 -2.5768738l0.44351196 1.4035187q-0.6596985 0.23916626 -1.2007446 0.31874084q-0.88116455 0.1295929 -1.4167786 -0.07589722q-0.52020264 -0.20776367 -0.7871704 -0.62649536q-0.26922607 -0.4342041 -0.48312378 -1.8872833l-0.81243896 -5.5186462l-1.1903381 0.17506409l-0.18432617 -1.252121l1.1903381 -0.17507935l-0.34820557 -2.3651276l1.464325 -1.2103424l0.49157715 3.3390198l1.6386108 -0.24101257l0.18432617 1.2521362l-1.6386108 0.24099731l0.8260803 5.6114044q0.100128174 0.6801605 0.20703125 0.869751q0.12231445 0.1873169 0.3260193 0.28370667q0.21691895 0.0786438 0.58792114 0.02407837q0.26278687 -0.038650513 0.70199585 -0.16641235zm2.266327 4.909973l-0.4085083 -1.4876404q0.56152344 0.059555054 0.94799805 0.0027160645q0.54104614 -0.079589844 0.8383789 -0.3128357q0.29959106 -0.2177887 0.4682312 -0.574234q0.11816406 -0.27008057 0.3171692 -1.2785187q0.025878906 -0.14595032 0.079956055 -0.42237854l-5.0437317 -9.049896l1.7468262 -0.2569275l2.8088684 5.240814q0.54348755 1.0097809 1.023346 2.1236877q0.1144104 -1.1539307 0.34384155 -2.2774048l1.2344971 -5.8828583l1.6231384 -0.23873901l-2.2167969 10.259903q-0.35305786 1.6786194 -0.5911865 2.3137817q-0.31451416 0.8674927 -0.81640625 1.320343q-0.5018921 0.45285034 -1.2748413 0.5665436q-0.47921753 0.07048035 -1.08078 -0.0463562zm9.181915 -5.109207l-0.2731018 -1.855011l1.8550415 -0.2728424l0.2731018 1.855011q0.150177 1.0202484 -0.12979126 1.693161q-0.26223755 0.68608093 -1.0005798 1.1421204l-0.5506897 -0.62968445q0.47827148 -0.29145813 0.65960693 -0.77612305q0.18362427 -0.46920776 0.093933105 -1.2930603l-0.92752075 0.13642883zm15.567596 -5.874695l1.624115 -0.01776123q-0.021575928 1.6772308 -0.96487427 2.779358q-0.93011475 1.0843811 -2.506897 1.3162842q-1.9632568 0.28875732 -3.3424377 -0.81921387q-1.3792114 -1.1079865 -1.7319641 -3.5040283q-0.22982788 -1.5612946 0.10961914 -2.7957153q0.33944702 -1.2344055 1.3064575 -1.960968q0.96469116 -0.7420273 2.2013855 -0.9239197q1.5613403 -0.22963715 2.666748 0.4132309q1.1054382 0.6428604 1.5975952 2.0550308l-1.542633 0.46377563q-0.37298584 -0.9243088 -1.0155029 -1.319397q-0.6448059 -0.41054535 -1.4486389 -0.29231262q-1.2212524 0.17961884 -1.8644714 1.1744232q-0.643219 0.994812 -0.36328125 2.8961945q0.28445435 1.9322968 1.156189 2.7043q0.8694458 0.75653076 2.059784 0.5814514q0.95843506 -0.1409607 1.5057678 -0.82159424q0.56277466 -0.6829071 0.55303955 -1.9291382zm2.191742 -1.6331787q-0.39141846 -2.6588516 0.89056396 -4.142433q1.0796509 -1.2485199 2.8574219 -1.5099869q1.9786987 -0.29102325 3.4220276 0.8233185q1.44104 1.098877 1.777832 3.3867188q0.270813 1.8395538 -0.12866211 2.988037q-0.40176392 1.1330109 -1.381958 1.8773193q-0.96469116 0.74201965 -2.216858 0.926178q-2.0096436 0.295578 -3.4352112 -0.8055725q-1.4278564 -1.1166229 -1.7851562 -3.543579zm1.6695557 -0.24555969q0.270813 1.8395538 1.1957397 2.6510925q0.93811035 0.79382324 2.1593628 0.6141968q1.20578 -0.17733765 1.8753662 -1.2076111q0.66729736 -1.0457306 0.38967896 -2.931656q-0.26171875 -1.77771 -1.1998291 -2.5715256q-0.93814087 -0.79382324 -2.143921 -0.61647797q-1.2212219 0.17961884 -1.8908081 1.2098923q-0.6564026 1.0125427 -0.3855896 2.852089zm8.833832 0.674881l1.5712891 -0.48379517q0.2647705 0.9402313 0.96047974 1.3748627q0.6934509 0.41918945 1.806488 0.2554779q1.1130066 -0.16369629 1.5880737 -0.69155884q0.47277832 -0.54333496 0.38174438 -1.1616669q-0.07965088 -0.54104614 -0.60665894 -0.79519653q-0.35647583 -0.16867065 -1.7337341 -0.29776q-1.8614807 -0.2000122 -2.604889 -0.4223175q-0.7279968 -0.22458649 -1.1677246 -0.74425507q-0.44204712 -0.53512573 -0.5467224 -1.2462158q-0.09329224 -0.63378906 0.12075806 -1.2180328q0.21179199 -0.5997009 0.6695862 -1.0302734q0.3300476 -0.33281708 0.95199585 -0.6138153q0.63516235 -0.2987213 1.3771667 -0.4078598q1.128479 -0.16596985 2.0264893 0.033607483q0.8980408 0.1995697 1.381897 0.69696045q0.4992981 0.4951172 0.7904358 1.3998795l-1.5603943 0.45059967q-0.21743774 -0.72608185 -0.8044739 -1.0661545q-0.57159424 -0.3423462 -1.5145569 -0.20365906q-1.1285095 0.16597748 -1.5531006 0.60746q-0.40914917 0.43920898 -0.33633423 0.93388367q0.045532227 0.30916595 0.26971436 0.5446701q0.23965454 0.23323822 0.6975403 0.33961487q0.24551392 0.058647156 1.4836426 0.20820618q1.7973633 0.19364929 2.5207825 0.38731384q0.7234192 0.19367218 1.191803 0.69332886q0.4684143 0.4996643 0.5913086 1.3344116q0.12060547 0.8193054 -0.25393677 1.6008606q-0.35906982 0.7792969 -1.1965027 1.3130951q-0.8397217 0.5183258 -1.9682007 0.68429565q-1.8550415 0.2728424 -2.958191 -0.35456848q-1.087677 -0.6296692 -1.5757751 -2.121399zm13.625244 -0.566803l0.44351196 1.4035187q-0.6596985 0.23916626 -1.2007446 0.31874084q-0.88116455 0.12960815 -1.4168091 -0.07589722q-0.5201721 -0.20776367 -0.7871399 -0.62649536q-0.26922607 -0.4342041 -0.4831543 -1.8872833l-0.81240845 -5.5186462l-1.1903381 0.17506409l-0.18432617 -1.2521286l1.1903076 -0.17506409l-0.34817505 -2.3651352l1.464325 -1.2103348l0.49157715 3.3390121l1.6386108 -0.24100494l0.18432617 1.2521286l-1.6386108 0.24100494l0.8260803 5.611397q0.100128174 0.6801605 0.20700073 0.869751q0.12234497 0.1873169 0.3260498 0.28370667q0.21688843 0.0786438 0.58792114 0.02407837q0.26278687 -0.038650513 0.70199585 -0.16641235zm2.2193909 1.1581268l-0.2731018 -1.855011l1.8550415 -0.2728424l0.2731018 1.855011q0.15020752 1.0202484 -0.12979126 1.693161q-0.26223755 0.68608093 -1.0005798 1.1421204l-0.5506897 -0.62968445q0.47827148 -0.29145813 0.65960693 -0.77612305q0.18362427 -0.46920776 0.093933105 -1.2930603l-0.92752075 0.13642883zm13.165009 -3.4208374l0.44351196 1.4035187q-0.6596985 0.23916626 -1.2007446 0.31874084q-0.88116455 0.12960815 -1.4167786 -0.07589722q-0.52020264 -0.20776367 -0.7871704 -0.62649536q-0.26922607 -0.4342041 -0.48312378 -1.8872833l-0.81243896 -5.5186462l-1.1903381 0.17507172l-0.18432617 -1.2521286l1.1903381 -0.17507172l-0.34820557 -2.3651352l1.464325 -1.2103348l0.49157715 3.3390121l1.6386108 -0.24100494l0.18432617 1.2521286l-1.6386108 0.24100494l0.8260803 5.611397q0.100128174 0.68016815 0.20700073 0.8697586q0.12234497 0.1873169 0.3260498 0.28369904q0.21691895 0.07865143 0.58792114 0.024085999q0.26278687 -0.038650513 0.70199585 -0.16641998zm0.13162231 -10.1269455l-0.2753601 -1.8704605l1.623169 -0.23873138l0.2753601 1.8704605l-1.623169 0.23873138zm1.6703796 11.346458l-1.4086609 -9.568741l1.623169 -0.23873138l1.4086609 9.568733l-1.623169 0.23873901zm4.100708 -0.6031189l-1.4086609 -9.568748l1.453125 -0.21372223l0.19799805 1.3448792q0.3435974 -0.7770233 1.0241699 -1.3035355q0.6937561 -0.54424286 1.6367493 -0.68293q1.0666504 -0.15688324 1.8128357 0.1913681q0.7438965 0.3327942 1.1382141 1.080246q0.89816284 -1.8377533 2.7068176 -2.1037674q1.4376831 -0.21144867 2.3112183 0.46552277q0.88897705 0.6746979 1.1302185 2.3132858l0.9671631 6.5698166l-1.6231384 0.23873138l-0.8875427 -6.0287704q-0.14337158 -0.9738846 -0.35940552 -1.3685226q-0.21829224 -0.4100952 -0.67437744 -0.6115036q-0.4560852 -0.20140076 -1.0125732 -0.11955261q-1.0048218 0.147789 -1.5694275 0.9257202q-0.566864 0.7624817 -0.3506775 2.2310257l0.8192749 5.5650177l-1.623169 0.23873138l-0.91482544 -6.2142715q-0.15930176 -1.0820847 -0.64089966 -1.5640106q-0.48156738 -0.4819336 -1.3781738 -0.3500595q-0.6801758 0.10003662 -1.215271 0.5419769q-0.5350952 0.4419403 -0.6954651 1.1762238q-0.14492798 0.73200226 0.04849243 2.045967l0.73049927 4.962143l-1.623169 0.23873901zm21.47699 -6.301628l1.6991272 -0.04459381q-0.18572998 1.5276642 -1.1317749 2.5038376q-0.9483032 0.96071625 -2.617859 1.2062683q-2.102356 0.30921936 -3.527954 -0.7919388q-1.412384 -1.1188889 -1.756012 -3.453102q-0.3572998 -2.4269714 0.6836853 -3.9382782q1.056427 -1.513588 3.0351562 -1.8046112q1.9168701 -0.28193665 3.316101 0.8546829q1.412384 1.1188889 1.7605591 3.484024q0.022766113 0.15457916 0.0637207 0.4328308l-7.1419067 1.0504227q0.32489014 1.5631104 1.2539062 2.2950974q0.9267273 0.7165222 2.117035 0.5414505q0.89660645 -0.13186646 1.4621582 -0.6888428q0.56326294 -0.57242584 0.7840576 -1.6472473zm-5.7201233 -1.8435211l5.3487244 -0.7866745q-0.28573608 -1.1898422 -0.88461304 -1.7176895q-0.91174316 -0.82927704 -2.1484375 -0.6473923q-1.1130371 0.16370392 -1.7744751 1.0348511q-0.6482239 0.8534088 -0.54119873 2.1169052zm10.301178 4.3125763l-0.2730713 -1.855011l1.8550415 -0.27283478l0.2731018 1.8550034q0.150177 1.020256 -0.12979126 1.693161q-0.26223755 0.68608856 -1.0005798 1.142128l-0.5507202 -0.6296921q0.478302 -0.2914505 0.65963745 -0.77612305q0.18362427 -0.46920776 0.093933105 -1.2930527l-0.92755127 0.1364212zm15.567596 -5.874687l1.624115 -0.01776123q-0.021575928 1.6772385 -0.96487427 2.7793503q-0.93011475 1.0843887 -2.506897 1.3162994q-1.9632568 0.2887497 -3.3424683 -0.8192291q-1.3791809 -1.1079712 -1.7319336 -3.5040207q-0.22982788 -1.5613022 0.10961914 -2.7957077q0.33944702 -1.2344131 1.3064575 -1.9609756q0.96469116 -0.7420273 2.2013855 -0.9239197q1.5613403 -0.22963715 2.666748 0.4132309q1.1054382 0.6428604 1.5975952 2.0550232l-1.542633 0.4637909q-0.37298584 -0.9243164 -1.0155029 -1.3194046q-0.6448059 -0.41053772 -1.4486389 -0.29231262q-1.2212524 0.17961884 -1.8644714 1.1744308q-0.643219 0.9948044 -0.36331177 2.8961868q0.28448486 1.9322968 1.1562195 2.7042923q0.8694458 0.7565384 2.0597534 0.5814667q0.9584656 -0.14096832 1.5057678 -0.82160187q0.5628052 -0.68291473 0.55307007 -1.9291382zm2.191742 -1.6331863q-0.39141846 -2.6588364 0.89056396 -4.1424255q1.0796509 -1.2485199 2.8574219 -1.5099869q1.9786987 -0.29102325 3.4220276 0.8233185q1.44104 1.098877 1.777832 3.3867188q0.270813 1.8395538 -0.12869263 2.9880295q-0.40176392 1.1330185 -1.3819275 1.8773193q-0.9647217 0.7420273 -2.216858 0.92619324q-2.0096436 0.29557037 -3.4352112 -0.80558014q-1.4278564 -1.1166153 -1.7851562 -3.5435867zm1.6695557 -0.24555206q0.270813 1.8395538 1.1957397 2.6511002q0.93811035 0.7938156 2.1593628 0.6141968q1.20578 -0.17734528 1.8753662 -1.2076187q0.66729736 -1.0457306 0.38964844 -2.931656q-0.26168823 -1.77771 -1.1998291 -2.5715256q-0.93811035 -0.7938156 -2.1438904 -0.61647797q-1.2212219 0.17961884 -1.8908081 1.2098923q-0.6564026 1.0125427 -0.3855896 2.852089zm9.904114 3.439186l-1.4086609 -9.568748l1.4530945 -0.2137146l0.19799805 1.3448792q0.34362793 -0.7770233 1.0242004 -1.3035355q0.6937561 -0.54424286 1.6367188 -0.6829376q1.0666504 -0.15687561 1.8128357 0.19137573q0.7438965 0.3327942 1.1382141 1.080246q0.89816284 -1.8377533 2.7068481 -2.1037674q1.4376526 -0.21144867 2.3111877 0.46552277q0.88900757 0.67469025 1.1302185 2.3132858l0.9671936 6.569809l-1.623169 0.23873138l-0.8875427 -6.0287704q-0.14337158 -0.97387695 -0.359375 -1.368515q-0.21832275 -0.41010284 -0.67440796 -0.6115036q-0.4560547 -0.20140839 -1.0125732 -0.11955261q-1.0048218 0.14778137 -1.569397 0.9257202q-0.566864 0.76247406 -0.3506775 2.2310257l0.8192444 5.5650177l-1.6231384 0.23873138l-0.91485596 -6.2142715q-0.15930176 -1.0820847 -0.64086914 -1.5640182q-0.48156738 -0.48192596 -1.3781738 -0.3500595q-0.6802063 0.10004425 -1.215271 0.54198456q-0.5350952 0.4419403 -0.6954956 1.1762161q-0.14492798 0.7320099 0.04852295 2.0459747l0.73049927 4.962143l-1.623169 0.23873138zm15.914764 1.4022446l-1.9480286 -13.232376l1.4685974 -0.21599579l0.18203735 1.2366714q0.41864014 -0.80384827 1.015564 -1.2548828q0.6101074 -0.4687729 1.5531006 -0.60746q1.2212219 -0.17961884 2.2420654 0.31775665q1.0339966 0.47964478 1.6838989 1.5685425q0.6476135 1.0734329 0.8501587 2.449234q0.21618652 1.468544 -0.13644409 2.7206879q-0.35263062 1.2521362 -1.2641602 2.033722q-0.91378784 0.7661209 -2.0267944 0.9298248q-0.8038635 0.1182251 -1.5032043 -0.12636566q-0.6993103 -0.24459076 -1.1786194 -0.7110596l0.68499756 4.6529694l-1.623169 0.23873138zm0.23284912 -8.609894q0.270813 1.8395462 1.1448364 2.626999q0.8871765 0.76971436 1.938385 0.6151123q1.0820923 -0.1591568 1.7207642 -1.1848831q0.63638306 -1.0411835 0.35421753 -2.958023q-0.2685547 -1.824089 -1.1602783 -2.6247253q-0.87628174 -0.80290985 -1.9274902 -0.6483078q-1.0357361 0.15233612 -1.6961975 1.2444458q-0.64730835 1.0743713 -0.37423706 2.9293823zm9.446655 3.4432907l-1.9457397 -13.216927l1.623169 -0.23873138l1.9457397 13.216927l-1.623169 0.23873138zm10.248718 -4.6501923l1.6991272 -0.04459381q-0.18572998 1.5276642 -1.1317749 2.5038376q-0.9483032 0.96071625 -2.6178284 1.2062683q-2.1023865 0.30921936 -3.5279846 -0.7919388q-1.412384 -1.1188889 -1.756012 -3.453102q-0.3572998 -2.4269714 0.6836853 -3.9382782q1.0564575 -1.513588 3.0351562 -1.8046112q1.9168701 -0.28192902 3.316101 0.8546829q1.412384 1.1188889 1.7605591 3.484024q0.022766113 0.15458679 0.0637207 0.43283844l-7.1419067 1.050415q0.32489014 1.563118 1.2539062 2.2950974q0.9267273 0.7165222 2.117035 0.5414505q0.89660645 -0.13186646 1.4621582 -0.68883514q0.56326294 -0.5724335 0.7840576 -1.647255zm-5.7201233 -1.8435211l5.3487244 -0.7866745q-0.28573608 -1.1898422 -0.88461304 -1.7176895q-0.91174316 -0.82927704 -2.1484375 -0.64738464q-1.1130371 0.16369629 -1.7744751 1.0348434q-0.6482239 0.8534088 -0.54119873 2.1169052zm8.801697 4.533119l2.7608948 -5.4914474l-3.9067688 -4.115944l2.0250854 -0.29785156l1.7985535 2.0254745q0.51071167 0.57240295 0.8217468 0.9688568q0.3154602 -0.64653015 0.5718384 -1.1580276l1.2908936 -2.4956589l1.9323425 -0.28420258l-2.645935 4.984947l4.301941 4.5474167l-1.9941711 0.2932968l-2.4002075 -2.6792526l-0.6284485 -0.7288132l-1.964508 4.142456l-1.9632568 0.2887497zm8.640564 -12.862976l-0.2753601 -1.8704605l1.623169 -0.23873138l0.2753601 1.8704605l-1.623169 0.23873138zm1.6703796 11.346458l-1.4086609 -9.568741l1.623169 -0.23873138l1.4086609 9.568741l-1.623169 0.23873138zm7.4268494 -2.5768738l0.44354248 1.4035263q-0.659729 0.23916626 -1.2007751 0.31874084q-0.88113403 0.1295929 -1.4167786 -0.07589722q-0.5201721 -0.2077713 -0.7871399 -0.626503q-0.26922607 -0.43419647 -0.4831543 -1.8872833l-0.81243896 -5.5186462l-1.1903076 0.17507172l-0.18432617 -1.2521286l1.1903076 -0.17507172l-0.34817505 -2.3651352l1.464325 -1.2103348l0.49154663 3.3390121l1.6386414 -0.24100494l0.18432617 1.2521286l-1.6386414 0.24100494l0.82611084 5.611397q0.100128174 0.68016815 0.20700073 0.8697586q0.12234497 0.1873169 0.3260498 0.28369904q0.21688843 0.07865143 0.5878906 0.024085999q0.26278687 -0.038650513 0.70199585 -0.16641998zm2.266327 4.909981l-0.4085083 -1.4876404q0.56152344 0.059547424 0.94799805 0.002708435q0.54104614 -0.079574585 0.8383789 -0.31282806q0.29959106 -0.2177887 0.4682312 -0.57424164q0.11816406 -0.27007294 0.3171692 -1.278511q0.025878906 -0.14595032 0.079956055 -0.42237854l-5.0437317 -9.049896l1.7468262 -0.25691986l2.8088684 5.240799q0.54348755 1.0097885 1.023346 2.1236954q0.1144104 -1.1539307 0.34384155 -2.2773972l1.2344971 -5.8828735l1.6231384 -0.23873138l-2.2168274 10.259903q-0.35302734 1.6786118 -0.5911865 2.3137817q-0.31448364 0.8674927 -0.81637573 1.320343q-0.5019226 0.45285797 -1.2748413 0.56653595q-0.47921753 0.070487976 -1.08078 -0.04634857zm9.181885 -5.109215l-0.2730713 -1.8550034l1.8550415 -0.2728424l0.2731018 1.855011q0.150177 1.020256 -0.12979126 1.6931534q-0.26223755 0.68608856 -1.0005798 1.142128l-0.5507202 -0.6296921q0.478302 -0.29144287 0.65963745 -0.7761154q0.18362427 -0.4692154 0.093933105 -1.2930603l-0.92755127 0.1364212zm10.28717 -1.5130157l-0.2730713 -1.8550034l1.8550415 -0.27283478l0.2730713 1.8550034l-1.8550415 0.27283478zm5.128113 -0.7542343l-0.2730713 -1.8550034l1.8550415 -0.27283478l0.2730713 1.8550034l-1.8550415 0.27283478zm5.128113 -0.7542343l-0.2730713 -1.8550034l1.8550415 -0.27283478l0.2731018 1.8550034l-1.855072 0.27283478z" fill-rule="nonzero"/><path fill="#000000" fill-opacity="0.0" d="m14.774279 326.2651l170.11024 0l0 37.44879l-170.11024 0z" fill-rule="evenodd"/><path fill="#000000" d="m25.211779 353.1851l0 -13.359375l4.609375 0q1.546875 0 2.374998 0.203125q1.140625 0.25 1.953125 0.953125q1.0625 0.890625 1.578125 2.28125q0.53125 1.390625 0.53125 3.171875q0 1.515625 -0.359375 2.703125q-0.359375 1.171875 -0.921875 1.9375q-0.546875 0.765625 -1.203125 1.21875q-0.65625 0.4375 -1.59375 0.671875q-0.9374981 0.21875 -2.140623 0.21875l-4.828125 0zm1.765625 -1.578125l2.859375 0q1.3125 0 2.0625 -0.234375q0.7499981 -0.25 1.2031231 -0.703125q0.625 -0.625 0.96875 -1.6875q0.359375 -1.0625 0.359375 -2.578125q0 -2.09375 -0.6875 -3.21875q-0.6875 -1.125 -1.671875 -1.5q-0.7031231 -0.28125 -2.281248 -0.28125l-2.8125 0l0 10.203125zm10.894819 -3.265625q0 -2.6875 1.484375 -3.96875q1.25 -1.078125 3.046875 -1.078125q2.0 0 3.265625 1.3125q1.265625 1.296875 1.265625 3.609375q0 1.859375 -0.5625 2.9375q-0.5625 1.0625 -1.640625 1.65625q-1.0625 0.59375 -2.328125 0.59375q-2.03125 0 -3.28125 -1.296875q-1.25 -1.3125 -1.25 -3.765625zm1.6875 0q0 1.859375 0.796875 2.796875q0.8125 0.921875 2.046875 0.921875q1.21875 0 2.03125 -0.921875q0.8125 -0.9375 0.8125 -2.84375q0 -1.796875 -0.8125 -2.71875q-0.8125 -0.921875 -2.03125 -0.921875q-1.234375 0 -2.046875 0.921875q-0.796875 0.90625 -0.796875 2.765625zm15.610092 1.296875l1.609375 0.21875q-0.265625 1.65625 -1.359375 2.609375q-1.078125 0.9375 -2.671875 0.9375q-1.984375 0 -3.1875 -1.296875q-1.203125 -1.296875 -1.203125 -3.71875q0 -1.578125 0.515625 -2.75q0.515625 -1.171875 1.578125 -1.75q1.0625 -0.59375 2.3125 -0.59375q1.578125 0 2.578125 0.796875q1.0 0.796875 1.28125 2.265625l-1.59375 0.234375q-0.234375 -0.96875 -0.8125 -1.453125q-0.578125 -0.5 -1.390625 -0.5q-1.234375 0 -2.015625 0.890625q-0.78125 0.890625 -0.78125 2.8125q0 1.953125 0.75 2.84375q0.75 0.875 1.953125 0.875q0.96875 0 1.609375 -0.59375q0.65625 -0.59375 0.828125 -1.828125zm9.34375 3.546875l0 -1.421875q-1.125 1.640625 -3.0625 1.640625q-0.859375 0 -1.609375 -0.328125q-0.734375 -0.328125 -1.09375 -0.828125q-0.359375 -0.5 -0.5 -1.21875q-0.109375 -0.46875 -0.109375 -1.53125l0 -5.984375l1.640625 0l0 5.359375q0 1.28125 0.109375 1.734375q0.15625 0.640625 0.65625 1.015625q0.5 0.375 1.234375 0.375q0.734375 0 1.375 -0.375q0.65625 -0.390625 0.921875 -1.03125q0.265625 -0.65625 0.265625 -1.890625l0 -5.1875l1.640625 0l0 9.671875l-1.46875 0zm4.047592 0l0 -9.671875l1.46875 0l0 1.359375q0.453125 -0.71875 1.203125 -1.140625q0.765625 -0.4375 1.71875 -0.4375q1.078125 0 1.765625 0.453125q0.6875 0.4375 0.96875 1.234375q1.15625 -1.6875 2.984375 -1.6875q1.453125 0 2.21875 0.796875q0.78125 0.796875 0.78125 2.453125l0 6.640625l-1.640625 0l0 -6.09375q0 -0.984375 -0.15625 -1.40625q-0.15625 -0.4375 -0.578125 -0.703125q-0.421875 -0.265625 -0.984375 -0.265625q-1.015625 0 -1.6875 0.6875q-0.671875 0.671875 -0.671875 2.15625l0 5.625l-1.640625 0l0 -6.28125q0 -1.09375 -0.40625 -1.640625q-0.40625 -0.546875 -1.3125 -0.546875q-0.6875 0 -1.28125 0.359375q-0.59375 0.359375 -0.859375 1.0625q-0.25 0.703125 -0.25 2.03125l0 5.015625l-1.640625 0zm22.165802 -3.109375l1.6875 0.203125q-0.40625 1.484375 -1.484375 2.3125q-1.078125 0.8125 -2.765625 0.8125q-2.125 0 -3.375 -1.296875q-1.234375 -1.3125 -1.234375 -3.671875q0 -2.453125 1.25 -3.796875q1.265625 -1.34375 3.265625 -1.34375q1.9375 0 3.15625 1.328125q1.234375 1.3125 1.234375 3.703125q0 0.15625 0 0.4375l-7.21875 0q0.09375 1.59375 0.90625 2.453125q0.8125 0.84375 2.015625 0.84375q0.90625 0 1.546875 -0.46875q0.640625 -0.484375 1.015625 -1.515625zm-5.390625 -2.65625l5.40625 0q-0.109375 -1.21875 -0.625 -1.828125q-0.78125 -0.953125 -2.03125 -0.953125q-1.125 0 -1.90625 0.765625q-0.765625 0.75 -0.84375 2.015625zm9.141342 5.765625l0 -9.671875l1.46875 0l0 1.375q1.0625 -1.59375 3.078125 -1.59375q0.875 0 1.609375 0.3125q0.734375 0.3125 1.09375 0.828125q0.375 0.5 0.515625 1.203125q0.09375 0.453125 0.09375 1.59375l0 5.953125l-1.640625 0l0 -5.890625q0 -1.0 -0.203125 -1.484375q-0.1875 -0.5 -0.671875 -0.796875q-0.484375 -0.296875 -1.140625 -0.296875q-1.046875 0 -1.8125 0.671875q-0.75 0.65625 -0.75 2.515625l0 5.28125l-1.640625 0zm13.953842 -1.46875l0.234375 1.453125q-0.6875 0.140625 -1.234375 0.140625q-0.890625 0 -1.390625 -0.28125q-0.484375 -0.28125 -0.6875 -0.734375q-0.203125 -0.46875 -0.203125 -1.9375l0 -5.578125l-1.203125 0l0 -1.265625l1.203125 0l0 -2.390625l1.625 -0.984375l0 3.375l1.65625 0l0 1.265625l-1.65625 0l0 5.671875q0 0.6875 0.078125 0.890625q0.09375 0.203125 0.28125 0.328125q0.203125 0.109375 0.578125 0.109375q0.265625 0 0.71875 -0.0625zm0.94892883 -1.421875l1.625 -0.25q0.125 0.96875 0.75 1.5q0.625 0.515625 1.75 0.515625q1.125 0 1.671875 -0.453125q0.546875 -0.46875 0.546875 -1.09375q0 -0.546875 -0.484375 -0.875q-0.328125 -0.21875 -1.671875 -0.546875q-1.8125 -0.46875 -2.515625 -0.796875q-0.6875 -0.328125 -1.046875 -0.90625q-0.359375 -0.59375 -0.359375 -1.3125q0 -0.640625 0.296875 -1.1875q0.296875 -0.5625 0.8125 -0.921875q0.375 -0.28125 1.03125 -0.46875q0.671875 -0.203125 1.421875 -0.203125q1.140625 0 2.0 0.328125q0.859375 0.328125 1.265625 0.890625q0.421875 0.5625 0.578125 1.5l-1.609375 0.21875q-0.109375 -0.75 -0.640625 -1.171875q-0.515625 -0.421875 -1.46875 -0.421875q-1.140625 0 -1.625 0.375q-0.46875 0.375 -0.46875 0.875q0 0.3125 0.1875 0.578125q0.203125 0.265625 0.640625 0.4375q0.234375 0.09375 1.4375 0.421875q1.75 0.453125 2.4375 0.75q0.6875 0.296875 1.078125 0.859375q0.390625 0.5625 0.390625 1.40625q0 0.828125 -0.484375 1.546875q-0.46875 0.71875 -1.375 1.125q-0.90625 0.390625 -2.046875 0.390625q-1.875 0 -2.875 -0.78125q-0.984375 -0.78125 -1.25 -2.328125z" fill-rule="nonzero"/><path fill="#000000" fill-opacity="0.0" d="m685.19684 326.2651l170.11023 0l0 37.44879l-170.11023 0z" fill-rule="evenodd"/><path fill="#000000" d="m745.6796 353.1851l5.125 -13.359375l1.90625 0l5.46875 13.359375l-2.015625 0l-1.546875 -4.046875l-5.59375 0l-1.46875 4.046875l-1.875 0zm3.859375 -5.484375l4.53125 0l-1.40625 -3.703125q-0.625 -1.6875 -0.9375 -2.765625q-0.265625 1.28125 -0.71875 2.546875l-1.46875 3.921875zm9.8498535 9.1875l0 -13.375l1.484375 0l0 1.25q0.53125 -0.734375 1.1875 -1.09375q0.671875 -0.375 1.625 -0.375q1.234375 0 2.171875 0.640625q0.953125 0.625 1.4375 1.796875q0.484375 1.15625 0.484375 2.546875q0 1.484375 -0.53125 2.671875q-0.53125 1.1875 -1.546875 1.828125q-1.015625 0.625 -2.140625 0.625q-0.8125 0 -1.46875 -0.34375q-0.65625 -0.34375 -1.0625 -0.875l0 4.703125l-1.640625 0zm1.484375 -8.484375q0 1.859375 0.75 2.765625q0.765625 0.890625 1.828125 0.890625q1.09375 0 1.875 -0.921875q0.78125 -0.9375 0.78125 -2.875q0 -1.84375 -0.765625 -2.765625q-0.75 -0.921875 -1.8125 -0.921875q-1.046875 0 -1.859375 0.984375q-0.796875 0.96875 -0.796875 2.84375zm8.891357 8.484375l0 -13.375l1.484375 0l0 1.25q0.53125 -0.734375 1.1875 -1.09375q0.671875 -0.375 1.625 -0.375q1.234375 0 2.171875 0.640625q0.953125 0.625 1.4375 1.796875q0.484375 1.15625 0.484375 2.546875q0 1.484375 -0.53125 2.671875q-0.53125 1.1875 -1.546875 1.828125q-1.015625 0.625 -2.140625 0.625q-0.8125 0 -1.46875 -0.34375q-0.65625 -0.34375 -1.0625 -0.875l0 4.703125l-1.640625 0zm1.484375 -8.484375q0 1.859375 0.75 2.765625q0.765625 0.890625 1.828125 0.890625q1.09375 0 1.875 -0.921875q0.78125 -0.9375 0.78125 -2.875q0 -1.84375 -0.765625 -2.765625q-0.75 -0.921875 -1.8125 -0.921875q-1.046875 0 -1.859375 0.984375q-0.796875 0.96875 -0.796875 2.84375zm8.844421 4.78125l0 -13.359375l1.640625 0l0 13.359375l-1.640625 0zm4.1917114 -11.46875l0 -1.890625l1.640625 0l0 1.890625l-1.640625 0zm0 11.46875l0 -9.671875l1.640625 0l0 9.671875l-1.640625 0zm10.457336 -3.546875l1.609375 0.21875q-0.265625 1.65625 -1.359375 2.609375q-1.078125 0.9375 -2.671875 0.9375q-1.984375 0 -3.1875 -1.296875q-1.203125 -1.296875 -1.203125 -3.71875q0 -1.578125 0.515625 -2.75q0.515625 -1.171875 1.578125 -1.75q1.0625 -0.59375 2.3125 -0.59375q1.578125 0 2.578125 0.796875q1.0 0.796875 1.28125 2.265625l-1.59375 0.234375q-0.234375 -0.96875 -0.8125 -1.453125q-0.578125 -0.5 -1.390625 -0.5q-1.234375 0 -2.015625 0.890625q-0.78125 0.890625 -0.78125 2.8125q0 1.953125 0.75 2.84375q0.75 0.875 1.953125 0.875q0.96875 0 1.609375 -0.59375q0.65625 -0.59375 0.828125 -1.828125zm9.328125 2.359375q-0.921875 0.765625 -1.765625 1.09375q-0.828125 0.3125 -1.796875 0.3125q-1.59375 0 -2.453125 -0.78125q-0.859375 -0.78125 -0.859375 -1.984375q0 -0.71875 0.328125 -1.296875q0.328125 -0.59375 0.84375 -0.9375q0.53125 -0.359375 1.1875 -0.546875q0.46875 -0.125 1.453125 -0.25q1.984375 -0.234375 2.921875 -0.5625q0.015625 -0.34375 0.015625 -0.421875q0 -1.0 -0.46875 -1.421875q-0.625 -0.546875 -1.875 -0.546875q-1.15625 0 -1.703125 0.40625q-0.546875 0.40625 -0.8125 1.421875l-1.609375 -0.21875q0.21875 -1.015625 0.71875 -1.640625q0.5 -0.640625 1.453125 -0.984375q0.953125 -0.34375 2.1875 -0.34375q1.25 0 2.015625 0.296875q0.78125 0.28125 1.140625 0.734375q0.375 0.4375 0.515625 1.109375q0.078125 0.421875 0.078125 1.515625l0 2.1875q0 2.28125 0.109375 2.890625q0.109375 0.59375 0.40625 1.15625l-1.703125 0q-0.265625 -0.515625 -0.328125 -1.1875zm-0.140625 -3.671875q-0.890625 0.375 -2.671875 0.625q-1.015625 0.140625 -1.4375 0.328125q-0.421875 0.1875 -0.65625 0.53125q-0.21875 0.34375 -0.21875 0.78125q0 0.65625 0.5 1.09375q0.5 0.4375 1.453125 0.4375q0.9375 0 1.671875 -0.40625q0.75 -0.421875 1.09375 -1.140625q0.265625 -0.5625 0.265625 -1.640625l0 -0.609375zm7.7819824 3.390625l0.234375 1.453125q-0.6875 0.140625 -1.234375 0.140625q-0.890625 0 -1.390625 -0.28125q-0.484375 -0.28125 -0.6875 -0.734375q-0.203125 -0.46875 -0.203125 -1.9375l0 -5.578125l-1.203125 0l0 -1.265625l1.203125 0l0 -2.390625l1.625 -0.984375l0 3.375l1.65625 0l0 1.265625l-1.65625 0l0 5.671875q0 0.6875 0.078125 0.890625q0.09375 0.203125 0.28125 0.328125q0.203125 0.109375 0.578125 0.109375q0.265625 0 0.71875 -0.0625zm1.6051636 -10.0l0 -1.890625l1.640625 0l0 1.890625l-1.640625 0zm0 11.46875l0 -9.671875l1.640625 0l0 9.671875l-1.640625 0zm3.5354614 -4.84375q0 -2.6875 1.484375 -3.96875q1.25 -1.078125 3.046875 -1.078125q2.0 0 3.265625 1.3125q1.265625 1.296875 1.265625 3.609375q0 1.859375 -0.5625 2.9375q-0.5625 1.0625 -1.640625 1.65625q-1.0625 0.59375 -2.328125 0.59375q-2.03125 0 -3.28125 -1.296875q-1.25 -1.3125 -1.25 -3.765625zm1.6875 0q0 1.859375 0.796875 2.796875q0.8125 0.921875 2.046875 0.921875q1.21875 0 2.03125 -0.921875q0.8125 -0.9375 0.8125 -2.84375q0 -1.796875 -0.8125 -2.71875q-0.8125 -0.921875 -2.03125 -0.921875q-1.234375 0 -2.046875 0.921875q-0.796875 0.90625 -0.796875 2.765625zm9.297546 4.84375l0 -9.671875l1.46875 0l0 1.375q1.0625 -1.59375 3.078125 -1.59375q0.875 0 1.609375 0.3125q0.734375 0.3125 1.09375 0.828125q0.375 0.5 0.515625 1.203125q0.09375 0.453125 0.09375 1.59375l0 5.953125l-1.640625 0l0 -5.890625q0 -1.0 -0.203125 -1.484375q-0.1875 -0.5 -0.671875 -0.796875q-0.484375 -0.296875 -1.140625 -0.296875q-1.046875 0 -1.8125 0.671875q-0.75 0.65625 -0.75 2.515625l0 5.28125l-1.640625 0zm9.719482 -2.890625l1.625 -0.25q0.125 0.96875 0.75 1.5q0.625 0.515625 1.75 0.515625q1.125 0 1.671875 -0.453125q0.546875 -0.46875 0.546875 -1.09375q0 -0.546875 -0.484375 -0.875q-0.328125 -0.21875 -1.671875 -0.546875q-1.8125 -0.46875 -2.515625 -0.796875q-0.6875 -0.328125 -1.046875 -0.90625q-0.359375 -0.59375 -0.359375 -1.3125q0 -0.640625 0.296875 -1.1875q0.296875 -0.5625 0.8125 -0.921875q0.375 -0.28125 1.03125 -0.46875q0.671875 -0.203125 1.421875 -0.203125q1.140625 0 2.0 0.328125q0.859375 0.328125 1.265625 0.890625q0.421875 0.5625 0.578125 1.5l-1.609375 0.21875q-0.109375 -0.75 -0.640625 -1.171875q-0.515625 -0.421875 -1.46875 -0.421875q-1.140625 0 -1.625 0.375q-0.46875 0.375 -0.46875 0.875q0 0.3125 0.1875 0.578125q0.203125 0.265625 0.640625 0.4375q0.234375 0.09375 1.4375 0.421875q1.75 0.453125 2.4375 0.75q0.6875 0.296875 1.078125 0.859375q0.390625 0.5625 0.390625 1.40625q0 0.828125 -0.484375 1.546875q-0.46875 0.71875 -1.375 1.125q-0.90625 0.390625 -2.046875 0.390625q-1.875 0 -2.875 -0.78125q-0.984375 -0.78125 -1.25 -2.328125z" fill-rule="nonzero"/></g></svg>