<svg version="1.1" viewBox="0.0 0.0 1006.0 143.89763779527559" fill="none" stroke="none" stroke-linecap="square" stroke-miterlimit="10" xmlns:xlink="http://www.w3.org/1999/xlink" xmlns="http://www.w3.org/2000/svg"><clipPath id="p.0"><path d="m0 0l1006.0 0l0 143.89764l-1006.0 0l0 -143.89764z" clip-rule="nonzero"/></clipPath><g clip-path="url(#p.0)"><path fill="#000000" fill-opacity="0.0" d="m0 0l1006.0 0l0 143.89764l-1006.0 0z" fill-rule="evenodd"/><path fill="#ffffff" d="m234.76378 46.15223l123.11812 0l0 62.645668l-123.11812 0z" fill-rule="evenodd"/><path stroke="#000000" stroke-width="1.0" stroke-linejoin="round" stroke-linecap="butt" d="m234.76378 46.15223l123.11812 0l0 62.645668l-123.11812 0z" fill-rule="evenodd"/><path fill="#000000" d="m265.63962 84.395065l0 -13.359375l5.921875 0q1.78125 0 2.703125 0.359375q0.9375 0.359375 1.484375 1.28125q0.5625 0.90625 0.5625 2.015625q0 1.40625 -0.921875 2.390625q-0.921875 0.96875 -2.84375 1.234375q0.703125 0.34375 1.078125 0.671875q0.765625 0.703125 1.453125 1.765625l2.328125 3.640625l-2.21875 0l-1.765625 -2.78125q-0.78125 -1.203125 -1.28125 -1.828125q-0.5 -0.640625 -0.90625 -0.890625q-0.390625 -0.265625 -0.796875 -0.359375q-0.296875 -0.078125 -0.984375 -0.078125l-2.046875 0l0 5.9375l-1.765625 0zm1.765625 -7.453125l3.796875 0q1.21875 0 1.890625 -0.25q0.6875 -0.265625 1.046875 -0.8125q0.359375 -0.546875 0.359375 -1.1875q0 -0.953125 -0.6875 -1.5625q-0.6875 -0.609375 -2.1875 -0.609375l-4.21875 0l0 4.421875zm10.863556 2.609375q0 -2.6875 1.484375 -3.96875q1.25 -1.078125 3.046875 -1.078125q2.0 0 3.265625 1.3125q1.265625 1.296875 1.265625 3.609375q0 1.859375 -0.5625 2.9375q-0.5625 1.0625 -1.640625 1.65625q-1.0625 0.59375 -2.328125 0.59375q-2.03125 0 -3.28125 -1.296875q-1.25 -1.3125 -1.25 -3.765625zm1.6875 0q0 1.859375 0.796875 2.796875q0.8125 0.921875 2.046875 0.921875q1.21875 0 2.03125 -0.921875q0.8125 -0.9375 0.8125 -2.84375q0 -1.796875 -0.8125 -2.71875q-0.8125 -0.921875 -2.03125 -0.921875q-1.234375 0 -2.046875 0.921875q-0.796875 0.90625 -0.796875 2.765625zm15.625732 4.84375l0 -1.421875q-1.125 1.640625 -3.0625 1.640625q-0.859375 0 -1.609375 -0.328125q-0.734375 -0.328125 -1.09375 -0.828125q-0.359375 -0.5 -0.5 -1.21875q-0.109375 -0.46875 -0.109375 -1.53125l0 -5.984375l1.640625 0l0 5.359375q0 1.28125 0.109375 1.734375q0.15625 0.640625 0.65625 1.015625q0.5 0.375 1.234375 0.375q0.734375 0 1.375 -0.375q0.65625 -0.390625 0.921875 -1.03125q0.265625 -0.65625 0.265625 -1.890625l0 -5.1875l1.640625 0l0 9.671875l-1.46875 0zm7.6257324 -1.46875l0.234375 1.453125q-0.6875 0.140625 -1.234375 0.140625q-0.890625 0 -1.390625 -0.28125q-0.484375 -0.28125 -0.6875 -0.734375q-0.203125 -0.46875 -0.203125 -1.9375l0 -5.578125l-1.2031555 0l0 -1.265625l1.2031555 0l0 -2.390625l1.625 -0.984375l0 3.375l1.65625 0l0 1.265625l-1.65625 0l0 5.671875q0 0.6875 0.078125 0.890625q0.09375 0.203125 0.28125 0.328125q0.203125 0.109375 0.578125 0.109375q0.265625 0 0.71875 -0.0625zm1.6051636 -10.0l0 -1.890625l1.640625 0l0 1.890625l-1.640625 0zm0 11.46875l0 -9.671875l1.640625 0l0 9.671875l-1.640625 0zm4.1448364 0l0 -9.671875l1.46875 0l0 1.375q1.0625 -1.59375 3.078125 -1.59375q0.875 0 1.609375 0.3125q0.734375 0.3125 1.09375 0.828125q0.375 0.5 0.515625 1.203125q0.09375 0.453125 0.09375 1.59375l0 5.953125l-1.640625 0l0 -5.890625q0 -1.0 -0.203125 -1.484375q-0.1875 -0.5 -0.671875 -0.796875q-0.484375 -0.296875 -1.140625 -0.296875q-1.046875 0 -1.8125 0.671875q-0.75 0.65625 -0.75 2.515625l0 5.28125l-1.640625 0zm10.063202 0.796875l1.59375 0.234375q0.109375 0.75 0.5625 1.078125q0.609375 0.453125 1.671875 0.453125q1.140625 0 1.75 -0.453125q0.625 -0.453125 0.84375 -1.265625q0.125 -0.5 0.109375 -2.109375q-1.0625 1.265625 -2.671875 1.265625q-2.0 0 -3.09375 -1.4375q-1.09375 -1.4375 -1.09375 -3.453125q0 -1.390625 0.5 -2.5625q0.515625 -1.171875 1.453125 -1.796875q0.953125 -0.640625 2.25 -0.640625q1.703125 0 2.8125 1.375l0 -1.15625l1.515625 0l0 8.359375q0 2.265625 -0.46875 3.203125q-0.453125 0.9375 -1.453125 1.484375q-0.984375 0.546875 -2.453125 0.546875q-1.71875 0 -2.796875 -0.78125q-1.0625 -0.765625 -1.03125 -2.34375zm1.359375 -5.8125q0 1.90625 0.75 2.78125q0.765625 0.875 1.90625 0.875q1.125 0 1.890625 -0.859375q0.765625 -0.875 0.765625 -2.734375q0 -1.78125 -0.796875 -2.671875q-0.78125 -0.90625 -1.890625 -0.90625q-1.09375 0 -1.859375 0.890625q-0.765625 0.875 -0.765625 2.625z" fill-rule="nonzero"/><path fill="#ffffff" d="m386.44095 46.15223l123.1181 0l0 62.645668l-123.1181 0z" fill-rule="evenodd"/><path stroke="#000000" stroke-width="1.0" stroke-linejoin="round" stroke-linecap="butt" d="m386.44095 46.15223l123.1181 0l0 62.645668l-123.1181 0z" fill-rule="evenodd"/><path fill="#000000" d="m406.31244 84.395065l0 -13.359375l1.78125 0l0 11.78125l6.5625 0l0 1.578125l-8.34375 0zm9.641357 -4.84375q0 -2.6875 1.484375 -3.96875q1.25 -1.078125 3.046875 -1.078125q2.0 0 3.265625 1.3125q1.265625 1.296875 1.265625 3.609375q0 1.859375 -0.5625 2.9375q-0.5625 1.0625 -1.640625 1.65625q-1.0625 0.59375 -2.328125 0.59375q-2.03125 0 -3.28125 -1.296875q-1.25 -1.3125 -1.25 -3.765625zm1.6875 0q0 1.859375 0.796875 2.796875q0.8125 0.921875 2.046875 0.921875q1.21875 0 2.03125 -0.921875q0.8125 -0.9375 0.8125 -2.84375q0 -1.796875 -0.8125 -2.71875q-0.8125 -0.921875 -2.03125 -0.921875q-1.234375 0 -2.046875 0.921875q-0.796875 0.90625 -0.796875 2.765625zm15.610077 3.65625q-0.921875 0.765625 -1.765625 1.09375q-0.828125 0.3125 -1.796875 0.3125q-1.59375 0 -2.453125 -0.78125q-0.859375 -0.78125 -0.859375 -1.984375q0 -0.71875 0.328125 -1.296875q0.328125 -0.59375 0.84375 -0.9375q0.53125 -0.359375 1.1875 -0.546875q0.46875 -0.125 1.453125 -0.25q1.984375 -0.234375 2.921875 -0.5625q0.015625 -0.34375 0.015625 -0.421875q0 -1.0 -0.46875 -1.421875q-0.625 -0.546875 -1.875 -0.546875q-1.15625 0 -1.703125 0.40625q-0.546875 0.40625 -0.8125 1.421875l-1.609375 -0.21875q0.21875 -1.015625 0.71875 -1.640625q0.5 -0.640625 1.453125 -0.984375q0.953125 -0.34375 2.1875 -0.34375q1.25 0 2.015625 0.296875q0.78125 0.28125 1.140625 0.734375q0.375 0.4375 0.515625 1.109375q0.078125 0.421875 0.078125 1.515625l0 2.1875q0 2.28125 0.109375 2.890625q0.109375 0.59375 0.40625 1.15625l-1.703125 0q-0.265625 -0.515625 -0.328125 -1.1875zm-0.140625 -3.671875q-0.890625 0.375 -2.671875 0.625q-1.015625 0.140625 -1.4375 0.328125q-0.421875 0.1875 -0.65625 0.53125q-0.21875 0.34375 -0.21875 0.78125q0 0.65625 0.5 1.09375q0.5 0.4375 1.453125 0.4375q0.9375 0 1.671875 -0.40625q0.75 -0.421875 1.09375 -1.140625q0.265625 -0.5625 0.265625 -1.640625l0 -0.609375zm10.469482 4.859375l0 -1.21875q-0.90625 1.4375 -2.703125 1.4375q-1.15625 0 -2.125 -0.640625q-0.96875 -0.640625 -1.5 -1.78125q-0.53125 -1.140625 -0.53125 -2.625q0 -1.453125 0.484375 -2.625q0.484375 -1.1875 1.4375 -1.8125q0.96875 -0.625 2.171875 -0.625q0.875 0 1.546875 0.375q0.6875 0.359375 1.109375 0.953125l0 -4.796875l1.640625 0l0 13.359375l-1.53125 0zm-5.171875 -4.828125q0 1.859375 0.78125 2.78125q0.78125 0.921875 1.84375 0.921875q1.078125 0 1.828125 -0.875q0.75 -0.890625 0.75 -2.6875q0 -1.984375 -0.765625 -2.90625q-0.765625 -0.9375 -1.890625 -0.9375q-1.078125 0 -1.8125 0.890625q-0.734375 0.890625 -0.734375 2.8125zm14.668396 4.828125l0 -13.359375l4.609375 0q1.546875 0 2.375 0.203125q1.140625 0.25 1.953125 0.953125q1.0625 0.890625 1.578125 2.28125q0.53125 1.390625 0.53125 3.171875q0 1.515625 -0.359375 2.703125q-0.359375 1.171875 -0.921875 1.9375q-0.546875 0.765625 -1.203125 1.21875q-0.65625 0.4375 -1.59375 0.671875q-0.9375 0.21875 -2.140625 0.21875l-4.828125 0zm1.765625 -1.578125l2.859375 0q1.3125 0 2.0625 -0.234375q0.75 -0.25 1.203125 -0.703125q0.625 -0.625 0.96875 -1.6875q0.359375 -1.0625 0.359375 -2.578125q0 -2.09375 -0.6875 -3.21875q-0.6875 -1.125 -1.671875 -1.5q-0.703125 -0.28125 -2.28125 -0.28125l-2.8125 0l0 10.203125zm17.81668 0.390625q-0.921875 0.765625 -1.765625 1.09375q-0.828125 0.3125 -1.796875 0.3125q-1.59375 0 -2.453125 -0.78125q-0.859375 -0.78125 -0.859375 -1.984375q0 -0.71875 0.328125 -1.296875q0.328125 -0.59375 0.84375 -0.9375q0.53125 -0.359375 1.1875 -0.546875q0.46875 -0.125 1.453125 -0.25q1.984375 -0.234375 2.921875 -0.5625q0.015625 -0.34375 0.015625 -0.421875q0 -1.0 -0.46875 -1.421875q-0.625 -0.546875 -1.875 -0.546875q-1.15625 0 -1.703125 0.40625q-0.546875 0.40625 -0.8125 1.421875l-1.609375 -0.21875q0.21875 -1.015625 0.71875 -1.640625q0.5 -0.640625 1.453125 -0.984375q0.953125 -0.34375 2.1875 -0.34375q1.25 0 2.015625 0.296875q0.78125 0.28125 1.140625 0.734375q0.375 0.4375 0.515625 1.109375q0.078125 0.421875 0.078125 1.515625l0 2.1875q0 2.28125 0.109375 2.890625q0.109375 0.59375 0.40625 1.15625l-1.703125 0q-0.265625 -0.515625 -0.328125 -1.1875zm-0.140625 -3.671875q-0.890625 0.375 -2.671875 0.625q-1.015625 0.140625 -1.4375 0.328125q-0.421875 0.1875 -0.65625 0.53125q-0.21875 0.34375 -0.21875 0.78125q0 0.65625 0.5 1.09375q0.5 0.4375 1.453125 0.4375q0.9375 0 1.671875 -0.40625q0.75 -0.421875 1.09375 -1.140625q0.265625 -0.5625 0.265625 -1.640625l0 -0.609375zm7.7819824 3.390625l0.234375 1.453125q-0.6875 0.140625 -1.234375 0.140625q-0.890625 0 -1.390625 -0.28125q-0.484375 -0.28125 -0.6875 -0.734375q-0.203125 -0.46875 -0.203125 -1.9375l0 -5.578125l-1.203125 0l0 -1.265625l1.203125 0l0 -2.390625l1.625 -0.984375l0 3.375l1.65625 0l0 1.265625l-1.65625 0l0 5.671875q0 0.6875 0.078125 0.890625q0.09375 0.203125 0.28125 0.328125q0.203125 0.109375 0.578125 0.109375q0.265625 0 0.71875 -0.0625zm7.9176636 0.28125q-0.921875 0.765625 -1.765625 1.09375q-0.828125 0.3125 -1.796875 0.3125q-1.59375 0 -2.453125 -0.78125q-0.859375 -0.78125 -0.859375 -1.984375q0 -0.71875 0.328125 -1.296875q0.328125 -0.59375 0.84375 -0.9375q0.53125 -0.359375 1.1875 -0.546875q0.46875 -0.125 1.453125 -0.25q1.984375 -0.234375 2.921875 -0.5625q0.015625 -0.34375 0.015625 -0.421875q0 -1.0 -0.46875 -1.421875q-0.625 -0.546875 -1.875 -0.546875q-1.15625 0 -1.703125 0.40625q-0.546875 0.40625 -0.8125 1.421875l-1.609375 -0.21875q0.21875 -1.015625 0.71875 -1.640625q0.5 -0.640625 1.453125 -0.984375q0.953125 -0.34375 2.1875 -0.34375q1.25 0 2.015625 0.296875q0.78125 0.28125 1.140625 0.734375q0.375 0.4375 0.515625 1.109375q0.078125 0.421875 0.078125 1.515625l0 2.1875q0 2.28125 0.109375 2.890625q0.109375 0.59375 0.40625 1.15625l-1.703125 0q-0.265625 -0.515625 -0.328125 -1.1875zm-0.140625 -3.671875q-0.890625 0.375 -2.671875 0.625q-1.015625 0.140625 -1.4375 0.328125q-0.421875 0.1875 -0.65625 0.53125q-0.21875 0.34375 -0.21875 0.78125q0 0.65625 0.5 1.09375q0.5 0.4375 1.453125 0.4375q0.9375 0 1.671875 -0.40625q0.75 -0.421875 1.09375 -1.140625q0.265625 -0.5625 0.265625 -1.640625l0 -0.609375z" fill-rule="nonzero"/><path fill="#ffffff" d="m538.1181 46.15223l123.1181 0l0 62.645668l-123.1181 0z" fill-rule="evenodd"/><path stroke="#000000" stroke-width="1.0" stroke-linejoin="round" stroke-linecap="butt" d="m538.1181 46.15223l123.1181 0l0 62.645668l-123.1181 0z" fill-rule="evenodd"/><path fill="#000000" d="m578.7365 84.395065l0 -13.359375l1.78125 0l0 11.78125l6.5625 0l0 1.578125l-8.34375 0zm9.641296 -4.84375q0 -2.6875 1.484375 -3.96875q1.25 -1.078125 3.046875 -1.078125q2.0 0 3.265625 1.3125q1.265625 1.296875 1.265625 3.609375q0 1.859375 -0.5625 2.9375q-0.5625 1.0625 -1.640625 1.65625q-1.0625 0.59375 -2.328125 0.59375q-2.03125 0 -3.28125 -1.296875q-1.25 -1.3125 -1.25 -3.765625zm1.6875 0q0 1.859375 0.796875 2.796875q0.8125 0.921875 2.046875 0.921875q1.21875 0 2.03125 -0.921875q0.8125 -0.9375 0.8125 -2.84375q0 -1.796875 -0.8125 -2.71875q-0.8125 -0.921875 -2.03125 -0.921875q-1.234375 0 -2.046875 0.921875q-0.796875 0.90625 -0.796875 2.765625zm8.985107 5.640625l1.59375 0.234375q0.109375 0.75 0.5625 1.078125q0.609375 0.453125 1.671875 0.453125q1.140625 0 1.75 -0.453125q0.625 -0.453125 0.84375 -1.265625q0.125 -0.5 0.109375 -2.109375q-1.0625 1.265625 -2.671875 1.265625q-2.0 0 -3.09375 -1.4375q-1.09375 -1.4375 -1.09375 -3.453125q0 -1.390625 0.5 -2.5625q0.515625 -1.171875 1.453125 -1.796875q0.953125 -0.640625 2.25 -0.640625q1.703125 0 2.8125 1.375l0 -1.15625l1.515625 0l0 8.359375q0 2.265625 -0.46875 3.203125q-0.453125 0.9375 -1.453125 1.484375q-0.984375 0.546875 -2.453125 0.546875q-1.71875 0 -2.796875 -0.78125q-1.0625 -0.765625 -1.03125 -2.34375zm1.359375 -5.8125q0 1.90625 0.75 2.78125q0.765625 0.875 1.90625 0.875q1.125 0 1.890625 -0.859375q0.765625 -0.875 0.765625 -2.734375q0 -1.78125 -0.796875 -2.671875q-0.78125 -0.90625 -1.890625 -0.90625q-1.09375 0 -1.859375 0.890625q-0.765625 0.875 -0.765625 2.625zm9.328857 -6.453125l0 -1.890625l1.640625 0l0 1.890625l-1.640625 0zm0 11.46875l0 -9.671875l1.640625 0l0 9.671875l-1.640625 0zm10.457336 -3.546875l1.609375 0.21875q-0.265625 1.65625 -1.359375 2.609375q-1.078125 0.9375 -2.671875 0.9375q-1.984375 0 -3.1875 -1.296875q-1.203125 -1.296875 -1.203125 -3.71875q0 -1.578125 0.515625 -2.75q0.515625 -1.171875 1.578125 -1.75q1.0625 -0.59375 2.3125 -0.59375q1.578125 0 2.578125 0.796875q1.0 0.796875 1.28125 2.265625l-1.59375 0.234375q-0.234375 -0.96875 -0.8125 -1.453125q-0.578125 -0.5 -1.390625 -0.5q-1.234375 0 -2.015625 0.890625q-0.78125 0.890625 -0.78125 2.8125q0 1.953125 0.75 2.84375q0.75 0.875 1.953125 0.875q0.96875 0 1.609375 -0.59375q0.65625 -0.59375 0.828125 -1.828125z" fill-rule="nonzero"/><path fill="#ffffff" d="m689.7953 46.15223l123.1181 0l0 62.645668l-123.1181 0z" fill-rule="evenodd"/><path stroke="#000000" stroke-width="1.0" stroke-linejoin="round" stroke-linecap="butt" d="m689.7953 46.15223l123.1181 0l0 62.645668l-123.1181 0z" fill-rule="evenodd"/><path fill="#000000" d="m722.2288 84.395065l0 -13.359375l5.921875 0q1.78125 0 2.703125 0.359375q0.9375 0.359375 1.484375 1.28125q0.5625 0.90625 0.5625 2.015625q0 1.40625 -0.921875 2.390625q-0.921875 0.96875 -2.84375 1.234375q0.703125 0.34375 1.078125 0.671875q0.765625 0.703125 1.453125 1.765625l2.328125 3.640625l-2.21875 0l-1.765625 -2.78125q-0.78125 -1.203125 -1.28125 -1.828125q-0.5 -0.640625 -0.90625 -0.890625q-0.390625 -0.265625 -0.796875 -0.359375q-0.296875 -0.078125 -0.984375 -0.078125l-2.046875 0l0 5.9375l-1.765625 0zm1.765625 -7.453125l3.796875 0q1.21875 0 1.890625 -0.25q0.6875 -0.265625 1.046875 -0.8125q0.359375 -0.546875 0.359375 -1.1875q0 -0.953125 -0.6875 -1.5625q-0.6875 -0.609375 -2.1875 -0.609375l-4.21875 0l0 4.421875zm18.097961 4.34375l1.6875 0.203125q-0.40625 1.484375 -1.484375 2.3125q-1.078125 0.8125 -2.765625 0.8125q-2.125 0 -3.375 -1.296875q-1.234375 -1.3125 -1.234375 -3.671875q0 -2.453125 1.25 -3.796875q1.265625 -1.34375 3.265625 -1.34375q1.9375 0 3.15625 1.328125q1.234375 1.3125 1.234375 3.703125q0 0.15625 0 0.4375l-7.21875 0q0.09375 1.59375 0.90625 2.453125q0.8125 0.84375 2.015625 0.84375q0.90625 0 1.546875 -0.46875q0.640625 -0.484375 1.015625 -1.515625zm-5.390625 -2.65625l5.40625 0q-0.109375 -1.21875 -0.625 -1.828125q-0.78125 -0.953125 -2.03125 -0.953125q-1.125 0 -1.90625 0.765625q-0.765625 0.75 -0.84375 2.015625zm9.141357 5.765625l0 -9.671875l1.46875 0l0 1.375q1.0625 -1.59375 3.078125 -1.59375q0.875 0 1.609375 0.3125q0.734375 0.3125 1.09375 0.828125q0.375 0.5 0.515625 1.203125q0.09375 0.453125 0.09375 1.59375l0 5.953125l-1.640625 0l0 -5.890625q0 -1.0 -0.203125 -1.484375q-0.1875 -0.5 -0.671875 -0.796875q-0.484375 -0.296875 -1.140625 -0.296875q-1.046875 0 -1.8125 0.671875q-0.75 0.65625 -0.75 2.515625l0 5.28125l-1.640625 0zm16.641357 0l0 -1.21875q-0.90625 1.4375 -2.703125 1.4375q-1.15625 0 -2.125 -0.640625q-0.96875 -0.640625 -1.5 -1.78125q-0.53125 -1.140625 -0.53125 -2.625q0 -1.453125 0.484375 -2.625q0.484375 -1.1875 1.4375 -1.8125q0.96875 -0.625 2.171875 -0.625q0.875 0 1.546875 0.375q0.6875 0.359375 1.109375 0.953125l0 -4.796875l1.640625 0l0 13.359375l-1.53125 0zm-5.171875 -4.828125q0 1.859375 0.78125 2.78125q0.78125 0.921875 1.84375 0.921875q1.078125 0 1.828125 -0.875q0.75 -0.890625 0.75 -2.6875q0 -1.984375 -0.765625 -2.90625q-0.765625 -0.9375 -1.890625 -0.9375q-1.078125 0 -1.8125 0.890625q-0.734375 0.890625 -0.734375 2.8125zm15.906921 1.71875l1.6875 0.203125q-0.40625 1.484375 -1.484375 2.3125q-1.078125 0.8125 -2.765625 0.8125q-2.125 0 -3.375 -1.296875q-1.234375 -1.3125 -1.234375 -3.671875q0 -2.453125 1.25 -3.796875q1.265625 -1.34375 3.265625 -1.34375q1.9375 0 3.15625 1.328125q1.234375 1.3125 1.234375 3.703125q0 0.15625 0 0.4375l-7.21875 0q0.09375 1.59375 0.90625 2.453125q0.8125 0.84375 2.015625 0.84375q0.90625 0 1.546875 -0.46875q0.640625 -0.484375 1.015625 -1.515625zm-5.390625 -2.65625l5.40625 0q-0.109375 -1.21875 -0.625 -1.828125q-0.78125 -0.953125 -2.03125 -0.953125q-1.125 0 -1.90625 0.765625q-0.765625 0.75 -0.84375 2.015625zm9.125732 5.765625l0 -9.671875l1.46875 0l0 1.46875q0.5625 -1.03125 1.03125 -1.359375q0.484375 -0.328125 1.0625 -0.328125q0.828125 0 1.6875 0.53125l-0.5625 1.515625q-0.609375 -0.359375 -1.203125 -0.359375q-0.546875 0 -0.96875 0.328125q-0.421875 0.328125 -0.609375 0.890625q-0.28125 0.875 -0.28125 1.921875l0 5.0625l-1.625 0z" fill-rule="nonzero"/><path fill="#000000" fill-opacity="0.0" d="m689.7953 77.47507c-7.1398926 0 -7.3204346 -14.1866455 -14.279785 -28.16148c-6.9593506 -13.974834 -20.697449 -27.737862 -37.915222 -28.161476c-17.217773 -0.4236145 -37.915222 12.4921875 -37.915222 24.984371" fill-rule="evenodd"/><path stroke="#000000" stroke-width="1.0" stroke-linejoin="round" stroke-linecap="butt" d="m684.8794 74.03503l-0.15814209 -0.27680206c-0.25823975 -0.46627808 -0.5060425 -0.9704056 -0.7468262 -1.5088577c-0.48156738 -1.0768967 -0.9348755 -2.2910995 -1.3867188 -3.614479c-1.8075562 -5.293518 -3.5925293 -12.333881 -7.0722046 -19.3213c-6.9592896 -13.974834 -20.697449 -27.737862 -37.915222 -28.161476c-17.217773 -0.4236126 -37.915222 12.4921875 -37.915222 24.984371" fill-rule="evenodd"/><path fill="#000000" stroke="#000000" stroke-width="1.0" stroke-linecap="butt" d="m683.9324 75.38832l4.665161 1.2485809l-2.7711792 -3.9551697z" fill-rule="evenodd"/><path fill="#000000" fill-opacity="0.0" d="m538.1181 77.47507c-7.1398926 0 -7.3204346 -14.1866455 -14.279785 -28.16148c-6.9592896 -13.974834 -20.697418 -27.737862 -37.915222 -28.161476c-17.217773 -0.4236145 -37.915222 12.4921875 -37.915222 24.984371" fill-rule="evenodd"/><path stroke="#000000" stroke-width="1.0" stroke-linejoin="round" stroke-linecap="butt" d="m533.2022 74.03503l-0.15814209 -0.27680206c-0.25823975 -0.46627808 -0.5060425 -0.9704056 -0.7468262 -1.5088577c-0.48156738 -1.0768967 -0.93481445 -2.2910995 -1.3867188 -3.614479c-1.8075562 -5.293518 -3.5925293 -12.333881 -7.0722046 -19.3213c-6.9592896 -13.974834 -20.697449 -27.737862 -37.915222 -28.161476c-17.217743 -0.4236126 -37.915222 12.4921875 -37.915222 24.984371" fill-rule="evenodd"/><path fill="#000000" stroke="#000000" stroke-width="1.0" stroke-linecap="butt" d="m532.2552 75.38832l4.665161 1.2485809l-2.7711182 -3.9551697z" fill-rule="evenodd"/><path fill="#000000" fill-opacity="0.0" d="m386.44095 77.47507c-7.1398926 0 -7.3204346 -14.1866455 -14.279785 -28.16148c-6.95932 -13.974834 -20.697449 -27.737862 -37.915222 -28.161476c-17.217773 -0.4236145 -37.915222 12.4921875 -37.915222 24.984371" fill-rule="evenodd"/><path stroke="#000000" stroke-width="1.0" stroke-linejoin="round" stroke-linecap="butt" d="m381.52505 74.03503l-0.15814209 -0.27680206c-0.25823975 -0.46627808 -0.506073 -0.9704056 -0.7468262 -1.5088577c-0.48156738 -1.0768967 -0.934845 -2.2910995 -1.3867493 -3.614479c-1.8075256 -5.293518 -3.5924988 -12.333881 -7.072174 -19.3213c-6.95932 -13.974834 -20.697449 -27.737862 -37.915222 -28.161476c-17.217773 -0.4236126 -37.915222 12.4921875 -37.915222 24.984371" fill-rule="evenodd"/><path fill="#000000" stroke="#000000" stroke-width="1.0" stroke-linecap="butt" d="m380.57803 75.38832l4.665161 1.2485809l-2.7711487 -3.9551697z" fill-rule="evenodd"/><path fill="#ffffff" d="m27.711548 63.47999l0 0c-1.0458508 -6.7453766 2.387886 -13.422886 8.844147 -17.19902c6.4562607 -3.7761345 14.802761 -3.9886398 21.497768 -0.5473442l0 0c2.3715744 -3.922039 6.7122536 -6.629936 11.709057 -7.3046074c4.996811 -0.67466736 10.062851 0.763134 13.665749 3.878498l0 0c2.020279 -3.555973 5.987137 -5.945133 10.492912 -6.319683c4.505783 -0.37454605 8.912811 1.3185234 11.657242 4.478428l0 0c3.6499329 -3.7693253 9.457054 -5.356365 14.9086075 -4.0744057c5.4515457 1.2819633 9.568375 5.202675 10.569107 10.065624l0 0c4.4717712 1.070507 8.196671 3.79187 10.212296 7.4609756c2.015625 3.6691093 2.124237 7.926033 0.29779053 11.6709175l0 0c4.4033966 5.029793 5.4334717 11.731926 2.7057953 17.605286c-2.7276611 5.8733597 -8.803268 10.035538 -15.959503 10.933289c-0.050445557 5.5123596 -3.4950714 10.570435 -9.006195 13.224625c-5.511116 2.6541824 -12.228142 2.4900208 -17.562035 -0.42920685c-2.2719498 6.6019974 -8.666748 11.459694 -16.421593 12.474365c-7.7548447 1.014679 -15.47953 -1.9955597 -19.836716 -7.730179c-5.340988 2.8266144 -11.749737 3.6408691 -17.780552 2.2590942c-6.030815 -1.3817749 -11.175697 -4.8432007 -14.274059 -9.603432l0 0c-5.457823 0.5605316 -10.734785 -1.9211807 -13.2119465 -6.2134705c-2.4771614 -4.2922897 -1.6271954 -9.48143 2.1280632 -12.992065l0 0c-4.868519 -2.514862 -7.3527317 -7.505165 -6.157217 -12.368675c1.1955147 -4.86351 5.7998466 -8.498131 11.41202 -9.008556z" fill-rule="evenodd"/><path fill="#000000" fill-opacity="0.0" d="m22.348862 85.117195l0 0c2.2974682 1.1867676 4.951584 1.7251129 7.6059875 1.5427551m3.4766998 17.663216c1.1414909 -0.11723328 2.2603683 -0.36549377 3.3277817 -0.7383728m28.725235 8.082397c-0.8028488 -1.0566559 -1.4750366 -2.1857834 -2.0051079 -3.3681488m38.264805 -1.3762436l0 0c0.41420746 -1.2036438 0.68258667 -2.4424515 0.8006439 -3.695755m25.766586 -9.09919c0.05369568 -5.868759 -3.7443619 -11.242249 -9.7627945 -13.812408m23.016365 -14.725548c-0.97465515 1.9984207 -2.4626007 3.7711945 -4.3471375 5.1793213m-6.1620483 -24.311737l0 0c0.16607666 0.80700684 0.24293518 1.6261444 0.22950745 2.4460564m-25.706772 -8.437035l0 0c-0.9104767 0.940258 -1.6605835 1.9909859 -2.226982 3.1194649m-19.923378 -1.2786179l0 0c-0.4852066 0.8540306 -0.84752655 1.75774 -1.0786133 2.6903114m-24.29657 0.73587036l0 0c1.4166603 0.7281761 2.7272644 1.6046143 3.903019 2.6100616m-34.24454 15.1363945l0 0c0.14414597 0.9296875 0.37190247 1.8479156 0.681139 2.7460785" fill-rule="evenodd"/><path stroke="#000000" stroke-width="1.0" stroke-linejoin="round" stroke-linecap="butt" d="m27.711548 63.47999l0 0c-1.0458508 -6.7453766 2.387886 -13.422886 8.844147 -17.19902c6.4562607 -3.7761345 14.802761 -3.9886398 21.497768 -0.5473442l0 0c2.3715744 -3.922039 6.7122536 -6.629936 11.709057 -7.3046074c4.996811 -0.67466736 10.062851 0.763134 13.665749 3.878498l0 0c2.020279 -3.555973 5.987137 -5.945133 10.492912 -6.319683c4.505783 -0.37454605 8.912811 1.3185234 11.657242 4.478428l0 0c3.6499329 -3.7693253 9.457054 -5.356365 14.9086075 -4.0744057c5.4515457 1.2819633 9.568375 5.202675 10.569107 10.065624l0 0c4.4717712 1.070507 8.196671 3.79187 10.212296 7.4609756c2.015625 3.6691093 2.124237 7.926033 0.29779053 11.6709175l0 0c4.4033966 5.029793 5.4334717 11.731926 2.7057953 17.605286c-2.7276611 5.8733597 -8.803268 10.035538 -15.959503 10.933289c-0.050445557 5.5123596 -3.4950714 10.570435 -9.006195 13.224625c-5.511116 2.6541824 -12.228142 2.4900208 -17.562035 -0.42920685c-2.2719498 6.6019974 -8.666748 11.459694 -16.421593 12.474365c-7.7548447 1.014679 -15.47953 -1.9955597 -19.836716 -7.730179c-5.340988 2.8266144 -11.749737 3.6408691 -17.780552 2.2590942c-6.030815 -1.3817749 -11.175697 -4.8432007 -14.274059 -9.603432l0 0c-5.457823 0.5605316 -10.734785 -1.9211807 -13.2119465 -6.2134705c-2.4771614 -4.2922897 -1.6271954 -9.48143 2.1280632 -12.992065l0 0c-4.868519 -2.514862 -7.3527317 -7.505165 -6.157217 -12.368675c1.1955147 -4.86351 5.7998466 -8.498131 11.41202 -9.008556z" fill-rule="evenodd"/><path stroke="#000000" stroke-width="1.0" stroke-linejoin="round" stroke-linecap="butt" d="m22.348862 85.117195l0 0c2.2974682 1.1867676 4.951584 1.7251129 7.6059875 1.5427551m3.4766998 17.663216c1.1414909 -0.11723328 2.2603683 -0.36549377 3.3277817 -0.7383728m28.725235 8.082397c-0.8028488 -1.0566559 -1.4750366 -2.1857834 -2.0051079 -3.3681488m38.264805 -1.3762436l0 0c0.41420746 -1.2036438 0.68258667 -2.4424515 0.8006439 -3.695755m25.766586 -9.09919c0.05369568 -5.868759 -3.7443619 -11.242249 -9.7627945 -13.812408m23.016365 -14.725548c-0.97465515 1.9984207 -2.4626007 3.7711945 -4.3471375 5.1793213m-6.1620483 -24.311737l0 0c0.16607666 0.80700684 0.24293518 1.6261444 0.22950745 2.4460564m-25.706772 -8.437035l0 0c-0.9104767 0.940258 -1.6605835 1.9909859 -2.226982 3.1194649m-19.923378 -1.2786179l0 0c-0.4852066 0.8540306 -0.84752655 1.75774 -1.0786133 2.6903114m-24.29657 0.73587036l0 0c1.4166603 0.7281761 2.7272644 1.6046143 3.903019 2.6100616m-34.24454 15.1363945l0 0c0.14414597 0.9296875 0.37190247 1.8479156 0.681139 2.7460785" fill-rule="evenodd"/><path fill="#000000" fill-opacity="0.0" d="m141.82724 46.1835l96.72441 -0.031497955l0 31.338585l-96.72441 0.03149414z" fill-rule="evenodd"/><path fill="#000000" d="m161.65819 70.53704l0 -11.453125l5.078125 -0.0016517639q1.53125 -4.9972534E-4 2.328125 0.31174088q0.796875 0.2966156 1.265625 1.077713q0.484375 0.7810936 0.484375 1.7342186q0 1.21875 -0.796875 2.0627556q-0.78125 0.8283844 -2.4375 1.0476685q0.609375 0.29667664 0.921875 0.57782745q0.65625 0.6091614 1.25 1.5152206l2.0 3.1243439l-1.90625 6.2561035E-4l-1.515625 -2.3901367q-0.671875 -1.0310287 -1.109375 -1.5777588q-0.421875 -0.5467377 -0.765625 -0.76538086q-0.328125 -0.21864319 -0.6875 -0.29664612q-0.25 -0.062423706 -0.84375 -0.06222534l-1.75 5.722046E-4l0 5.09375l-1.515625 4.8828125E-4zm1.515625 -6.4067383l3.25 -0.0010604858q1.046875 -3.4332275E-4 1.625 -0.20365524q0.59375 -0.21894455 0.890625 -0.6877899q0.3125 -0.484478 0.3125 -1.031353q0 -0.8125 -0.59375 -1.3279305q-0.59375 -0.53105545 -1.859375 -0.53064346l-3.625 0.0011787415l0 3.7812538zm15.5078125 3.7293243l1.453125 0.17140198q-0.34375 1.2813568 -1.28125 1.984787q-0.921875 0.7034302 -2.359375 0.70389557q-1.828125 5.950928E-4 -2.890625 -1.1240616q-1.0625 -1.124649 -1.0625 -3.140274q0 -2.09375 1.078125 -3.2503548q1.078125 -1.156601 2.796875 -1.1571579q1.65625 -5.41687E-4 2.703125 1.1397438q1.0625 1.1246567 1.0625 3.1715317q0 0.125 0 0.375l-6.1875 0.0020141602q0.078125 1.3749695 0.765625 2.1091232q0.703125 0.7185211 1.734375 0.7181854q0.78125 -2.5177002E-4 1.328125 -0.40668488q0.546875 -0.40642548 0.859375 -1.2971497zm-4.609375 -2.2797546l4.625 -0.0015029907q-0.09375 -1.0468445 -0.53125 -1.5623245q-0.671875 -0.81228256 -1.734375 -0.81193924q-0.96875 3.1661987E-4 -1.640625 0.65678406q-0.65625 0.64084244 -0.71875 1.7189827zm13.1171875 8.13636l0 -4.078125q-0.328125 0.4688568 -0.921875 0.78154755q-0.578125 0.29706573 -1.25 0.29727936q-1.46875 4.8065186E-4 -2.546875 -1.1710434q-1.0625 -1.1871567 -1.0625 -3.2496567q0 -1.25 0.4375 -2.2345123q0.4375 -1.000145 1.25 -1.500412q0.828125 -0.515892 1.8125 -0.51621246q1.546875 -5.0354004E-4 2.421875 1.2960854l0 -1.109375l1.265625 -4.119873E-4l0 11.484379l-1.40625 4.5776367E-4zm-4.328125 -7.357971q0 1.59375 0.671875 2.4060364q0.671875 0.79665375 1.609375 0.7963486q0.890625 -2.89917E-4 1.53125 -0.7661209q0.65625 -0.7658386 0.65625 -2.3127136q0 -1.65625 -0.6875 -2.4841537q-0.671875 -0.84353256 -1.59375 -0.8432312q-0.921875 2.975464E-4 -1.5625 0.78175735q-0.625 0.7658272 -0.625 2.4220772zm13.3828125 4.1675186l0 -1.21875q-0.96875 1.4065628 -2.640625 1.4071121q-0.734375 2.3651123E-4 -1.375 -0.2808075q-0.625 -0.281044 -0.9375 -0.7028198q-0.3125 -0.4373932 -0.4375 -1.04673q-0.078125 -0.4218521 -0.078125 -1.3124771l0 -5.140621l1.40625 -4.5776367E-4l0 4.593746q0 1.109375 0.078125 1.4843521q0.140625 0.5624542 0.5625 0.8748169q0.4375 0.31235504 1.0625 0.31215668q0.640625 -2.1362305E-4 1.1875 -0.3128891q0.5625 -0.3283081 0.78125 -0.89087677q0.234375 -0.5625763 0.234375 -1.6250763l0 -4.437504l1.40625 -4.5776367E-4l0 8.296879l-1.25 4.043579E-4zm9.1328125 -2.6748505l1.453125 0.17140198q-0.34375 1.2813644 -1.28125 1.9847946q-0.921875 0.70342255 -2.359375 0.70389557q-1.828125 5.950928E-4 -2.890625 -1.1240616q-1.0625 -1.1246567 -1.0625 -3.1402817q0 -2.09375 1.078125 -3.2503471q1.078125 -1.156601 2.796875 -1.1571617q1.65625 -5.378723E-4 2.703125 1.1397438q1.0625 1.1246529 1.0625 3.1715279q0 0.125 0 0.375l-6.1875 0.0020141602q0.078125 1.3749771 0.765625 2.1091309q0.703125 0.7185211 1.734375 0.7181854q0.78125 -2.593994E-4 1.328125 -0.40668488q0.546875 -0.40642548 0.859375 -1.2971573zm-4.609375 -2.279747l4.625 -0.0015029907q-0.09375 -1.0468445 -0.53125 -1.5623322q-0.671875 -0.81227875 -1.734375 -0.8119316q-0.96875 3.1280518E-4 -1.640625 0.65678406q-0.65625 0.6408348 -0.71875 1.7189827zm7.2734375 2.466385l1.390625 -0.21920776q0.109375 0.8437195 0.640625 1.296669q0.546875 0.43732452 1.5 0.43701172q0.96875 -3.1280518E-4 1.4375 -0.3910904q0.46875 -0.4064026 0.46875 -0.9376526q0 -0.46875 -0.40625 -0.7498703q-0.296875 -0.18740082 -1.4375 -0.4682846q-1.546875 -0.39012146 -2.15625 -0.6711731q-0.59375 -0.29667664 -0.90625 -0.79657745q-0.296875 -0.49990082 -0.296875 -1.1092758q0 -0.5625038 0.25 -1.0313339q0.25 -0.46883392 0.6875 -0.78147507q0.328125 -0.2501068 0.890625 -0.40653992q0.578125 -0.17206192 1.21875 -0.17227173q0.984375 -3.2043457E-4 1.71875 0.28068924q0.734375 0.2810135 1.078125 0.76527405q0.359375 0.46863556 0.5 1.2810898l-1.375 0.1879425q-0.09375 -0.64059067 -0.546875 -0.9998169q-0.453125 -0.35923004 -1.265625 -0.358963q-0.96875 3.1280518E-4 -1.390625 0.32857513q-0.40625 0.3126335 -0.40625 0.7345123q0 0.28125 0.171875 0.49993896q0.171875 0.2186966 0.53125 0.37483215q0.21875 0.078048706 1.25 0.358963q1.484375 0.39014435 2.078125 0.655571q0.59375 0.24980927 0.921875 0.73407745q0.34375 0.48426056 0.34375 1.2030106q0 0.703125 -0.421875 1.32827q-0.40625 0.6095047 -1.1875 0.95350647q-0.765625 0.34400177 -1.734375 0.34431458q-1.625 5.340576E-4 -2.46875 -0.6710663q-0.84375 -0.67160034 -1.078125 -1.999649zm11.625 1.2149582l0.203125 1.249939q-0.59375 0.12519073 -1.0625 0.12534332q-0.765625 2.5177002E-4 -1.1875 -0.2339859q-0.421875 -0.24986267 -0.59375 -0.64043427q-0.171875 -0.4061966 -0.171875 -1.6718216l0 -4.765621l-1.03125 3.3569336E-4l0 -1.09375l1.03125 -3.3569336E-4l0 -2.0625l1.40625 -0.84420776l0 2.90625l1.40625 -4.5776367E-4l0 1.09375l-1.40625 4.5776367E-4l0 4.843746q0 0.609375 0.0625 0.78123474q0.078125 0.17184448 0.25 0.28116608q0.171875 0.093696594 0.484375 0.09358978q0.234375 -7.6293945E-5 0.609375 -0.062698364z" fill-rule="nonzero"/><path fill="#000000" fill-opacity="0.0" d="m145.6066 77.47507l89.16536 0" fill-rule="evenodd"/><path stroke="#000000" stroke-width="1.0" stroke-linejoin="round" stroke-linecap="butt" d="m145.60661 77.47507l83.165344 0" fill-rule="evenodd"/><path fill="#000000" stroke="#000000" stroke-width="1.0" stroke-linecap="butt" d="m228.77196 79.1268l4.538101 -1.6517334l-4.538101 -1.6517334z" fill-rule="evenodd"/><path fill="#000000" fill-opacity="0.0" d="m812.9134 77.47507l99.46454 0" fill-rule="evenodd"/><path stroke="#000000" stroke-width="1.0" stroke-linejoin="round" stroke-linecap="butt" d="m812.9134 77.47507l93.46454 0" fill-rule="evenodd"/><path fill="#000000" stroke="#000000" stroke-width="1.0" stroke-linecap="butt" d="m906.3779 79.1268l4.538147 -1.6517334l-4.538147 -1.6517334z" fill-rule="evenodd"/><path fill="#000000" fill-opacity="0.0" d="m814.28394 46.1835l96.72443 -0.031497955l0 31.338585l-96.72443 0.03149414z" fill-rule="evenodd"/><path fill="#000000" d="m827.8883 70.53907l0 -11.453125l5.078125 -0.0016555786q1.53125 -4.9591064E-4 2.328125 0.3117447q0.796875 0.2966156 1.265625 1.077713q0.484375 0.7810898 0.484375 1.7342148q0 1.21875 -0.796875 2.0627594q-0.78125 0.8283844 -2.4375 1.0476685q0.609375 0.29667664 0.921875 0.57782745q0.65625 0.6091614 1.25 1.5152206l2.0 3.1243439l-1.90625 6.2561035E-4l-1.515625 -2.3901367q-0.671875 -1.0310287 -1.109375 -1.5777588q-0.421875 -0.5467377 -0.765625 -0.76538086q-0.328125 -0.21864319 -0.6875 -0.29664612q-0.25 -0.062423706 -0.84375 -0.06222534l-1.75 5.645752E-4l0 5.09375l-1.515625 4.9591064E-4zm1.515625 -6.406746l3.25 -0.0010528564q1.046875 -3.4332275E-4 1.625 -0.20365906q0.59375 -0.21894073 0.890625 -0.6877899q0.3125 -0.48447418 0.3125 -1.0313492q0 -0.8125 -0.59375 -1.3279343q-0.59375 -0.53105545 -1.859375 -0.53064346l-3.625 0.0011787415l0 3.78125zm15.5078125 3.7293243l1.453125 0.17140198q-0.34375 1.2813644 -1.28125 1.9847946q-0.921875 0.70342255 -2.359375 0.70389557q-1.828125 5.950928E-4 -2.890625 -1.1240616q-1.0625 -1.1246567 -1.0625 -3.1402817q0 -2.09375 1.078125 -3.2503471q1.078125 -1.156601 2.796875 -1.1571617q1.65625 -5.378723E-4 2.703125 1.1397438q1.0625 1.1246529 1.0625 3.1715279q0 0.125 0 0.375l-6.1875 0.0020141602q0.078125 1.3749771 0.765625 2.1091309q0.703125 0.7185211 1.734375 0.7181854q0.78125 -2.593994E-4 1.328125 -0.40668488q0.546875 -0.40642548 0.859375 -1.2971573zm-4.609375 -2.279747l4.625 -0.0015029907q-0.09375 -1.0468445 -0.53125 -1.5623322q-0.671875 -0.81227875 -1.734375 -0.8119316q-0.96875 3.1661987E-4 -1.640625 0.65678406q-0.65625 0.6408348 -0.71875 1.7189827zm7.2734375 2.466385l1.390625 -0.21920776q0.109375 0.8437195 0.640625 1.296669q0.546875 0.43732452 1.5 0.43701172q0.96875 -3.1280518E-4 1.4375 -0.3910904q0.46875 -0.4064026 0.46875 -0.9376526q0 -0.46875 -0.40625 -0.7498703q-0.296875 -0.18740082 -1.4375 -0.4682846q-1.546875 -0.39012146 -2.15625 -0.6711731q-0.59375 -0.29667664 -0.90625 -0.79657745q-0.296875 -0.49990082 -0.296875 -1.1092758q0 -0.5625038 0.25 -1.0313339q0.25 -0.4688301 0.6875 -0.78147507q0.328125 -0.2501068 0.890625 -0.40653992q0.578125 -0.17206192 1.21875 -0.17227173q0.984375 -3.2043457E-4 1.71875 0.28069305q0.734375 0.28100967 1.078125 0.76527405q0.359375 0.46863174 0.5 1.281086l-1.375 0.18795013q-0.09375 -0.6405983 -0.546875 -0.9998245q-0.453125 -0.35922623 -1.265625 -0.358963q-0.96875 3.1661987E-4 -1.390625 0.32857895q-0.40625 0.3126297 -0.40625 0.7345085q0 0.28125 0.171875 0.49993896q0.171875 0.2186966 0.53125 0.37483215q0.21875 0.078048706 1.25 0.358963q1.484375 0.39014435 2.078125 0.6555786q0.59375 0.24980164 0.921875 0.7340698q0.34375 0.4842682 0.34375 1.2030182q0 0.703125 -0.421875 1.3282623q-0.40625 0.6095047 -1.1875 0.95350647q-0.765625 0.34400177 -1.734375 0.34431458q-1.625 5.340576E-4 -2.46875 -0.6710663q-0.84375 -0.67160034 -1.078125 -1.999649zm8.5625 5.6690826l0 -11.484375l1.28125 -4.15802E-4l0 1.078125q0.453125 -0.6407738 1.015625 -0.9534569q0.578125 -0.31268692 1.390625 -0.31295013q1.0625 -3.4713745E-4 1.875 0.54626465q0.8125 0.546608 1.21875 1.5464783q0.421875 0.9842377 0.421875 2.1717377q0 1.28125 -0.46875 2.2970276q-0.453125 1.01577 -1.328125 1.5629349q-0.859375 0.54714966 -1.828125 0.5474701q-0.703125 2.2888184E-4 -1.265625 -0.296463q-0.546875 -0.29669952 -0.90625 -0.7497101l0 4.046875l-1.40625 4.5776367E-4zm1.265625 -7.297287q0 1.609375 0.640625 2.374794q0.65625 0.7654114 1.578125 0.76511383q0.9375 -3.0517578E-4 1.609375 -0.7974014q0.671875 -0.79709625 0.671875 -2.4533463q0 -1.59375 -0.65625 -2.3747864q-0.65625 -0.7966614 -1.5625 -0.79636383q-0.890625 2.89917E-4 -1.59375 0.8442688q-0.6875 0.84397125 -0.6875 2.4377213zm7.1015625 -0.049186707q0 -2.296875 1.28125 -3.4066658q1.078125 -0.92222595 2.609375 -0.9227257q1.71875 -5.607605E-4 2.796875 1.1240883q1.09375 1.1090202 1.09375 3.0933952q0 1.59375 -0.484375 2.5157852q-0.484375 0.9220276 -1.40625 1.4379578q-0.90625 0.5002899 -2.0 0.5006485q-1.734375 5.645752E-4 -2.8125 -1.1084595q-1.078125 -1.124649 -1.078125 -3.234024zm1.453125 -4.7302246E-4q0 1.59375 0.6875 2.3904037q0.703125 0.7966461 1.75 0.7963028q1.046875 -3.4332275E-4 1.734375 -0.7974396q0.703125 -0.7971039 0.703125 -2.437729q0 -1.53125 -0.703125 -2.327896q-0.6875 -0.79664993 -1.734375 -0.7963104q-1.046875 3.3950806E-4 -1.75 0.7974434q-0.6875 0.78147507 -0.6875 2.375225zm7.9765625 4.153656l0 -8.296879l1.265625 -4.119873E-4l0 1.171875q0.90625 -1.3596687 2.640625 -1.3602333q0.75 -2.4414062E-4 1.375 0.26517487q0.625 0.26542282 0.9375 0.7028198q0.3125 0.43740082 0.4375 1.0467377q0.078125 0.39059448 0.078125 1.3593445l0 5.109375l-1.40625 4.5776367E-4l0 -5.046875q0 -0.859375 -0.171875 -1.281189q-0.15625 -0.43745422 -0.578125 -0.6873169q-0.40625 -0.24986649 -0.96875 -0.24968338q-0.90625 2.975464E-4 -1.5625 0.57863617q-0.640625 0.5627098 -0.640625 2.1564598l0 4.53125l-1.40625 4.5776367E-4zm8.3359375 -2.487091l1.390625 -0.21920013q0.109375 0.84371185 0.640625 1.2966614q0.546875 0.43732452 1.5 0.43701172q0.96875 -3.1280518E-4 1.4375 -0.3910904q0.46875 -0.4064026 0.46875 -0.9376526q0 -0.46875 -0.40625 -0.7498703q-0.296875 -0.18740082 -1.4375 -0.46827698q-1.546875 -0.39012146 -2.15625 -0.6711731q-0.59375 -0.29668427 -0.90625 -0.7965851q-0.296875 -0.49990082 -0.296875 -1.1092758q0 -0.5625 0.25 -1.0313339q0.25 -0.4688301 0.6875 -0.78147125q0.328125 -0.2501068 0.890625 -0.40653992q0.578125 -0.17206573 1.21875 -0.17227173q0.984375 -3.2043457E-4 1.71875 0.28068924q0.734375 0.28100967 1.078125 0.76527405q0.359375 0.46863174 0.5 1.281086l-1.375 0.18795013q-0.09375 -0.6405945 -0.546875 -0.9998245q-0.453125 -0.35922623 -1.265625 -0.358963q-0.96875 3.1661987E-4 -1.390625 0.32857895q-0.40625 0.3126335 -0.40625 0.7345085q0 0.28125 0.171875 0.4999466q0.171875 0.21868896 0.53125 0.37482452q0.21875 0.078056335 1.25 0.358963q1.484375 0.39014435 2.078125 0.6555786q0.59375 0.24980164 0.921875 0.7340698q0.34375 0.4842682 0.34375 1.2030182q0 0.703125 -0.421875 1.3282623q-0.40625 0.6095047 -1.1875 0.9535141q-0.765625 0.34399414 -1.734375 0.34431458q-1.625 5.264282E-4 -2.46875 -0.6710739q-0.84375 -0.67160034 -1.078125 -1.999649zm14.234375 -0.19213867l1.453125 0.17140198q-0.34375 1.2813644 -1.28125 1.9847946q-0.921875 0.70342255 -2.359375 0.70389557q-1.828125 5.950928E-4 -2.890625 -1.1240616q-1.0625 -1.1246567 -1.0625 -3.1402817q0 -2.09375 1.078125 -3.2503471q1.078125 -1.156601 2.796875 -1.1571617q1.65625 -5.378723E-4 2.703125 1.1397438q1.0625 1.1246529 1.0625 3.1715279q0 0.125 0 0.375l-6.1875 0.0020141602q0.078125 1.3749771 0.765625 2.1091309q0.703125 0.7185211 1.734375 0.7181854q0.78125 -2.593994E-4 1.328125 -0.40668488q0.546875 -0.40642548 0.859375 -1.2971573zm-4.609375 -2.279747l4.625 -0.0015029907q-0.09375 -1.0468445 -0.53125 -1.5623322q-0.671875 -0.81227875 -1.734375 -0.8119316q-0.96875 3.1280518E-4 -1.640625 0.65678406q-0.65625 0.6408348 -0.71875 1.7189827z" fill-rule="nonzero"/><path fill="#ffffff" d="m912.3779 77.47507l0 0c0 -10.019402 8.1223755 -18.141735 18.141785 -18.141735l0 0c4.8114624 0 9.425903 1.9113579 12.828125 5.313595c3.4022217 3.4022293 5.3135986 8.016655 5.3135986 12.82814l0 0c0 10.019402 -8.1223755 18.141731 -18.141724 18.141731l0 0c-10.019409 0 -18.141785 -8.12233 -18.141785 -18.141731z" fill-rule="evenodd"/><path stroke="#000000" stroke-width="1.0" stroke-linejoin="round" stroke-linecap="butt" d="m912.3779 77.47507l0 0c0 -10.019402 8.1223755 -18.141735 18.141785 -18.141735l0 0c4.8114624 0 9.425903 1.9113579 12.828125 5.313595c3.4022217 3.4022293 5.3135986 8.016655 5.3135986 12.82814l0 0c0 10.019402 -8.1223755 18.141731 -18.141724 18.141731l0 0c-10.019409 0 -18.141785 -8.12233 -18.141785 -18.141731z" fill-rule="evenodd"/><path fill="#000000" d="m917.5283 77.47582l0 0c0 -7.175354 5.8167725 -12.992126 12.992126 -12.992126l0 0c3.4457397 0 6.750305 1.3688126 9.186829 3.8053055c2.4364624 2.4365005 3.8052979 5.7410965 3.8052979 9.186821l0 0c0 7.175354 -5.8167725 12.992126 -12.992126 12.992126l0 0c-7.175354 0 -12.992126 -5.8167725 -12.992126 -12.992126z" fill-rule="evenodd"/><path stroke="#000000" stroke-width="1.0" stroke-linejoin="round" stroke-linecap="butt" d="m917.5283 77.47582l0 0c0 -7.175354 5.8167725 -12.992126 12.992126 -12.992126l0 0c3.4457397 0 6.750305 1.3688126 9.186829 3.8053055c2.4364624 2.4365005 3.8052979 5.7410965 3.8052979 9.186821l0 0c0 7.175354 -5.8167725 12.992126 -12.992126 12.992126l0 0c-7.175354 0 -12.992126 -5.8167725 -12.992126 -12.992126z" fill-rule="evenodd"/><path fill="#000000" fill-opacity="0.0" d="m1007.91406 -1.0l0 138.99213l-42.86615 0l0 -138.99213z" fill-rule="evenodd"/><path fill="#0000ff" d="m980.9941 32.69204l13.359375 0l0 9.015625l-1.578125 0l0 -7.25l-4.140625 0l0 6.265625l-1.578125 0l0 -6.265625l-6.0625 0l0 -1.765625zm0 11.083481l9.671875 0l0 1.46875l-1.46875 0q1.03125 0.5625 1.359375 1.03125q0.328125 0.484375 0.328125 1.0625q0 0.828125 -0.53125 1.6875l-1.515625 -0.5625q0.359375 -0.609375 0.359375 -1.203125q0 -0.546875 -0.328125 -0.96875q-0.328125 -0.421875 -0.890625 -0.609375q-0.875 -0.28125 -1.921875 -0.28125l-5.0625 0l0 -1.625zm4.84375 5.618927q2.6875 0 3.96875 1.484375q1.078125 1.25 1.078125 3.046875q0 2.0 -1.3125 3.265625q-1.296875 1.265625 -3.609375 1.265625q-1.859375 0 -2.9375 -0.5625q-1.0625 -0.5625 -1.65625 -1.640625q-0.59375 -1.0625 -0.59375 -2.328125q0 -2.03125 1.296875 -3.28125q1.3125 -1.25 3.765625 -1.25zm0 1.6875q-1.859375 0 -2.796875 0.796875q-0.921875 0.8125 -0.921875 2.046875q0 1.21875 0.921875 2.03125q0.9375 0.8125 2.84375 0.8125q1.796875 0 2.71875 -0.8125q0.921875 -0.8125 0.921875 -2.03125q0 -1.234375 -0.921875 -2.046875q-0.90625 -0.796875 -2.765625 -0.796875zm-4.84375 9.297592l9.671875 0l0 1.46875l-1.375 0q1.59375 1.0625 1.59375 3.078125q0 0.875 -0.3125 1.609375q-0.3125 0.734375 -0.828125 1.09375q-0.5 0.375 -1.203125 0.515625q-0.453125 0.09375 -1.59375 0.09375l-5.953125 0l0 -1.640625l5.890625 0q1.0 0 1.484375 -0.203125q0.5 -0.1875 0.796875 -0.671875q0.296875 -0.484375 0.296875 -1.140625q0 -1.046875 -0.671875 -1.8125q-0.65625 -0.75 -2.515625 -0.75l-5.28125 0l0 -1.640625zm1.46875 13.953842l-1.453125 0.234375q-0.140625 -0.6875 -0.140625 -1.234375q0 -0.890625 0.28125 -1.390625q0.28125 -0.484375 0.734375 -0.6875q0.46875 -0.203125 1.9375 -0.203125l5.578125 0l0 -1.203125l1.265625 0l0 1.203125l2.390625 0l0.984375 1.625l-3.375 0l0 1.65625l-1.265625 0l0 -1.65625l-5.671875 0q-0.6875 0 -0.890625 0.078125q-0.203125 0.09375 -0.328125 0.28125q-0.109375 0.203125 -0.109375 0.578125q0 0.265625 0.0625 0.71875zm1.640625 8.230179l-0.203125 1.6875q-1.484375 -0.40625 -2.3125 -1.484375q-0.8125 -1.078125 -0.8125 -2.765625q0 -2.125 1.296875 -3.375q1.3125 -1.234375 3.671875 -1.234375q2.453125 0 3.796875 1.25q1.34375 1.265625 1.34375 3.265625q0 1.9375 -1.328125 3.15625q-1.3125 1.234375 -3.703125 1.234375q-0.15625 0 -0.4375 0l0 -7.21875q-1.59375 0.09375 -2.453125 0.90625q-0.84375 0.8125 -0.84375 2.015625q0 0.90625 0.46875 1.546875q0.484375 0.640625 1.515625 1.015625zm2.65625 -5.390625l0 5.40625q1.21875 -0.109375 1.828125 -0.625q0.953125 -0.78125 0.953125 -2.03125q0 -1.125 -0.765625 -1.90625q-0.75 -0.765625 -2.015625 -0.84375zm-5.765625 9.141342l9.671875 0l0 1.46875l-1.375 0q1.59375 1.0625 1.59375 3.078125q0 0.875 -0.3125 1.609375q-0.3125 0.734375 -0.828125 1.09375q-0.5 0.375 -1.203125 0.515625q-0.453125 0.09375 -1.59375 0.09375l-5.953125 0l0 -1.640625l5.890625 0q1.0 0 1.484375 -0.203125q0.5 -0.1875 0.796875 -0.671875q0.296875 -0.484375 0.296875 -1.140625q0 -1.046875 -0.671875 -1.8125q-0.65625 -0.75 -2.515625 -0.75l-5.28125 0l0 -1.640625zm0 16.641342l1.21875 0q-1.4375 -0.90625 -1.4375 -2.703125q0 -1.15625 0.640625 -2.125q0.640625 -0.96875 1.78125 -1.5q1.140625 -0.53125 2.625 -0.53125q1.453125 0 2.625 0.484375q1.1875 0.484375 1.8125 1.4375q0.625 0.96875 0.625 2.171875q0 0.875 -0.375 1.546875q-0.359375 0.6875 -0.953125 1.109375l4.796875 0l0 1.640625l-13.359375 0l0 -1.53125zm4.828125 -5.171875q-1.859375 0 -2.78125 0.78125q-0.921875 0.78125 -0.921875 1.84375q0 1.078125 0.875 1.828125q0.890625 0.75 2.6875 0.75q1.984375 0 2.90625 -0.765625q0.9375 -0.765625 0.9375 -1.890625q0 -1.078125 -0.890625 -1.8125q-0.890625 -0.734375 -2.8125 -0.734375z" fill-rule="nonzero"/></g></svg>