<svg version="1.1" viewBox="0.0 0.0 1006.488188976378 297.0" fill="none" stroke="none" stroke-linecap="square" stroke-miterlimit="10" xmlns:xlink="http://www.w3.org/1999/xlink" xmlns="http://www.w3.org/2000/svg"><clipPath id="p.0"><path d="m0 0l1006.48816 0l0 297.0l-1006.48816 0l0 -297.0z" clip-rule="nonzero"/></clipPath><g clip-path="url(#p.0)"><path fill="#000000" fill-opacity="0.0" d="m0 0l1006.48816 0l0 297.0l-1006.48816 0z" fill-rule="evenodd"/><path fill="#ffffff" d="m234.8777 198.15224l123.18111 0l0 62.645676l-123.18111 0z" fill-rule="evenodd"/><path stroke="#999999" stroke-width="1.0" stroke-linejoin="round" stroke-linecap="butt" d="m234.8777 198.15224l123.18111 0l0 62.645676l-123.18111 0z" fill-rule="evenodd"/><path fill="#999999" d="m265.78503 236.39507l0 -13.359375l5.921875 0q1.78125 0 2.703125 0.359375q0.9375 0.359375 1.484375 1.28125q0.5625 0.90625 0.5625 2.015625q0 1.40625 -0.921875 2.390625q-0.921875 0.96875 -2.84375 1.234375q0.703125 0.34375 1.078125 0.671875q0.765625 0.703125 1.453125 1.765625l2.328125 3.640625l-2.21875 0l-1.765625 -2.78125q-0.78125 -1.203125 -1.28125 -1.828125q-0.5 -0.640625 -0.90625 -0.890625q-0.390625 -0.265625 -0.796875 -0.359375q-0.296875 -0.078125 -0.984375 -0.078125l-2.046875 0l0 5.9375l-1.765625 0zm1.765625 -7.453125l3.796875 0q1.21875 0 1.890625 -0.25q0.6875 -0.265625 1.046875 -0.8125q0.359375 -0.546875 0.359375 -1.1875q0 -0.953125 -0.6875 -1.5625q-0.6875 -0.609375 -2.1875 -0.609375l-4.21875 0l0 4.421875zm10.863586 2.609375q0 -2.6875 1.484375 -3.96875q1.25 -1.078125 3.046875 -1.078125q2.0 0 3.265625 1.3125q1.265625 1.296875 1.265625 3.609375q0 1.859375 -0.5625 2.9375q-0.5625 1.0625 -1.640625 1.65625q-1.0625 0.59375 -2.328125 0.59375q-2.03125 0 -3.28125 -1.296875q-1.25 -1.3125 -1.25 -3.765625zm1.6875 0q0 1.859375 0.796875 2.796875q0.8125 0.921875 2.046875 0.921875q1.21875 0 2.03125 -0.921875q0.8125 -0.9375 0.8125 -2.84375q0 -1.796875 -0.8125 -2.71875q-0.8125 -0.921875 -2.03125 -0.921875q-1.234375 0 -2.046875 0.921875q-0.796875 0.90625 -0.796875 2.765625zm15.625702 4.84375l0 -1.421875q-1.125 1.640625 -3.0625 1.640625q-0.859375 0 -1.609375 -0.328125q-0.734375 -0.328125 -1.09375 -0.828125q-0.359375 -0.5 -0.5 -1.21875q-0.109375 -0.46875 -0.109375 -1.53125l0 -5.984375l1.640625 0l0 5.359375q0 1.28125 0.109375 1.734375q0.15625 0.640625 0.65625 1.015625q0.5 0.375 1.234375 0.375q0.734375 0 1.375 -0.375q0.65625 -0.390625 0.921875 -1.03125q0.265625 -0.65625 0.265625 -1.890625l0 -5.1875l1.640625 0l0 9.671875l-1.46875 0zm7.6257324 -1.46875l0.234375 1.453125q-0.6875 0.140625 -1.234375 0.140625q-0.890625 0 -1.390625 -0.28125q-0.484375 -0.28125 -0.6875 -0.734375q-0.203125 -0.46875 -0.203125 -1.9375l0 -5.578125l-1.203125 0l0 -1.265625l1.203125 0l0 -2.390625l1.625 -0.984375l0 3.375l1.65625 0l0 1.265625l-1.65625 0l0 5.671875q0 0.6875 0.078125 0.890625q0.09375 0.203125 0.28125 0.328125q0.203125 0.109375 0.578125 0.109375q0.265625 0 0.71875 -0.0625zm1.6051636 -10.0l0 -1.890625l1.640625 0l0 1.890625l-1.640625 0zm0 11.46875l0 -9.671875l1.640625 0l0 9.671875l-1.640625 0zm4.1448364 0l0 -9.671875l1.46875 0l0 1.375q1.0625 -1.59375 3.078125 -1.59375q0.875 0 1.609375 0.3125q0.734375 0.3125 1.09375 0.828125q0.375 0.5 0.515625 1.203125q0.09375 0.453125 0.09375 1.59375l0 5.953125l-1.640625 0l0 -5.890625q0 -1.0 -0.203125 -1.484375q-0.1875 -0.5 -0.671875 -0.796875q-0.484375 -0.296875 -1.140625 -0.296875q-1.046875 0 -1.8125 0.671875q-0.75 0.65625 -0.75 2.515625l0 5.28125l-1.640625 0zm10.063202 0.796875l1.59375 0.234375q0.109375 0.75 0.5625 1.078125q0.609375 0.453125 1.671875 0.453125q1.140625 0 1.75 -0.453125q0.625 -0.453125 0.84375 -1.265625q0.125 -0.5 0.109375 -2.109375q-1.0625 1.265625 -2.671875 1.265625q-2.0 0 -3.09375 -1.4375q-1.09375 -1.4375 -1.09375 -3.453125q0 -1.390625 0.5 -2.5625q0.515625 -1.171875 1.453125 -1.796875q0.953125 -0.640625 2.25 -0.640625q1.703125 0 2.8125 1.375l0 -1.15625l1.515625 0l0 8.359375q0 2.265625 -0.46875 3.203125q-0.453125 0.9375 -1.453125 1.484375q-0.984375 0.546875 -2.453125 0.546875q-1.71875 0 -2.796875 -0.78125q-1.0625 -0.765625 -1.03125 -2.34375zm1.359375 -5.8125q0 1.90625 0.75 2.78125q0.765625 0.875 1.90625 0.875q1.125 0 1.890625 -0.859375q0.765625 -0.875 0.765625 -2.734375q0 -1.78125 -0.796875 -2.671875q-0.78125 -0.90625 -1.890625 -0.90625q-1.09375 0 -1.859375 0.890625q-0.765625 0.875 -0.765625 2.625z" fill-rule="nonzero"/><path fill="#ffffff" d="m386.62848 198.15224l123.18109 0l0 62.645676l-123.18109 0z" fill-rule="evenodd"/><path stroke="#999999" stroke-width="1.0" stroke-linejoin="round" stroke-linecap="butt" d="m386.62848 198.15224l123.18109 0l0 62.645676l-123.18109 0z" fill-rule="evenodd"/><path fill="#999999" d="m406.53146 236.39507l0 -13.359375l1.78125 0l0 11.78125l6.5625 0l0 1.578125l-8.34375 0zm9.641357 -4.84375q0 -2.6875 1.484375 -3.96875q1.25 -1.078125 3.046875 -1.078125q2.0 0 3.265625 1.3125q1.265625 1.296875 1.265625 3.609375q0 1.859375 -0.5625 2.9375q-0.5625 1.0625 -1.640625 1.65625q-1.0625 0.59375 -2.328125 0.59375q-2.03125 0 -3.28125 -1.296875q-1.25 -1.3125 -1.25 -3.765625zm1.6875 0q0 1.859375 0.796875 2.796875q0.8125 0.921875 2.046875 0.921875q1.21875 0 2.03125 -0.921875q0.8125 -0.9375 0.8125 -2.84375q0 -1.796875 -0.8125 -2.71875q-0.8125 -0.921875 -2.03125 -0.921875q-1.234375 0 -2.046875 0.921875q-0.796875 0.90625 -0.796875 2.765625zm15.610077 3.65625q-0.921875 0.765625 -1.765625 1.09375q-0.828125 0.3125 -1.796875 0.3125q-1.59375 0 -2.453125 -0.78125q-0.859375 -0.78125 -0.859375 -1.984375q0 -0.71875 0.328125 -1.296875q0.328125 -0.59375 0.84375 -0.9375q0.53125 -0.359375 1.1875 -0.546875q0.46875 -0.125 1.453125 -0.25q1.984375 -0.234375 2.921875 -0.5625q0.015625 -0.34375 0.015625 -0.421875q0 -1.0 -0.46875 -1.421875q-0.625 -0.546875 -1.875 -0.546875q-1.15625 0 -1.703125 0.40625q-0.546875 0.40625 -0.8125 1.421875l-1.609375 -0.21875q0.21875 -1.015625 0.71875 -1.640625q0.5 -0.640625 1.453125 -0.984375q0.953125 -0.34375 2.1875 -0.34375q1.25 0 2.015625 0.296875q0.78125 0.28125 1.140625 0.734375q0.375 0.4375 0.515625 1.109375q0.078125 0.421875 0.078125 1.515625l0 2.1875q0 2.28125 0.109375 2.890625q0.109375 0.59375 0.40625 1.15625l-1.703125 0q-0.265625 -0.515625 -0.328125 -1.1875zm-0.140625 -3.671875q-0.890625 0.375 -2.671875 0.625q-1.015625 0.140625 -1.4375 0.328125q-0.421875 0.1875 -0.65625 0.53125q-0.21875 0.34375 -0.21875 0.78125q0 0.65625 0.5 1.09375q0.5 0.4375 1.453125 0.4375q0.9375 0 1.671875 -0.40625q0.75 -0.421875 1.09375 -1.140625q0.265625 -0.5625 0.265625 -1.640625l0 -0.609375zm10.469482 4.859375l0 -1.21875q-0.90625 1.4375 -2.703125 1.4375q-1.15625 0 -2.125 -0.640625q-0.96875 -0.640625 -1.5 -1.78125q-0.53125 -1.140625 -0.53125 -2.625q0 -1.453125 0.484375 -2.625q0.484375 -1.1875 1.4375 -1.8125q0.96875 -0.625 2.171875 -0.625q0.875 0 1.546875 0.375q0.6875 0.359375 1.109375 0.953125l0 -4.796875l1.640625 0l0 13.359375l-1.53125 0zm-5.171875 -4.828125q0 1.859375 0.78125 2.78125q0.78125 0.921875 1.84375 0.921875q1.078125 0 1.828125 -0.875q0.75 -0.890625 0.75 -2.6875q0 -1.984375 -0.765625 -2.90625q-0.765625 -0.9375 -1.890625 -0.9375q-1.078125 0 -1.8125 0.890625q-0.734375 0.890625 -0.734375 2.8125zm14.668396 4.828125l0 -13.359375l4.609375 0q1.546875 0 2.375 0.203125q1.140625 0.25 1.953125 0.953125q1.0625 0.890625 1.578125 2.28125q0.53125 1.390625 0.53125 3.171875q0 1.515625 -0.359375 2.703125q-0.359375 1.171875 -0.921875 1.9375q-0.546875 0.765625 -1.203125 1.21875q-0.65625 0.4375 -1.59375 0.671875q-0.9375 0.21875 -2.140625 0.21875l-4.828125 0zm1.765625 -1.578125l2.859375 0q1.3125 0 2.0625 -0.234375q0.75 -0.25 1.203125 -0.703125q0.625 -0.625 0.96875 -1.6875q0.359375 -1.0625 0.359375 -2.578125q0 -2.09375 -0.6875 -3.21875q-0.6875 -1.125 -1.671875 -1.5q-0.703125 -0.28125 -2.28125 -0.28125l-2.8125 0l0 10.203125zm17.81668 0.390625q-0.921875 0.765625 -1.765625 1.09375q-0.828125 0.3125 -1.796875 0.3125q-1.59375 0 -2.453125 -0.78125q-0.859375 -0.78125 -0.859375 -1.984375q0 -0.71875 0.328125 -1.296875q0.328125 -0.59375 0.84375 -0.9375q0.53125 -0.359375 1.1875 -0.546875q0.46875 -0.125 1.453125 -0.25q1.984375 -0.234375 2.921875 -0.5625q0.015625 -0.34375 0.015625 -0.421875q0 -1.0 -0.46875 -1.421875q-0.625 -0.546875 -1.875 -0.546875q-1.15625 0 -1.703125 0.40625q-0.546875 0.40625 -0.8125 1.421875l-1.609375 -0.21875q0.21875 -1.015625 0.71875 -1.640625q0.5 -0.640625 1.453125 -0.984375q0.953125 -0.34375 2.1875 -0.34375q1.25 0 2.015625 0.296875q0.78125 0.28125 1.140625 0.734375q0.375 0.4375 0.515625 1.109375q0.078125 0.421875 0.078125 1.515625l0 2.1875q0 2.28125 0.109375 2.890625q0.109375 0.59375 0.40625 1.15625l-1.703125 0q-0.265625 -0.515625 -0.328125 -1.1875zm-0.140625 -3.671875q-0.890625 0.375 -2.671875 0.625q-1.015625 0.140625 -1.4375 0.328125q-0.421875 0.1875 -0.65625 0.53125q-0.21875 0.34375 -0.21875 0.78125q0 0.65625 0.5 1.09375q0.5 0.4375 1.453125 0.4375q0.9375 0 1.671875 -0.40625q0.75 -0.421875 1.09375 -1.140625q0.265625 -0.5625 0.265625 -1.640625l0 -0.609375zm7.7819824 3.390625l0.234375 1.453125q-0.6875 0.140625 -1.234375 0.140625q-0.890625 0 -1.390625 -0.28125q-0.484375 -0.28125 -0.6875 -0.734375q-0.203125 -0.46875 -0.203125 -1.9375l0 -5.578125l-1.203125 0l0 -1.265625l1.203125 0l0 -2.390625l1.625 -0.984375l0 3.375l1.65625 0l0 1.265625l-1.65625 0l0 5.671875q0 0.6875 0.078125 0.890625q0.09375 0.203125 0.28125 0.328125q0.203125 0.109375 0.578125 0.109375q0.265625 0 0.71875 -0.0625zm7.9176636 0.28125q-0.921875 0.765625 -1.765625 1.09375q-0.828125 0.3125 -1.796875 0.3125q-1.59375 0 -2.453125 -0.78125q-0.859375 -0.78125 -0.859375 -1.984375q0 -0.71875 0.328125 -1.296875q0.328125 -0.59375 0.84375 -0.9375q0.53125 -0.359375 1.1875 -0.546875q0.46875 -0.125 1.453125 -0.25q1.984375 -0.234375 2.921875 -0.5625q0.015625 -0.34375 0.015625 -0.421875q0 -1.0 -0.46875 -1.421875q-0.625 -0.546875 -1.875 -0.546875q-1.15625 0 -1.703125 0.40625q-0.546875 0.40625 -0.8125 1.421875l-1.609375 -0.21875q0.21875 -1.015625 0.71875 -1.640625q0.5 -0.640625 1.453125 -0.984375q0.953125 -0.34375 2.1875 -0.34375q1.25 0 2.015625 0.296875q0.78125 0.28125 1.140625 0.734375q0.375 0.4375 0.515625 1.109375q0.078125 0.421875 0.078125 1.515625l0 2.1875q0 2.28125 0.109375 2.890625q0.109375 0.59375 0.40625 1.15625l-1.703125 0q-0.265625 -0.515625 -0.328125 -1.1875zm-0.140625 -3.671875q-0.890625 0.375 -2.671875 0.625q-1.015625 0.140625 -1.4375 0.328125q-0.421875 0.1875 -0.65625 0.53125q-0.21875 0.34375 -0.21875 0.78125q0 0.65625 0.5 1.09375q0.5 0.4375 1.453125 0.4375q0.9375 0 1.671875 -0.40625q0.75 -0.421875 1.09375 -1.140625q0.265625 -0.5625 0.265625 -1.640625l0 -0.609375z" fill-rule="nonzero"/><path fill="#ffffff" d="m538.3793 198.15224l123.18109 0l0 62.645676l-123.18109 0z" fill-rule="evenodd"/><path stroke="#999999" stroke-width="1.0" stroke-linejoin="round" stroke-linecap="butt" d="m538.3793 198.15224l123.18109 0l0 62.645676l-123.18109 0z" fill-rule="evenodd"/><path fill="#999999" d="m579.0291 236.39507l0 -13.359375l1.78125 0l0 11.78125l6.5625 0l0 1.578125l-8.34375 0zm9.641357 -4.84375q0 -2.6875 1.484375 -3.96875q1.25 -1.078125 3.046875 -1.078125q2.0 0 3.265625 1.3125q1.265625 1.296875 1.265625 3.609375q0 1.859375 -0.5625 2.9375q-0.5625 1.0625 -1.640625 1.65625q-1.0625 0.59375 -2.328125 0.59375q-2.03125 0 -3.28125 -1.296875q-1.25 -1.3125 -1.25 -3.765625zm1.6875 0q0 1.859375 0.796875 2.796875q0.8125 0.921875 2.046875 0.921875q1.21875 0 2.03125 -0.921875q0.8125 -0.9375 0.8125 -2.84375q0 -1.796875 -0.8125 -2.71875q-0.8125 -0.921875 -2.03125 -0.921875q-1.234375 0 -2.046875 0.921875q-0.796875 0.90625 -0.796875 2.765625zm8.985107 5.640625l1.59375 0.234375q0.109375 0.75 0.5625 1.078125q0.609375 0.453125 1.671875 0.453125q1.140625 0 1.75 -0.453125q0.625 -0.453125 0.84375 -1.265625q0.125 -0.5 0.109375 -2.109375q-1.0625 1.265625 -2.671875 1.265625q-2.0 0 -3.09375 -1.4375q-1.09375 -1.4375 -1.09375 -3.453125q0 -1.390625 0.5 -2.5625q0.515625 -1.171875 1.453125 -1.796875q0.953125 -0.640625 2.25 -0.640625q1.703125 0 2.8125 1.375l0 -1.15625l1.515625 0l0 8.359375q0 2.265625 -0.46875 3.203125q-0.453125 0.9375 -1.453125 1.484375q-0.984375 0.546875 -2.453125 0.546875q-1.71875 0 -2.796875 -0.78125q-1.0625 -0.765625 -1.03125 -2.34375zm1.359375 -5.8125q0 1.90625 0.75 2.78125q0.765625 0.875 1.90625 0.875q1.125 0 1.890625 -0.859375q0.765625 -0.875 0.765625 -2.734375q0 -1.78125 -0.796875 -2.671875q-0.78125 -0.90625 -1.890625 -0.90625q-1.09375 0 -1.859375 0.890625q-0.765625 0.875 -0.765625 2.625zm9.328796 -6.453125l0 -1.890625l1.640625 0l0 1.890625l-1.640625 0zm0 11.46875l0 -9.671875l1.640625 0l0 9.671875l-1.640625 0zm10.457336 -3.546875l1.609375 0.21875q-0.265625 1.65625 -1.359375 2.609375q-1.078125 0.9375 -2.671875 0.9375q-1.984375 0 -3.1875 -1.296875q-1.203125 -1.296875 -1.203125 -3.71875q0 -1.578125 0.515625 -2.75q0.515625 -1.171875 1.578125 -1.75q1.0625 -0.59375 2.3125 -0.59375q1.578125 0 2.578125 0.796875q1.0 0.796875 1.28125 2.265625l-1.59375 0.234375q-0.234375 -0.96875 -0.8125 -1.453125q-0.578125 -0.5 -1.390625 -0.5q-1.234375 0 -2.015625 0.890625q-0.78125 0.890625 -0.78125 2.8125q0 1.953125 0.75 2.84375q0.75 0.875 1.953125 0.875q0.96875 0 1.609375 -0.59375q0.65625 -0.59375 0.828125 -1.828125z" fill-rule="nonzero"/><path fill="#ffffff" d="m690.13 198.15224l123.18109 0l0 62.645676l-123.18109 0z" fill-rule="evenodd"/><path stroke="#999999" stroke-width="1.0" stroke-linejoin="round" stroke-linecap="butt" d="m690.13 198.15224l123.18109 0l0 62.645676l-123.18109 0z" fill-rule="evenodd"/><path fill="#999999" d="m720.58496 236.39507l5.125 -13.359375l1.90625 0l5.46875 13.359375l-2.015625 0l-1.546875 -4.046875l-5.59375 0l-1.46875 4.046875l-1.875 0zm3.859375 -5.484375l4.53125 0l-1.40625 -3.703125q-0.625 -1.6875 -0.9375 -2.765625q-0.265625 1.28125 -0.71875 2.546875l-1.46875 3.921875zm9.8497925 5.484375l0 -9.671875l1.46875 0l0 1.375q1.0625 -1.59375 3.078125 -1.59375q0.875 0 1.609375 0.3125q0.734375 0.3125 1.09375 0.828125q0.375 0.5 0.515625 1.203125q0.09375 0.453125 0.09375 1.59375l0 5.953125l-1.640625 0l0 -5.890625q0 -1.0 -0.203125 -1.484375q-0.1875 -0.5 -0.671875 -0.796875q-0.484375 -0.296875 -1.140625 -0.296875q-1.046875 0 -1.8125 0.671875q-0.75 0.65625 -0.75 2.515625l0 5.28125l-1.640625 0zm9.719482 -2.890625l1.625 -0.25q0.125 0.96875 0.75 1.5q0.625 0.515625 1.75 0.515625q1.125 0 1.671875 -0.453125q0.546875 -0.46875 0.546875 -1.09375q0 -0.546875 -0.484375 -0.875q-0.328125 -0.21875 -1.671875 -0.546875q-1.8125 -0.46875 -2.515625 -0.796875q-0.6875 -0.328125 -1.046875 -0.90625q-0.359375 -0.59375 -0.359375 -1.3125q0 -0.640625 0.296875 -1.1875q0.296875 -0.5625 0.8125 -0.921875q0.375 -0.28125 1.03125 -0.46875q0.671875 -0.203125 1.421875 -0.203125q1.140625 0 2.0 0.328125q0.859375 0.328125 1.265625 0.890625q0.421875 0.5625 0.578125 1.5l-1.609375 0.21875q-0.109375 -0.75 -0.640625 -1.171875q-0.515625 -0.421875 -1.46875 -0.421875q-1.140625 0 -1.625 0.375q-0.46875 0.375 -0.46875 0.875q0 0.3125 0.1875 0.578125q0.203125 0.265625 0.640625 0.4375q0.234375 0.09375 1.4375 0.421875q1.75 0.453125 2.4375 0.75q0.6875 0.296875 1.078125 0.859375q0.390625 0.5625 0.390625 1.40625q0 0.828125 -0.484375 1.546875q-0.46875 0.71875 -1.375 1.125q-0.90625 0.390625 -2.046875 0.390625q-1.875 0 -2.875 -0.78125q-0.984375 -0.78125 -1.25 -2.328125zm11.765625 2.890625l-2.96875 -9.671875l1.703125 0l1.53125 5.578125l0.578125 2.078125q0.046875 -0.15625 0.5 -2.0l1.546875 -5.65625l1.6875 0l1.4375 5.609375l0.484375 1.84375l0.5625 -1.859375l1.65625 -5.59375l1.59375 0l-3.03125 9.671875l-1.703125 0l-1.53125 -5.796875l-0.375 -1.640625l-1.953125 7.4375l-1.71875 0zm18.316711 -3.109375l1.6875 0.203125q-0.40625 1.484375 -1.484375 2.3125q-1.078125 0.8125 -2.765625 0.8125q-2.125 0 -3.375 -1.296875q-1.234375 -1.3125 -1.234375 -3.671875q0 -2.453125 1.25 -3.796875q1.265625 -1.34375 3.265625 -1.34375q1.9375 0 3.15625 1.328125q1.234375 1.3125 1.234375 3.703125q0 0.15625 0 0.4375l-7.21875 0q0.09375 1.59375 0.90625 2.453125q0.8125 0.84375 2.015625 0.84375q0.90625 0 1.546875 -0.46875q0.640625 -0.484375 1.015625 -1.515625zm-5.390625 -2.65625l5.40625 0q-0.109375 -1.21875 -0.625 -1.828125q-0.78125 -0.953125 -2.03125 -0.953125q-1.125 0 -1.90625 0.765625q-0.765625 0.75 -0.84375 2.015625zm9.125671 5.765625l0 -9.671875l1.46875 0l0 1.46875q0.5625 -1.03125 1.03125 -1.359375q0.484375 -0.328125 1.0625 -0.328125q0.828125 0 1.6875 0.53125l-0.5625 1.515625q-0.609375 -0.359375 -1.203125 -0.359375q-0.546875 0 -0.96875 0.328125q-0.421875 0.328125 -0.609375 0.890625q-0.28125 0.875 -0.28125 1.921875l0 5.0625l-1.625 0z" fill-rule="nonzero"/><path fill="#000000" fill-opacity="0.0" d="m690.13 229.47507c-7.1448364 0 -7.3255615 14.1866455 -14.289734 28.161469c-6.9642334 13.9748535 -20.711914 27.737885 -37.941772 28.161499c-17.229797 0.4236145 -37.94171 -12.4921875 -37.94171 -24.984375" fill-rule="evenodd"/><path stroke="#999999" stroke-width="1.0" stroke-linejoin="round" stroke-linecap="butt" d="m685.2122 232.9124l-0.15979004 0.2795105c-0.25842285 0.46626282 -0.5064087 0.9704132 -0.7473755 1.5088501c-0.48187256 1.0769043 -0.93548584 2.291092 -1.3876343 3.6144867c-1.8088379 5.293518 -3.5950928 12.333862 -7.0771484 19.32129c-6.9642334 13.9748535 -20.711914 27.737885 -37.94171 28.161499c-17.229858 0.4236145 -37.941772 -12.4921875 -37.941772 -24.984375" fill-rule="evenodd"/><path fill="#999999" stroke="#999999" stroke-width="1.0" stroke-linecap="butt" d="m686.15845 234.26622l2.7733154 -3.9536438l-4.6658325 1.2460175z" fill-rule="evenodd"/><path fill="#000000" fill-opacity="0.0" d="m538.3793 229.47507c-7.1448975 0 -7.3255615 14.1866455 -14.289795 28.161469c-6.9641724 13.9748535 -20.711914 27.737885 -37.94171 28.161499c-17.229828 0.4236145 -37.941742 -12.4921875 -37.941742 -24.984375" fill-rule="evenodd"/><path stroke="#999999" stroke-width="1.0" stroke-linejoin="round" stroke-linecap="butt" d="m533.4614 232.91238l-0.159729 0.27952576c-0.25842285 0.46626282 -0.5064697 0.9704132 -0.7473755 1.5088501c-0.48187256 1.0769043 -0.93548584 2.291092 -1.3876953 3.6144867c-1.8088379 5.293518 -3.5950317 12.333862 -7.0771484 19.32129c-6.9641724 13.9748535 -20.711884 27.737885 -37.94171 28.161499c-17.229828 0.4236145 -37.941742 -12.4921875 -37.941742 -24.984375" fill-rule="evenodd"/><path fill="#999999" stroke="#999999" stroke-width="1.0" stroke-linecap="butt" d="m534.4077 234.2662l2.7733154 -3.9536285l-4.6658325 1.2460022z" fill-rule="evenodd"/><path fill="#000000" fill-opacity="0.0" d="m386.62848 229.47507c-7.144867 0 -7.3255615 14.1866455 -14.289764 28.161469c-6.964203 13.9748535 -20.711914 27.737885 -37.941742 28.161499c-17.229797 0.4236145 -37.94171 -12.4921875 -37.94171 -24.984375" fill-rule="evenodd"/><path stroke="#999999" stroke-width="1.0" stroke-linejoin="round" stroke-linecap="butt" d="m381.71066 232.91238l-0.15975952 0.27952576c-0.25842285 0.46626282 -0.5064392 0.9704132 -0.7473755 1.5088501c-0.48187256 1.0769043 -0.93548584 2.291092 -1.3876953 3.6144867c-1.8088074 5.293518 -3.5950623 12.333862 -7.077118 19.32129c-6.964203 13.9748535 -20.711914 27.737885 -37.941742 28.161499c-17.229828 0.4236145 -37.94171 -12.4921875 -37.94171 -24.984375" fill-rule="evenodd"/><path fill="#999999" stroke="#999999" stroke-width="1.0" stroke-linecap="butt" d="m382.65695 234.2662l2.7733154 -3.9536285l-4.6658325 1.2460022z" fill-rule="evenodd"/><path fill="#ffffff" d="m234.8777 46.15223l123.18111 0l0 62.645668l-123.18111 0z" fill-rule="evenodd"/><path stroke="#000000" stroke-width="1.0" stroke-linejoin="round" stroke-linecap="butt" d="m234.8777 46.15223l123.18111 0l0 62.645668l-123.18111 0z" fill-rule="evenodd"/><path fill="#000000" d="m265.78503 84.395065l0 -13.359375l5.921875 0q1.78125 0 2.703125 0.359375q0.9375 0.359375 1.484375 1.28125q0.5625 0.90625 0.5625 2.015625q0 1.40625 -0.921875 2.390625q-0.921875 0.96875 -2.84375 1.234375q0.703125 0.34375 1.078125 0.671875q0.765625 0.703125 1.453125 1.765625l2.328125 3.640625l-2.21875 0l-1.765625 -2.78125q-0.78125 -1.203125 -1.28125 -1.828125q-0.5 -0.640625 -0.90625 -0.890625q-0.390625 -0.265625 -0.796875 -0.359375q-0.296875 -0.078125 -0.984375 -0.078125l-2.046875 0l0 5.9375l-1.765625 0zm1.765625 -7.453125l3.796875 0q1.21875 0 1.890625 -0.25q0.6875 -0.265625 1.046875 -0.8125q0.359375 -0.546875 0.359375 -1.1875q0 -0.953125 -0.6875 -1.5625q-0.6875 -0.609375 -2.1875 -0.609375l-4.21875 0l0 4.421875zm10.863586 2.609375q0 -2.6875 1.484375 -3.96875q1.25 -1.078125 3.046875 -1.078125q2.0 0 3.265625 1.3125q1.265625 1.296875 1.265625 3.609375q0 1.859375 -0.5625 2.9375q-0.5625 1.0625 -1.640625 1.65625q-1.0625 0.59375 -2.328125 0.59375q-2.03125 0 -3.28125 -1.296875q-1.25 -1.3125 -1.25 -3.765625zm1.6875 0q0 1.859375 0.796875 2.796875q0.8125 0.921875 2.046875 0.921875q1.21875 0 2.03125 -0.921875q0.8125 -0.9375 0.8125 -2.84375q0 -1.796875 -0.8125 -2.71875q-0.8125 -0.921875 -2.03125 -0.921875q-1.234375 0 -2.046875 0.921875q-0.796875 0.90625 -0.796875 2.765625zm15.625702 4.84375l0 -1.421875q-1.125 1.640625 -3.0625 1.640625q-0.859375 0 -1.609375 -0.328125q-0.734375 -0.328125 -1.09375 -0.828125q-0.359375 -0.5 -0.5 -1.21875q-0.109375 -0.46875 -0.109375 -1.53125l0 -5.984375l1.640625 0l0 5.359375q0 1.28125 0.109375 1.734375q0.15625 0.640625 0.65625 1.015625q0.5 0.375 1.234375 0.375q0.734375 0 1.375 -0.375q0.65625 -0.390625 0.921875 -1.03125q0.265625 -0.65625 0.265625 -1.890625l0 -5.1875l1.640625 0l0 9.671875l-1.46875 0zm7.6257324 -1.46875l0.234375 1.453125q-0.6875 0.140625 -1.234375 0.140625q-0.890625 0 -1.390625 -0.28125q-0.484375 -0.28125 -0.6875 -0.734375q-0.203125 -0.46875 -0.203125 -1.9375l0 -5.578125l-1.203125 0l0 -1.265625l1.203125 0l0 -2.390625l1.625 -0.984375l0 3.375l1.65625 0l0 1.265625l-1.65625 0l0 5.671875q0 0.6875 0.078125 0.890625q0.09375 0.203125 0.28125 0.328125q0.203125 0.109375 0.578125 0.109375q0.265625 0 0.71875 -0.0625zm1.6051636 -10.0l0 -1.890625l1.640625 0l0 1.890625l-1.640625 0zm0 11.46875l0 -9.671875l1.640625 0l0 9.671875l-1.640625 0zm4.1448364 0l0 -9.671875l1.46875 0l0 1.375q1.0625 -1.59375 3.078125 -1.59375q0.875 0 1.609375 0.3125q0.734375 0.3125 1.09375 0.828125q0.375 0.5 0.515625 1.203125q0.09375 0.453125 0.09375 1.59375l0 5.953125l-1.640625 0l0 -5.890625q0 -1.0 -0.203125 -1.484375q-0.1875 -0.5 -0.671875 -0.796875q-0.484375 -0.296875 -1.140625 -0.296875q-1.046875 0 -1.8125 0.671875q-0.75 0.65625 -0.75 2.515625l0 5.28125l-1.640625 0zm10.063202 0.796875l1.59375 0.234375q0.109375 0.75 0.5625 1.078125q0.609375 0.453125 1.671875 0.453125q1.140625 0 1.75 -0.453125q0.625 -0.453125 0.84375 -1.265625q0.125 -0.5 0.109375 -2.109375q-1.0625 1.265625 -2.671875 1.265625q-2.0 0 -3.09375 -1.4375q-1.09375 -1.4375 -1.09375 -3.453125q0 -1.390625 0.5 -2.5625q0.515625 -1.171875 1.453125 -1.796875q0.953125 -0.640625 2.25 -0.640625q1.703125 0 2.8125 1.375l0 -1.15625l1.515625 0l0 8.359375q0 2.265625 -0.46875 3.203125q-0.453125 0.9375 -1.453125 1.484375q-0.984375 0.546875 -2.453125 0.546875q-1.71875 0 -2.796875 -0.78125q-1.0625 -0.765625 -1.03125 -2.34375zm1.359375 -5.8125q0 1.90625 0.75 2.78125q0.765625 0.875 1.90625 0.875q1.125 0 1.890625 -0.859375q0.765625 -0.875 0.765625 -2.734375q0 -1.78125 -0.796875 -2.671875q-0.78125 -0.90625 -1.890625 -0.90625q-1.09375 0 -1.859375 0.890625q-0.765625 0.875 -0.765625 2.625z" fill-rule="nonzero"/><path fill="#ffffff" d="m386.62848 46.15223l123.18109 0l0 62.645668l-123.18109 0z" fill-rule="evenodd"/><path stroke="#000000" stroke-width="1.0" stroke-linejoin="round" stroke-linecap="butt" d="m386.62848 46.15223l123.18109 0l0 62.645668l-123.18109 0z" fill-rule="evenodd"/><path fill="#000000" d="m406.53146 84.395065l0 -13.359375l1.78125 0l0 11.78125l6.5625 0l0 1.578125l-8.34375 0zm9.641357 -4.84375q0 -2.6875 1.484375 -3.96875q1.25 -1.078125 3.046875 -1.078125q2.0 0 3.265625 1.3125q1.265625 1.296875 1.265625 3.609375q0 1.859375 -0.5625 2.9375q-0.5625 1.0625 -1.640625 1.65625q-1.0625 0.59375 -2.328125 0.59375q-2.03125 0 -3.28125 -1.296875q-1.25 -1.3125 -1.25 -3.765625zm1.6875 0q0 1.859375 0.796875 2.796875q0.8125 0.921875 2.046875 0.921875q1.21875 0 2.03125 -0.921875q0.8125 -0.9375 0.8125 -2.84375q0 -1.796875 -0.8125 -2.71875q-0.8125 -0.921875 -2.03125 -0.921875q-1.234375 0 -2.046875 0.921875q-0.796875 0.90625 -0.796875 2.765625zm15.610077 3.65625q-0.921875 0.765625 -1.765625 1.09375q-0.828125 0.3125 -1.796875 0.3125q-1.59375 0 -2.453125 -0.78125q-0.859375 -0.78125 -0.859375 -1.984375q0 -0.71875 0.328125 -1.296875q0.328125 -0.59375 0.84375 -0.9375q0.53125 -0.359375 1.1875 -0.546875q0.46875 -0.125 1.453125 -0.25q1.984375 -0.234375 2.921875 -0.5625q0.015625 -0.34375 0.015625 -0.421875q0 -1.0 -0.46875 -1.421875q-0.625 -0.546875 -1.875 -0.546875q-1.15625 0 -1.703125 0.40625q-0.546875 0.40625 -0.8125 1.421875l-1.609375 -0.21875q0.21875 -1.015625 0.71875 -1.640625q0.5 -0.640625 1.453125 -0.984375q0.953125 -0.34375 2.1875 -0.34375q1.25 0 2.015625 0.296875q0.78125 0.28125 1.140625 0.734375q0.375 0.4375 0.515625 1.109375q0.078125 0.421875 0.078125 1.515625l0 2.1875q0 2.28125 0.109375 2.890625q0.109375 0.59375 0.40625 1.15625l-1.703125 0q-0.265625 -0.515625 -0.328125 -1.1875zm-0.140625 -3.671875q-0.890625 0.375 -2.671875 0.625q-1.015625 0.140625 -1.4375 0.328125q-0.421875 0.1875 -0.65625 0.53125q-0.21875 0.34375 -0.21875 0.78125q0 0.65625 0.5 1.09375q0.5 0.4375 1.453125 0.4375q0.9375 0 1.671875 -0.40625q0.75 -0.421875 1.09375 -1.140625q0.265625 -0.5625 0.265625 -1.640625l0 -0.609375zm10.469482 4.859375l0 -1.21875q-0.90625 1.4375 -2.703125 1.4375q-1.15625 0 -2.125 -0.640625q-0.96875 -0.640625 -1.5 -1.78125q-0.53125 -1.140625 -0.53125 -2.625q0 -1.453125 0.484375 -2.625q0.484375 -1.1875 1.4375 -1.8125q0.96875 -0.625 2.171875 -0.625q0.875 0 1.546875 0.375q0.6875 0.359375 1.109375 0.953125l0 -4.796875l1.640625 0l0 13.359375l-1.53125 0zm-5.171875 -4.828125q0 1.859375 0.78125 2.78125q0.78125 0.921875 1.84375 0.921875q1.078125 0 1.828125 -0.875q0.75 -0.890625 0.75 -2.6875q0 -1.984375 -0.765625 -2.90625q-0.765625 -0.9375 -1.890625 -0.9375q-1.078125 0 -1.8125 0.890625q-0.734375 0.890625 -0.734375 2.8125zm14.668396 4.828125l0 -13.359375l4.609375 0q1.546875 0 2.375 0.203125q1.140625 0.25 1.953125 0.953125q1.0625 0.890625 1.578125 2.28125q0.53125 1.390625 0.53125 3.171875q0 1.515625 -0.359375 2.703125q-0.359375 1.171875 -0.921875 1.9375q-0.546875 0.765625 -1.203125 1.21875q-0.65625 0.4375 -1.59375 0.671875q-0.9375 0.21875 -2.140625 0.21875l-4.828125 0zm1.765625 -1.578125l2.859375 0q1.3125 0 2.0625 -0.234375q0.75 -0.25 1.203125 -0.703125q0.625 -0.625 0.96875 -1.6875q0.359375 -1.0625 0.359375 -2.578125q0 -2.09375 -0.6875 -3.21875q-0.6875 -1.125 -1.671875 -1.5q-0.703125 -0.28125 -2.28125 -0.28125l-2.8125 0l0 10.203125zm17.81668 0.390625q-0.921875 0.765625 -1.765625 1.09375q-0.828125 0.3125 -1.796875 0.3125q-1.59375 0 -2.453125 -0.78125q-0.859375 -0.78125 -0.859375 -1.984375q0 -0.71875 0.328125 -1.296875q0.328125 -0.59375 0.84375 -0.9375q0.53125 -0.359375 1.1875 -0.546875q0.46875 -0.125 1.453125 -0.25q1.984375 -0.234375 2.921875 -0.5625q0.015625 -0.34375 0.015625 -0.421875q0 -1.0 -0.46875 -1.421875q-0.625 -0.546875 -1.875 -0.546875q-1.15625 0 -1.703125 0.40625q-0.546875 0.40625 -0.8125 1.421875l-1.609375 -0.21875q0.21875 -1.015625 0.71875 -1.640625q0.5 -0.640625 1.453125 -0.984375q0.953125 -0.34375 2.1875 -0.34375q1.25 0 2.015625 0.296875q0.78125 0.28125 1.140625 0.734375q0.375 0.4375 0.515625 1.109375q0.078125 0.421875 0.078125 1.515625l0 2.1875q0 2.28125 0.109375 2.890625q0.109375 0.59375 0.40625 1.15625l-1.703125 0q-0.265625 -0.515625 -0.328125 -1.1875zm-0.140625 -3.671875q-0.890625 0.375 -2.671875 0.625q-1.015625 0.140625 -1.4375 0.328125q-0.421875 0.1875 -0.65625 0.53125q-0.21875 0.34375 -0.21875 0.78125q0 0.65625 0.5 1.09375q0.5 0.4375 1.453125 0.4375q0.9375 0 1.671875 -0.40625q0.75 -0.421875 1.09375 -1.140625q0.265625 -0.5625 0.265625 -1.640625l0 -0.609375zm7.7819824 3.390625l0.234375 1.453125q-0.6875 0.140625 -1.234375 0.140625q-0.890625 0 -1.390625 -0.28125q-0.484375 -0.28125 -0.6875 -0.734375q-0.203125 -0.46875 -0.203125 -1.9375l0 -5.578125l-1.203125 0l0 -1.265625l1.203125 0l0 -2.390625l1.625 -0.984375l0 3.375l1.65625 0l0 1.265625l-1.65625 0l0 5.671875q0 0.6875 0.078125 0.890625q0.09375 0.203125 0.28125 0.328125q0.203125 0.109375 0.578125 0.109375q0.265625 0 0.71875 -0.0625zm7.9176636 0.28125q-0.921875 0.765625 -1.765625 1.09375q-0.828125 0.3125 -1.796875 0.3125q-1.59375 0 -2.453125 -0.78125q-0.859375 -0.78125 -0.859375 -1.984375q0 -0.71875 0.328125 -1.296875q0.328125 -0.59375 0.84375 -0.9375q0.53125 -0.359375 1.1875 -0.546875q0.46875 -0.125 1.453125 -0.25q1.984375 -0.234375 2.921875 -0.5625q0.015625 -0.34375 0.015625 -0.421875q0 -1.0 -0.46875 -1.421875q-0.625 -0.546875 -1.875 -0.546875q-1.15625 0 -1.703125 0.40625q-0.546875 0.40625 -0.8125 1.421875l-1.609375 -0.21875q0.21875 -1.015625 0.71875 -1.640625q0.5 -0.640625 1.453125 -0.984375q0.953125 -0.34375 2.1875 -0.34375q1.25 0 2.015625 0.296875q0.78125 0.28125 1.140625 0.734375q0.375 0.4375 0.515625 1.109375q0.078125 0.421875 0.078125 1.515625l0 2.1875q0 2.28125 0.109375 2.890625q0.109375 0.59375 0.40625 1.15625l-1.703125 0q-0.265625 -0.515625 -0.328125 -1.1875zm-0.140625 -3.671875q-0.890625 0.375 -2.671875 0.625q-1.015625 0.140625 -1.4375 0.328125q-0.421875 0.1875 -0.65625 0.53125q-0.21875 0.34375 -0.21875 0.78125q0 0.65625 0.5 1.09375q0.5 0.4375 1.453125 0.4375q0.9375 0 1.671875 -0.40625q0.75 -0.421875 1.09375 -1.140625q0.265625 -0.5625 0.265625 -1.640625l0 -0.609375z" fill-rule="nonzero"/><path fill="#ffffff" d="m538.3793 46.15223l123.18109 0l0 62.645668l-123.18109 0z" fill-rule="evenodd"/><path stroke="#000000" stroke-width="1.0" stroke-linejoin="round" stroke-linecap="butt" d="m538.3793 46.15223l123.18109 0l0 62.645668l-123.18109 0z" fill-rule="evenodd"/><path fill="#000000" d="m579.0291 84.395065l0 -13.359375l1.78125 0l0 11.78125l6.5625 0l0 1.578125l-8.34375 0zm9.641357 -4.84375q0 -2.6875 1.484375 -3.96875q1.25 -1.078125 3.046875 -1.078125q2.0 0 3.265625 1.3125q1.265625 1.296875 1.265625 3.609375q0 1.859375 -0.5625 2.9375q-0.5625 1.0625 -1.640625 1.65625q-1.0625 0.59375 -2.328125 0.59375q-2.03125 0 -3.28125 -1.296875q-1.25 -1.3125 -1.25 -3.765625zm1.6875 0q0 1.859375 0.796875 2.796875q0.8125 0.921875 2.046875 0.921875q1.21875 0 2.03125 -0.921875q0.8125 -0.9375 0.8125 -2.84375q0 -1.796875 -0.8125 -2.71875q-0.8125 -0.921875 -2.03125 -0.921875q-1.234375 0 -2.046875 0.921875q-0.796875 0.90625 -0.796875 2.765625zm8.985107 5.640625l1.59375 0.234375q0.109375 0.75 0.5625 1.078125q0.609375 0.453125 1.671875 0.453125q1.140625 0 1.75 -0.453125q0.625 -0.453125 0.84375 -1.265625q0.125 -0.5 0.109375 -2.109375q-1.0625 1.265625 -2.671875 1.265625q-2.0 0 -3.09375 -1.4375q-1.09375 -1.4375 -1.09375 -3.453125q0 -1.390625 0.5 -2.5625q0.515625 -1.171875 1.453125 -1.796875q0.953125 -0.640625 2.25 -0.640625q1.703125 0 2.8125 1.375l0 -1.15625l1.515625 0l0 8.359375q0 2.265625 -0.46875 3.203125q-0.453125 0.9375 -1.453125 1.484375q-0.984375 0.546875 -2.453125 0.546875q-1.71875 0 -2.796875 -0.78125q-1.0625 -0.765625 -1.03125 -2.34375zm1.359375 -5.8125q0 1.90625 0.75 2.78125q0.765625 0.875 1.90625 0.875q1.125 0 1.890625 -0.859375q0.765625 -0.875 0.765625 -2.734375q0 -1.78125 -0.796875 -2.671875q-0.78125 -0.90625 -1.890625 -0.90625q-1.09375 0 -1.859375 0.890625q-0.765625 0.875 -0.765625 2.625zm9.328796 -6.453125l0 -1.890625l1.640625 0l0 1.890625l-1.640625 0zm0 11.46875l0 -9.671875l1.640625 0l0 9.671875l-1.640625 0zm10.457336 -3.546875l1.609375 0.21875q-0.265625 1.65625 -1.359375 2.609375q-1.078125 0.9375 -2.671875 0.9375q-1.984375 0 -3.1875 -1.296875q-1.203125 -1.296875 -1.203125 -3.71875q0 -1.578125 0.515625 -2.75q0.515625 -1.171875 1.578125 -1.75q1.0625 -0.59375 2.3125 -0.59375q1.578125 0 2.578125 0.796875q1.0 0.796875 1.28125 2.265625l-1.59375 0.234375q-0.234375 -0.96875 -0.8125 -1.453125q-0.578125 -0.5 -1.390625 -0.5q-1.234375 0 -2.015625 0.890625q-0.78125 0.890625 -0.78125 2.8125q0 1.953125 0.75 2.84375q0.75 0.875 1.953125 0.875q0.96875 0 1.609375 -0.59375q0.65625 -0.59375 0.828125 -1.828125z" fill-rule="nonzero"/><path fill="#ffffff" d="m690.13 46.15223l123.18109 0l0 62.645668l-123.18109 0z" fill-rule="evenodd"/><path stroke="#000000" stroke-width="1.0" stroke-linejoin="round" stroke-linecap="butt" d="m690.13 46.15223l123.18109 0l0 62.645668l-123.18109 0z" fill-rule="evenodd"/><path fill="#000000" d="m722.5951 84.395065l0 -13.359375l5.921875 0q1.78125 0 2.703125 0.359375q0.9375 0.359375 1.484375 1.28125q0.5625 0.90625 0.5625 2.015625q0 1.40625 -0.921875 2.390625q-0.921875 0.96875 -2.84375 1.234375q0.703125 0.34375 1.078125 0.671875q0.765625 0.703125 1.453125 1.765625l2.328125 3.640625l-2.21875 0l-1.765625 -2.78125q-0.78125 -1.203125 -1.28125 -1.828125q-0.5 -0.640625 -0.90625 -0.890625q-0.390625 -0.265625 -0.796875 -0.359375q-0.296875 -0.078125 -0.984375 -0.078125l-2.046875 0l0 5.9375l-1.765625 0zm1.765625 -7.453125l3.796875 0q1.21875 0 1.890625 -0.25q0.6875 -0.265625 1.046875 -0.8125q0.359375 -0.546875 0.359375 -1.1875q0 -0.953125 -0.6875 -1.5625q-0.6875 -0.609375 -2.1875 -0.609375l-4.21875 0l0 4.421875zm18.0979 4.34375l1.6875 0.203125q-0.40625 1.484375 -1.484375 2.3125q-1.078125 0.8125 -2.765625 0.8125q-2.125 0 -3.375 -1.296875q-1.234375 -1.3125 -1.234375 -3.671875q0 -2.453125 1.25 -3.796875q1.265625 -1.34375 3.265625 -1.34375q1.9375 0 3.15625 1.328125q1.234375 1.3125 1.234375 3.703125q0 0.15625 0 0.4375l-7.21875 0q0.09375 1.59375 0.90625 2.453125q0.8125 0.84375 2.015625 0.84375q0.90625 0 1.546875 -0.46875q0.640625 -0.484375 1.015625 -1.515625zm-5.390625 -2.65625l5.40625 0q-0.109375 -1.21875 -0.625 -1.828125q-0.78125 -0.953125 -2.03125 -0.953125q-1.125 0 -1.90625 0.765625q-0.765625 0.75 -0.84375 2.015625zm9.141357 5.765625l0 -9.671875l1.46875 0l0 1.375q1.0625 -1.59375 3.078125 -1.59375q0.875 0 1.609375 0.3125q0.734375 0.3125 1.09375 0.828125q0.375 0.5 0.515625 1.203125q0.09375 0.453125 0.09375 1.59375l0 5.953125l-1.640625 0l0 -5.890625q0 -1.0 -0.203125 -1.484375q-0.1875 -0.5 -0.671875 -0.796875q-0.484375 -0.296875 -1.140625 -0.296875q-1.046875 0 -1.8125 0.671875q-0.75 0.65625 -0.75 2.515625l0 5.28125l-1.640625 0zm16.641357 0l0 -1.21875q-0.90625 1.4375 -2.703125 1.4375q-1.15625 0 -2.125 -0.640625q-0.96875 -0.640625 -1.5 -1.78125q-0.53125 -1.140625 -0.53125 -2.625q0 -1.453125 0.484375 -2.625q0.484375 -1.1875 1.4375 -1.8125q0.96875 -0.625 2.171875 -0.625q0.875 0 1.546875 0.375q0.6875 0.359375 1.109375 0.953125l0 -4.796875l1.640625 0l0 13.359375l-1.53125 0zm-5.171875 -4.828125q0 1.859375 0.78125 2.78125q0.78125 0.921875 1.84375 0.921875q1.078125 0 1.828125 -0.875q0.75 -0.890625 0.75 -2.6875q0 -1.984375 -0.765625 -2.90625q-0.765625 -0.9375 -1.890625 -0.9375q-1.078125 0 -1.8125 0.890625q-0.734375 0.890625 -0.734375 2.8125zm15.906982 1.71875l1.6875 0.203125q-0.40625 1.484375 -1.484375 2.3125q-1.078125 0.8125 -2.765625 0.8125q-2.125 0 -3.375 -1.296875q-1.234375 -1.3125 -1.234375 -3.671875q0 -2.453125 1.25 -3.796875q1.265625 -1.34375 3.265625 -1.34375q1.9375 0 3.15625 1.328125q1.234375 1.3125 1.234375 3.703125q0 0.15625 0 0.4375l-7.21875 0q0.09375 1.59375 0.90625 2.453125q0.8125 0.84375 2.015625 0.84375q0.90625 0 1.546875 -0.46875q0.640625 -0.484375 1.015625 -1.515625zm-5.390625 -2.65625l5.40625 0q-0.109375 -1.21875 -0.625 -1.828125q-0.78125 -0.953125 -2.03125 -0.953125q-1.125 0 -1.90625 0.765625q-0.765625 0.75 -0.84375 2.015625zm9.125671 5.765625l0 -9.671875l1.46875 0l0 1.46875q0.5625 -1.03125 1.03125 -1.359375q0.484375 -0.328125 1.0625 -0.328125q0.828125 0 1.6875 0.53125l-0.5625 1.515625q-0.609375 -0.359375 -1.203125 -0.359375q-0.546875 0 -0.96875 0.328125q-0.421875 0.328125 -0.609375 0.890625q-0.28125 0.875 -0.28125 1.921875l0 5.0625l-1.625 0z" fill-rule="nonzero"/><path fill="#000000" fill-opacity="0.0" d="m690.13 77.47507c-7.1448364 0 -7.3255615 -14.1866455 -14.289734 -28.16148c-6.9642334 -13.974834 -20.711914 -27.737862 -37.941772 -28.161476c-17.229797 -0.4236145 -37.94171 12.4921875 -37.94171 24.984371" fill-rule="evenodd"/><path stroke="#000000" stroke-width="1.0" stroke-linejoin="round" stroke-linecap="butt" d="m685.2122 74.03772l-0.15979004 -0.27949524c-0.25842285 -0.46627808 -0.5064087 -0.9704056 -0.7473755 -1.5088577c-0.48187256 -1.0768967 -0.93548584 -2.2910995 -1.3876343 -3.614479c-1.8088379 -5.293518 -3.5950928 -12.333881 -7.0771484 -19.3213c-6.9642334 -13.974834 -20.711914 -27.737862 -37.94171 -28.161476c-17.229858 -0.4236126 -37.941772 12.4921875 -37.941772 24.984371" fill-rule="evenodd"/><path fill="#000000" stroke="#000000" stroke-width="1.0" stroke-linecap="butt" d="m684.2659 75.39153l4.6658325 1.2460251l-2.7733154 -3.9536514z" fill-rule="evenodd"/><path fill="#000000" fill-opacity="0.0" d="m538.3793 77.47507c-7.1448975 0 -7.3255615 -14.1866455 -14.289795 -28.16148c-6.9641724 -13.974834 -20.711914 -27.737862 -37.94171 -28.161476c-17.229828 -0.4236145 -37.941742 12.4921875 -37.941742 24.984371" fill-rule="evenodd"/><path stroke="#000000" stroke-width="1.0" stroke-linejoin="round" stroke-linecap="butt" d="m533.4614 74.03774l-0.159729 -0.27951813c-0.25842285 -0.46627808 -0.5064697 -0.9704056 -0.7473755 -1.5088577c-0.48187256 -1.0768967 -0.93548584 -2.2910995 -1.3876953 -3.614479c-1.8088379 -5.293518 -3.5950317 -12.333881 -7.0771484 -19.3213c-6.9641724 -13.974834 -20.711884 -27.737862 -37.94171 -28.161476c-17.229828 -0.4236126 -37.941742 12.4921875 -37.941742 24.984371" fill-rule="evenodd"/><path fill="#000000" stroke="#000000" stroke-width="1.0" stroke-linecap="butt" d="m532.5152 75.391556l4.6658325 1.2460022l-2.7733154 -3.9536285z" fill-rule="evenodd"/><path fill="#000000" fill-opacity="0.0" d="m386.62848 77.47507c-7.144867 0 -7.3255615 -14.1866455 -14.289764 -28.16148c-6.964203 -13.974834 -20.711914 -27.737862 -37.941742 -28.161476c-17.229797 -0.4236145 -37.94171 12.4921875 -37.94171 24.984371" fill-rule="evenodd"/><path stroke="#000000" stroke-width="1.0" stroke-linejoin="round" stroke-linecap="butt" d="m381.71066 74.03774l-0.15975952 -0.27951813c-0.25842285 -0.46627808 -0.5064392 -0.9704056 -0.7473755 -1.5088577c-0.48187256 -1.0768967 -0.93548584 -2.2910995 -1.3876953 -3.614479c-1.8088074 -5.293518 -3.5950623 -12.333881 -7.077118 -19.3213c-6.964203 -13.974834 -20.711914 -27.737862 -37.941742 -28.161476c-17.229828 -0.4236126 -37.94171 12.4921875 -37.94171 24.984371" fill-rule="evenodd"/><path fill="#000000" stroke="#000000" stroke-width="1.0" stroke-linecap="butt" d="m380.76443 75.391556l4.6658325 1.2460022l-2.7733154 -3.9536285z" fill-rule="evenodd"/><path fill="#ffffff" d="m27.725456 63.47999l0 0c-1.0464001 -6.7453766 2.3891373 -13.422886 8.848785 -17.19902c6.4596443 -3.7761345 14.81052 -3.9886398 21.50904 -0.5473442l0 0c2.3728218 -3.922039 6.7157745 -6.629936 11.715202 -7.3046074c4.999428 -0.67466736 10.0681305 0.763134 13.672913 3.878498l0 0c2.0213394 -3.555973 5.9902725 -5.945133 10.498413 -6.319683c4.508148 -0.37454605 8.917488 1.3185234 11.663361 4.478428l0 0c3.6518402 -3.7693253 9.462013 -5.356365 14.91642 -4.0744057c5.4544144 1.2819633 9.573395 5.202675 10.574646 10.065624l0 0c4.474121 1.070507 8.2009735 3.79187 10.217667 7.4609756c2.0166779 3.6691093 2.125351 7.926033 0.29794312 11.6709175l0 0c4.405716 5.029793 5.43631 11.731926 2.7072144 17.605286c-2.7290955 5.8733597 -8.807892 10.035538 -15.96788 10.933289c-0.050460815 5.5123596 -3.4969025 10.570435 -9.01091 13.224625c-5.514015 2.6541824 -12.234558 2.4900208 -17.571243 -0.42920685c-2.2731476 6.6019974 -8.671295 11.459694 -16.430214 12.474365c-7.758911 1.014679 -15.487648 -1.9955597 -19.847115 -7.730179c-5.343792 2.8266144 -11.755901 3.6408691 -17.789879 2.2590942c-6.0339813 -1.3817749 -11.1815605 -4.8432007 -14.281548 -9.603432l0 0c-5.4606857 0.5605316 -10.740414 -1.9211807 -13.218876 -6.2134705c-2.4784603 -4.2922897 -1.628048 -9.48143 2.129179 -12.992065l0 0c-4.871073 -2.514862 -7.3565874 -7.505165 -6.160446 -12.368675c1.1961422 -4.86351 5.802889 -8.498131 11.418005 -9.008556z" fill-rule="evenodd"/><path fill="#000000" fill-opacity="0.0" d="m22.359955 85.117195l0 0c2.2986736 1.1867676 4.9541817 1.7251129 7.6099777 1.5427551m3.4785233 17.663216c1.1420898 -0.11723328 2.2615547 -0.36549377 3.329525 -0.7383728m28.740307 8.082397c-0.80327606 -1.0566559 -1.4758148 -2.1857834 -2.0061646 -3.3681488m38.284874 -1.3762436l0 0c0.4144287 -1.2036438 0.68294525 -2.4424515 0.80106354 -3.695755m25.780098 -9.09919c0.053726196 -5.868759 -3.7463226 -11.242249 -9.767914 -13.812408m23.028442 -14.725548c-0.97517395 1.9984207 -2.4638977 3.7711945 -4.3494263 5.1793213m-6.165268 -24.311737l0 0c0.16615295 0.80700684 0.24305725 1.6261444 0.22962952 2.4460564m-25.72026 -8.437035l0 0c-0.91095734 0.940258 -1.6614609 1.9909859 -2.2281494 3.1194649m-19.93383 -1.2786179l0 0c-0.48545837 0.8540306 -0.84796906 1.75774 -1.0791779 2.6903114m-24.309315 0.73587036l0 0c1.4174042 0.7281761 2.728695 1.6046143 3.9050636 2.6100616m-34.262497 15.1363945l0 0c0.14422035 0.9296875 0.37209702 1.8479156 0.68149567 2.7460785" fill-rule="evenodd"/><path stroke="#000000" stroke-width="1.0" stroke-linejoin="round" stroke-linecap="butt" d="m27.725456 63.47999l0 0c-1.0464001 -6.7453766 2.3891373 -13.422886 8.848785 -17.19902c6.4596443 -3.7761345 14.81052 -3.9886398 21.50904 -0.5473442l0 0c2.3728218 -3.922039 6.7157745 -6.629936 11.715202 -7.3046074c4.999428 -0.67466736 10.0681305 0.763134 13.672913 3.878498l0 0c2.0213394 -3.555973 5.9902725 -5.945133 10.498413 -6.319683c4.508148 -0.37454605 8.917488 1.3185234 11.663361 4.478428l0 0c3.6518402 -3.7693253 9.462013 -5.356365 14.91642 -4.0744057c5.4544144 1.2819633 9.573395 5.202675 10.574646 10.065624l0 0c4.474121 1.070507 8.2009735 3.79187 10.217667 7.4609756c2.0166779 3.6691093 2.125351 7.926033 0.29794312 11.6709175l0 0c4.405716 5.029793 5.43631 11.731926 2.7072144 17.605286c-2.7290955 5.8733597 -8.807892 10.035538 -15.96788 10.933289c-0.050460815 5.5123596 -3.4969025 10.570435 -9.01091 13.224625c-5.514015 2.6541824 -12.234558 2.4900208 -17.571243 -0.42920685c-2.2731476 6.6019974 -8.671295 11.459694 -16.430214 12.474365c-7.758911 1.014679 -15.487648 -1.9955597 -19.847115 -7.730179c-5.343792 2.8266144 -11.755901 3.6408691 -17.789879 2.2590942c-6.0339813 -1.3817749 -11.1815605 -4.8432007 -14.281548 -9.603432l0 0c-5.4606857 0.5605316 -10.740414 -1.9211807 -13.218876 -6.2134705c-2.4784603 -4.2922897 -1.628048 -9.48143 2.129179 -12.992065l0 0c-4.871073 -2.514862 -7.3565874 -7.505165 -6.160446 -12.368675c1.1961422 -4.86351 5.802889 -8.498131 11.418005 -9.008556z" fill-rule="evenodd"/><path stroke="#000000" stroke-width="1.0" stroke-linejoin="round" stroke-linecap="butt" d="m22.359955 85.117195l0 0c2.2986736 1.1867676 4.9541817 1.7251129 7.6099777 1.5427551m3.4785233 17.663216c1.1420898 -0.11723328 2.2615547 -0.36549377 3.329525 -0.7383728m28.740307 8.082397c-0.80327606 -1.0566559 -1.4758148 -2.1857834 -2.0061646 -3.3681488m38.284874 -1.3762436l0 0c0.4144287 -1.2036438 0.68294525 -2.4424515 0.80106354 -3.695755m25.780098 -9.09919c0.053726196 -5.868759 -3.7463226 -11.242249 -9.767914 -13.812408m23.028442 -14.725548c-0.97517395 1.9984207 -2.4638977 3.7711945 -4.3494263 5.1793213m-6.165268 -24.311737l0 0c0.16615295 0.80700684 0.24305725 1.6261444 0.22962952 2.4460564m-25.72026 -8.437035l0 0c-0.91095734 0.940258 -1.6614609 1.9909859 -2.2281494 3.1194649m-19.93383 -1.2786179l0 0c-0.48545837 0.8540306 -0.84796906 1.75774 -1.0791779 2.6903114m-24.309315 0.73587036l0 0c1.4174042 0.7281761 2.728695 1.6046143 3.9050636 2.6100616m-34.262497 15.1363945l0 0c0.14422035 0.9296875 0.37209702 1.8479156 0.68149567 2.7460785" fill-rule="evenodd"/><path fill="#000000" fill-opacity="0.0" d="m141.89607 46.1835l96.755905 -0.031497955l0 31.338585l-96.755905 0.03149414z" fill-rule="evenodd"/><path fill="#000000" d="m161.74277 70.53704l0 -11.453125l5.078125 -0.0016555786q1.53125 -4.9591064E-4 2.328125 0.3117447q0.796875 0.2966156 1.265625 1.077713q0.484375 0.7810898 0.484375 1.7342148q0 1.21875 -0.796875 2.0627594q-0.78125 0.82837677 -2.4375 1.0476685q0.609375 0.29667664 0.921875 0.57782745q0.65625 0.6091614 1.25 1.515213l2.0 3.1243515l-1.90625 6.2561035E-4l-1.515625 -2.3901367q-0.671875 -1.0310287 -1.109375 -1.5777664q-0.421875 -0.5467377 -0.765625 -0.76537323q-0.328125 -0.21864319 -0.6875 -0.29665375q-0.25 -0.062416077 -0.84375 -0.06222534l-1.75 5.722046E-4l0 5.09375l-1.515625 4.9591064E-4zm1.515625 -6.406746l3.25 -0.0010604858q1.046875 -3.3569336E-4 1.625 -0.20365143q0.59375 -0.21894073 0.890625 -0.6877899q0.3125 -0.48447418 0.3125 -1.0313492q0 -0.8125 -0.59375 -1.3279343q-0.59375 -0.53105545 -1.859375 -0.53064346l-3.625 0.0011787415l0 3.78125zm15.5078125 3.7293243l1.453125 0.17140198q-0.34375 1.2813644 -1.28125 1.9847946q-0.921875 0.7034302 -2.359375 0.70389557q-1.828125 5.950928E-4 -2.890625 -1.1240616q-1.0625 -1.1246567 -1.0625 -3.1402817q0 -2.09375 1.078125 -3.2503471q1.078125 -1.156601 2.796875 -1.1571617q1.65625 -5.378723E-4 2.703125 1.1397476q1.0625 1.124649 1.0625 3.171524q0 0.125 0 0.375l-6.1875 0.0020141602q0.078125 1.3749771 0.765625 2.1091309q0.703125 0.7185211 1.734375 0.7181854q0.78125 -2.5177002E-4 1.328125 -0.40668488q0.546875 -0.40642548 0.859375 -1.2971573zm-4.609375 -2.279747l4.625 -0.0015029907q-0.09375 -1.0468445 -0.53125 -1.5623322q-0.671875 -0.81227875 -1.734375 -0.8119316q-0.96875 3.1661987E-4 -1.640625 0.65678406q-0.65625 0.6408348 -0.71875 1.7189827zm13.1171875 8.13636l0 -4.078125q-0.328125 0.4688568 -0.921875 0.78154755q-0.578125 0.29706573 -1.25 0.29727936q-1.46875 4.8065186E-4 -2.546875 -1.1710434q-1.0625 -1.1871567 -1.0625 -3.2496567q0 -1.25 0.4375 -2.23452q0.4375 -1.0001373 1.25 -1.5004044q0.828125 -0.515892 1.8125 -0.51621246q1.546875 -5.0354004E-4 2.421875 1.2960854l0 -1.109375l1.265625 -4.119873E-4l0 11.484379l-1.40625 4.5776367E-4zm-4.328125 -7.357971q0 1.59375 0.671875 2.4060364q0.671875 0.79665375 1.609375 0.7963486q0.890625 -2.89917E-4 1.53125 -0.7661209q0.65625 -0.76584625 0.65625 -2.3127213q0 -1.65625 -0.6875 -2.484146q-0.671875 -0.84353256 -1.59375 -0.8432312q-0.921875 2.975464E-4 -1.5625 0.78175735q-0.625 0.7658272 -0.625 2.4220772zm13.3828125 4.1675186l0 -1.21875q-0.96875 1.4065704 -2.640625 1.4071121q-0.734375 2.3651123E-4 -1.375 -0.28079987q-0.625 -0.28105164 -0.9375 -0.7028198q-0.3125 -0.43740082 -0.4375 -1.0467377q-0.078125 -0.4218521 -0.078125 -1.3124771l0 -5.140621l1.40625 -4.5776367E-4l0 4.593746q0 1.109375 0.078125 1.4843521q0.140625 0.5624542 0.5625 0.8748169q0.4375 0.31236267 1.0625 0.31215668q0.640625 -2.0599365E-4 1.1875 -0.3128891q0.5625 -0.3283081 0.78125 -0.89087677q0.234375 -0.5625763 0.234375 -1.6250763l0 -4.4375l1.40625 -4.5776367E-4l0 8.296875l-1.25 4.043579E-4zm9.1328125 -2.6748505l1.453125 0.17140198q-0.34375 1.2813644 -1.28125 1.9847946q-0.921875 0.7034302 -2.359375 0.70389557q-1.828125 5.950928E-4 -2.890625 -1.1240616q-1.0625 -1.124649 -1.0625 -3.1402817q0 -2.09375 1.078125 -3.2503471q1.078125 -1.156601 2.796875 -1.1571617q1.65625 -5.378723E-4 2.703125 1.1397476q1.0625 1.124649 1.0625 3.171524q0 0.125 0 0.375l-6.1875 0.0020141602q0.078125 1.3749771 0.765625 2.1091309q0.703125 0.7185211 1.734375 0.7181854q0.78125 -2.5177002E-4 1.328125 -0.40668488q0.546875 -0.40642548 0.859375 -1.2971573zm-4.609375 -2.279747l4.625 -0.0015029907q-0.09375 -1.0468445 -0.53125 -1.5623322q-0.671875 -0.81227875 -1.734375 -0.8119316q-0.96875 3.1661987E-4 -1.640625 0.65678406q-0.65625 0.6408348 -0.71875 1.7189827zm7.2734375 2.466385l1.390625 -0.21920776q0.109375 0.8437195 0.640625 1.296669q0.546875 0.43732452 1.5 0.43701172q0.96875 -3.1280518E-4 1.4375 -0.3910904q0.46875 -0.4064026 0.46875 -0.9376526q0 -0.46875 -0.40625 -0.7498703q-0.296875 -0.18740082 -1.4375 -0.4682846q-1.546875 -0.39012146 -2.15625 -0.6711731q-0.59375 -0.29667664 -0.90625 -0.79657745q-0.296875 -0.49990082 -0.296875 -1.1092758q0 -0.5625 0.25 -1.0313339q0.25 -0.4688301 0.6875 -0.78147125q0.328125 -0.2501068 0.890625 -0.40653992q0.578125 -0.17206573 1.21875 -0.17227173q0.984375 -3.2043457E-4 1.71875 0.28068924q0.734375 0.28100967 1.078125 0.76527405q0.359375 0.46863174 0.5 1.281086l-1.375 0.18795013q-0.09375 -0.6405945 -0.546875 -0.9998245q-0.453125 -0.35922623 -1.265625 -0.358963q-0.96875 3.1661987E-4 -1.390625 0.32857895q-0.40625 0.3126335 -0.40625 0.7345085q0 0.28125 0.171875 0.49993896q0.171875 0.2186966 0.53125 0.37483215q0.21875 0.078048706 1.25 0.358963q1.484375 0.39014435 2.078125 0.6555786q0.59375 0.24980164 0.921875 0.7340698q0.34375 0.4842682 0.34375 1.2030182q0 0.703125 -0.421875 1.3282623q-0.40625 0.6095047 -1.1875 0.9535141q-0.765625 0.34399414 -1.734375 0.34431458q-1.625 5.264282E-4 -2.46875 -0.6710739q-0.84375 -0.67160034 -1.078125 -1.999649zm11.625 1.2149658l0.203125 1.2499313q-0.59375 0.12519836 -1.0625 0.12535095q-0.765625 2.4414062E-4 -1.1875 -0.23399353q-0.421875 -0.24986267 -0.59375 -0.64042664q-0.171875 -0.4061966 -0.171875 -1.6718216l0 -4.765625l-1.03125 3.3569336E-4l0 -1.09375l1.03125 -3.3569336E-4l0 -2.0625l1.40625 -0.84420776l0 2.90625l1.40625 -4.5776367E-4l0 1.09375l-1.40625 4.5776367E-4l0 4.84375q0 0.609375 0.0625 0.7812271q0.078125 0.17185211 0.25 0.2811737q0.171875 0.093688965 0.484375 0.09358978q0.234375 -7.6293945E-5 0.609375 -0.062698364z" fill-rule="nonzero"/><path fill="#000000" fill-opacity="0.0" d="m145.68234 77.47507l89.19685 0" fill-rule="evenodd"/><path stroke="#000000" stroke-width="1.0" stroke-linejoin="round" stroke-linecap="butt" d="m145.68234 77.47507l83.19685 0" fill-rule="evenodd"/><path fill="#000000" stroke="#000000" stroke-width="1.0" stroke-linecap="butt" d="m228.87921 79.1268l4.538086 -1.6517334l-4.538086 -1.6517334z" fill-rule="evenodd"/><path fill="#000000" fill-opacity="0.0" d="m813.3111 77.47507l99.52759 0" fill-rule="evenodd"/><path stroke="#000000" stroke-width="1.0" stroke-linejoin="round" stroke-linecap="butt" d="m813.3111 77.47507l93.52759 0" fill-rule="evenodd"/><path fill="#000000" stroke="#000000" stroke-width="1.0" stroke-linecap="butt" d="m906.8387 79.1268l4.538086 -1.6517334l-4.538086 -1.6517334z" fill-rule="evenodd"/><path fill="#000000" fill-opacity="0.0" d="m814.6791 46.1835l96.75592 -0.031497955l0 31.338585l-96.75592 0.03149414z" fill-rule="evenodd"/><path fill="#000000" d="m828.29926 70.53907l0 -11.453129l5.078125 -0.0016517639q1.53125 -4.9972534E-4 2.328125 0.31174088q0.796875 0.2966156 1.265625 1.077713q0.484375 0.7810936 0.484375 1.7342186q0 1.21875 -0.796875 2.0627594q-0.78125 0.82837677 -2.4375 1.0476685q0.609375 0.29667664 0.921875 0.5778198q0.65625 0.6091614 1.25 1.5152206l2.0 3.1243515l-1.90625 6.1798096E-4l-1.515625 -2.390129q-0.671875 -1.0310364 -1.109375 -1.5777664q-0.421875 -0.5467377 -0.765625 -0.76537323q-0.328125 -0.21864319 -0.6875 -0.29665375q-0.25 -0.062416077 -0.84375 -0.06222534l-1.75 5.722046E-4l0 5.09375l-1.515625 4.9591064E-4zm1.515625 -6.406746l3.25 -0.0010604858q1.046875 -3.4332275E-4 1.625 -0.20365143q0.59375 -0.21894455 0.890625 -0.6877899q0.3125 -0.484478 0.3125 -1.031353q0 -0.8125 -0.59375 -1.3279305q-0.59375 -0.53105927 -1.859375 -0.5306473l-3.625 0.0011825562l0 3.78125zm15.5078125 3.7293243l1.453125 0.17140198q-0.34375 1.2813644 -1.28125 1.9847946q-0.921875 0.70342255 -2.359375 0.70389557q-1.828125 5.950928E-4 -2.890625 -1.1240616q-1.0625 -1.1246567 -1.0625 -3.1402817q0 -2.09375 1.078125 -3.250351q1.078125 -1.156601 2.796875 -1.1571579q1.65625 -5.41687E-4 2.703125 1.1397438q1.0625 1.1246529 1.0625 3.1715279q0 0.125 0 0.375l-6.1875 0.0020141602q0.078125 1.3749771 0.765625 2.1091309q0.703125 0.7185211 1.734375 0.7181854q0.78125 -2.593994E-4 1.328125 -0.40668488q0.546875 -0.40642548 0.859375 -1.2971573zm-4.609375 -2.279747l4.625 -0.0015106201q-0.09375 -1.0468445 -0.53125 -1.5623245q-0.671875 -0.81227875 -1.734375 -0.8119354q-0.96875 3.1661987E-4 -1.640625 0.65678406q-0.65625 0.6408386 -0.71875 1.7189865zm7.2734375 2.4663773l1.390625 -0.21920013q0.109375 0.8437195 0.640625 1.296669q0.546875 0.43732452 1.5 0.43701172q0.96875 -3.1280518E-4 1.4375 -0.3910904q0.46875 -0.4064026 0.46875 -0.9376602q0 -0.46875 -0.40625 -0.7498627q-0.296875 -0.18740845 -1.4375 -0.4682846q-1.546875 -0.39012146 -2.15625 -0.6711731q-0.59375 -0.29668427 -0.90625 -0.79657745q-0.296875 -0.49990845 -0.296875 -1.1092834q0 -0.5624962 0.25 -1.0313263q0.25 -0.46883392 0.6875 -0.78147507q0.328125 -0.2501068 0.890625 -0.40653992q0.578125 -0.17206192 1.21875 -0.17227173q0.984375 -3.2043457E-4 1.71875 0.28068924q0.734375 0.2810135 1.078125 0.76527405q0.359375 0.46863556 0.5 1.2810898l-1.375 0.1879425q-0.09375 -0.64059067 -0.546875 -0.9998169q-0.453125 -0.35923004 -1.265625 -0.358963q-0.96875 3.1280518E-4 -1.390625 0.32857513q-0.40625 0.3126335 -0.40625 0.7345047q0 0.28125 0.171875 0.4999466q0.171875 0.2186966 0.53125 0.37482452q0.21875 0.078056335 1.25 0.35897064q1.484375 0.39014435 2.078125 0.655571q0.59375 0.24980927 0.921875 0.73407745q0.34375 0.48426056 0.34375 1.2030106q0 0.7031326 -0.421875 1.32827q-0.40625 0.6095047 -1.1875 0.95350647q-0.765625 0.34400177 -1.734375 0.34431458q-1.625 5.340576E-4 -2.46875 -0.6710663q-0.84375 -0.67160034 -1.078125 -1.9996567zm8.5625 5.6690903l0 -11.484375l1.28125 -4.15802E-4l0 1.078125q0.453125 -0.6407738 1.015625 -0.9534569q0.578125 -0.31268692 1.390625 -0.31295013q1.0625 -3.4713745E-4 1.875 0.54626465q0.8125 0.546608 1.21875 1.5464783q0.421875 0.9842377 0.421875 2.1717377q0 1.28125 -0.46875 2.2970276q-0.453125 1.01577 -1.328125 1.5629349q-0.859375 0.54714966 -1.828125 0.5474701q-0.703125 2.2888184E-4 -1.265625 -0.296463q-0.546875 -0.29669952 -0.90625 -0.7497101l0 4.046875l-1.40625 4.5776367E-4zm1.265625 -7.297287q0 1.609375 0.640625 2.374794q0.65625 0.7654114 1.578125 0.76511383q0.9375 -3.0517578E-4 1.609375 -0.7974014q0.671875 -0.79709625 0.671875 -2.4533463q0 -1.59375 -0.65625 -2.3747864q-0.65625 -0.7966614 -1.5625 -0.79636383q-0.890625 2.89917E-4 -1.59375 0.8442688q-0.6875 0.84397125 -0.6875 2.4377213zm7.1015625 -0.049186707q0 -2.296875 1.28125 -3.4066658q1.078125 -0.92222595 2.609375 -0.9227257q1.71875 -5.569458E-4 2.796875 1.1240921q1.09375 1.1090164 1.09375 3.0933914q0 1.59375 -0.484375 2.5157852q-0.484375 0.9220352 -1.40625 1.4379578q-0.90625 0.50029755 -2.0 0.5006485q-1.734375 5.645752E-4 -2.8125 -1.1084595q-1.078125 -1.124649 -1.078125 -3.234024zm1.453125 -4.7302246E-4q0 1.59375 0.6875 2.3904037q0.703125 0.7966461 1.75 0.7963028q1.046875 -3.3569336E-4 1.734375 -0.7974396q0.703125 -0.7971039 0.703125 -2.437729q0 -1.53125 -0.703125 -2.327896q-0.6875 -0.79664993 -1.734375 -0.7963104q-1.046875 3.4332275E-4 -1.75 0.7974472q-0.6875 0.78147125 -0.6875 2.3752213zm7.9765625 4.153656l0 -8.296875l1.265625 -4.119873E-4l0 1.171875q0.90625 -1.3596725 2.640625 -1.3602371q0.75 -2.4414062E-4 1.375 0.26517868q0.625 0.26542282 0.9375 0.7028198q0.3125 0.437397 0.4375 1.0467339q0.078125 0.39059448 0.078125 1.3593445l0 5.1093826l-1.40625 4.5776367E-4l0 -5.0468826q0 -0.859375 -0.171875 -1.281189q-0.15625 -0.4374504 -0.578125 -0.6873131q-0.40625 -0.24986649 -0.96875 -0.24968338q-0.90625 2.937317E-4 -1.5625 0.57863235q-0.640625 0.5627098 -0.640625 2.1564598l0 4.53125l-1.40625 4.5776367E-4zm8.3359375 -2.487091l1.390625 -0.21920013q0.109375 0.84371185 0.640625 1.296669q0.546875 0.4373169 1.5 0.43701172q0.96875 -3.2043457E-4 1.4375 -0.39109802q0.46875 -0.4064026 0.46875 -0.9376526q0 -0.46875 -0.40625 -0.7498703q-0.296875 -0.18740082 -1.4375 -0.46827698q-1.546875 -0.39012146 -2.15625 -0.6711731q-0.59375 -0.29668427 -0.90625 -0.7965851q-0.296875 -0.49990082 -0.296875 -1.1092758q0 -0.5625 0.25 -1.0313301q0.25 -0.4688301 0.6875 -0.78147507q0.328125 -0.2501068 0.890625 -0.40653992q0.578125 -0.17206192 1.21875 -0.17227173q0.984375 -3.2043457E-4 1.71875 0.28069305q0.734375 0.28100967 1.078125 0.76527405q0.359375 0.46863174 0.5 1.2810822l-1.375 0.18795013q-0.09375 -0.6405945 -0.546875 -0.9998207q-0.453125 -0.35922623 -1.265625 -0.358963q-0.96875 3.1661987E-4 -1.390625 0.32857895q-0.40625 0.3126297 -0.40625 0.7345047q0 0.28125 0.171875 0.4999466q0.171875 0.21868896 0.53125 0.37482452q0.21875 0.078056335 1.25 0.35897064q1.484375 0.39013672 2.078125 0.655571q0.59375 0.24980927 0.921875 0.73407745q0.34375 0.48426056 0.34375 1.2030106q0 0.703125 -0.421875 1.3282623q-0.40625 0.6095123 -1.1875 0.9535141q-0.765625 0.34400177 -1.734375 0.34431458q-1.625 5.264282E-4 -2.46875 -0.6710739q-0.84375 -0.67160034 -1.078125 -1.999649zm14.234375 -0.19213104l1.453125 0.17140198q-0.34375 1.2813644 -1.28125 1.9847946q-0.921875 0.70342255 -2.359375 0.70388794q-1.828125 5.950928E-4 -2.890625 -1.124054q-1.0625 -1.1246567 -1.0625 -3.1402817q0 -2.09375 1.078125 -3.250351q1.078125 -1.156601 2.796875 -1.1571617q1.65625 -5.378723E-4 2.703125 1.1397438q1.0625 1.1246567 1.0625 3.1715317q0 0.125 0 0.375l-6.1875 0.0020141602q0.078125 1.3749695 0.765625 2.1091232q0.703125 0.7185211 1.734375 0.7181854q0.78125 -2.5177002E-4 1.328125 -0.40667725q0.546875 -0.4064331 0.859375 -1.2971573zm-4.609375 -2.2797546l4.625 -0.0015029907q-0.09375 -1.0468445 -0.53125 -1.5623245q-0.671875 -0.81228256 -1.734375 -0.8119354q-0.96875 3.1280518E-4 -1.640625 0.65678406q-0.65625 0.6408386 -0.71875 1.7189789z" fill-rule="nonzero"/><path fill="#ffffff" d="m912.8207 77.47507l0 0c0 -10.019402 8.129395 -18.141735 18.157532 -18.141735l0 0c4.815613 0 9.434082 1.9113579 12.839233 5.313595c3.4052124 3.4022293 5.3182373 8.016655 5.3182373 12.82814l0 0c0 10.019402 -8.129395 18.141731 -18.15747 18.141731l0 0c-10.028137 0 -18.157532 -8.12233 -18.157532 -18.141731z" fill-rule="evenodd"/><path stroke="#000000" stroke-width="1.0" stroke-linejoin="round" stroke-linecap="butt" d="m912.8207 77.47507l0 0c0 -10.019402 8.129395 -18.141735 18.157532 -18.141735l0 0c4.815613 0 9.434082 1.9113579 12.839233 5.313595c3.4052124 3.4022293 5.3182373 8.016655 5.3182373 12.82814l0 0c0 10.019402 -8.129395 18.141731 -18.15747 18.141731l0 0c-10.028137 0 -18.157532 -8.12233 -18.157532 -18.141731z" fill-rule="evenodd"/><path fill="#000000" d="m917.9736 77.47582l0 0c0 -7.175354 5.8167725 -12.992126 12.992126 -12.992126l0 0c3.4457397 0 6.750305 1.3688126 9.186829 3.8053055c2.4364624 2.4365005 3.8052979 5.7410965 3.8052979 9.186821l0 0c0 7.175354 -5.8167725 12.992126 -12.992126 12.992126l0 0c-7.175354 0 -12.992126 -5.8167725 -12.992126 -12.992126z" fill-rule="evenodd"/><path stroke="#000000" stroke-width="1.0" stroke-linejoin="round" stroke-linecap="butt" d="m917.9736 77.47582l0 0c0 -7.175354 5.8167725 -12.992126 12.992126 -12.992126l0 0c3.4457397 0 6.750305 1.3688126 9.186829 3.8053055c2.4364624 2.4365005 3.8052979 5.7410965 3.8052979 9.186821l0 0c0 7.175354 -5.8167725 12.992126 -12.992126 12.992126l0 0c-7.175354 0 -12.992126 -5.8167725 -12.992126 -12.992126z" fill-rule="evenodd"/><path fill="#000000" fill-opacity="0.0" d="m448.21902 108.7979c0 15.556717 -62.733 20.993011 -119.18826 31.113434c-56.45526 10.120422 -106.63278 24.924973 -119.18826 44.789734c-12.555481 19.864777 12.511093 44.78975 25.022202 44.78975" fill-rule="evenodd"/><path stroke="#999999" stroke-width="1.0" stroke-linejoin="round" stroke-linecap="butt" d="m448.21902 108.7979c0 15.556717 -62.733 20.993011 -119.18826 31.113434c-56.45526 10.120422 -106.6328 24.924973 -119.18826 44.78975c-6.2777405 9.932373 -3.1499481 21.129807 3.111145 29.844147c3.1305237 4.3571625 7.044403 8.093567 10.957611 10.740677c0.97828674 0.6617737 1.956543 1.2554779 2.9225159 1.7737732c0.4829712 0.25914 0.96287537 0.49943542 1.4381714 0.71995544c0.23765564 0.11027527 0.47416687 0.21559143 0.70932007 0.31585693l0.043624878 0.018188477" fill-rule="evenodd"/><path fill="#999999" stroke="#999999" stroke-width="1.0" stroke-linecap="butt" d="m228.64578 229.72131l4.796051 -0.56604004l-4.037842 -2.649231z" fill-rule="evenodd"/><path fill="#000000" fill-opacity="0.0" d="m813.3111 229.47507c12.506592 0 47.68579 -21.756516 25.013184 -38.000168c-22.672607 -16.243652 -103.19702 -26.974457 -195.05774 -38.000168c-91.86072 -11.025696 -195.05777 -22.346283 -195.05777 -44.69258" fill-rule="evenodd"/><path stroke="#999999" stroke-width="1.0" stroke-linejoin="round" stroke-linecap="butt" d="m813.3111 229.47507c12.506592 0 47.68579 -21.7565 25.013245 -38.000168c-22.672668 -16.243668 -103.19714 -26.974457 -195.0578 -38.000168c-45.93036 -5.512848 -94.694824 -11.099426 -131.97668 -18.101059c-18.6409 -3.500824 -34.411194 -7.355423 -45.52124 -11.731445c-5.555023 -2.1880188 -9.945007 -4.5063934 -12.9461975 -6.976082c-0.7503357 -0.617424 -1.4138184 -1.2443085 -1.98703 -1.8809662c-0.07165527 -0.079589844 -0.14190674 -0.15932465 -0.21072388 -0.23921967l-0.16882324 -0.20048523" fill-rule="evenodd"/><path fill="#999999" stroke="#999999" stroke-width="1.0" stroke-linecap="butt" d="m451.98737 113.726875l-3.2311096 -3.5892181l0.1680603 4.826416z" fill-rule="evenodd"/><path fill="#000000" fill-opacity="0.0" d="m189.27174 150.73878l90.45671 -34.299217l11.118103 29.291344l-90.456696 34.29921z" fill-rule="evenodd"/><path fill="#999999" d="m216.46683 166.4794l-4.064331 -10.707718l4.7482452 -1.8004303q1.431778 -0.54289246 2.2877808 -0.53326416q0.85046387 -0.0049743652 1.5659943 0.5592346q0.7301483 0.55867004 1.0683899 1.4497681q0.43247986 1.1394196 -0.013198853 2.210785q-0.43663025 1.0512238 -1.9076538 1.8429565q0.6751404 0.06149292 1.0671387 0.21365356q0.8298645 0.33703613 1.7066498 0.97380066l2.9790344 2.2125244l-1.7824249 0.6758423l-2.2655182 -1.6976776q-0.9941864 -0.72592163 -1.5973358 -1.0820923q-0.5885315 -0.36169434 -0.98757935 -0.44433594q-0.3844452 -0.08818054 -0.7481842 -0.033813477q-0.25595093 0.030212402 -0.8111267 0.24072266l-1.636322 0.6204529l1.8076019 4.7622375l-1.41716 0.5373535zm-0.8562012 -6.5266724l3.0388794 -1.1522675q0.9788666 -0.37117004 1.4473572 -0.766037q0.47755432 -0.41503906 0.5887909 -0.9585266q0.12031555 -0.5636444 -0.07374573 -1.0749359q-0.28833008 -0.75961304 -1.0264893 -1.0311737q-0.7436981 -0.28616333 -1.9271088 0.16256714l-3.389511 1.2852173l1.3418274 3.5351562zm15.825607 -2.006897l1.4197235 -0.35450745q0.133255 1.3197327 -0.49383545 2.3094788q-0.61247253 0.98420715 -1.9565887 1.4938812q-1.7093658 0.6481476 -3.102066 -0.026931763q-1.3927002 -0.67507935 -2.1079865 -2.5595093q-0.7429962 -1.957489 -0.1452179 -3.4207306q0.59776306 -1.4632416 2.2048645 -2.0726166q1.5486603 -0.58721924 2.9322968 0.10800171q1.3927002 0.67507935 2.1190643 2.5887299q0.0443573 0.116867065 0.13308716 0.3506012l-5.785553 2.193756q0.5609894 1.2578125 1.4644318 1.7006378q0.9125061 0.42268372 1.87677 0.057052612q0.73049927 -0.2769928 1.0976868 -0.85069275q0.36717224 -0.57369995 0.34332275 -1.5171509zm-5.1194763 -0.49855042l4.3245544 -1.6397705q-0.45916748 -0.94551086 -1.0512238 -1.2724609q-0.91656494 -0.5214081 -1.9100342 -0.1446991q-0.90582275 0.34346008 -1.3011627 1.195221q-0.3862915 0.831604 -0.06213379 1.8617096zm15.1539 2.9601593l-1.4471893 -3.8126984q-0.14045715 0.5545654 -0.5847473 1.057251q-0.43521118 0.48251343 -1.063446 0.72073364q-1.3733368 0.5207367 -2.797287 -0.19262695q-1.4148712 -0.73350525 -2.1467896 -2.6617737q-0.44358826 -1.1686401 -0.38381958 -2.2440643q0.05419922 -1.0900269 0.63648987 -1.8455658q0.59135437 -0.7756653 1.5117798 -1.1246796q1.4463959 -0.5484314 2.724762 0.35380554l-0.39367676 -1.0371704l1.1834106 -0.44873047l4.075409 10.736938l-1.3148956 0.49858093zm-6.658554 -5.345886q0.565567 1.490036 1.482132 2.011444q0.91101074 0.50679016 1.7876129 0.17440796q0.8327637 -0.31576538 1.16008 -1.2586975q0.34191895 -0.9484558 -0.20701599 -2.3946686q-0.58773804 -1.5484467 -1.5244598 -2.0789337q-0.9276428 -0.5506134 -1.7896271 -0.22377014q-0.8619995 0.32684326 -1.1837616 1.284378q-0.31271362 0.9373932 0.27503967 2.4858398zm13.9938965 -0.84446716l-0.43247986 -1.1394196q-0.40679932 1.6581879 -1.9700623 2.250946q-0.68666077 0.26037598 -1.3854828 0.22454834q-0.6842041 -0.04135132 -1.1261139 -0.32496643q-0.44744873 -0.29823303 -0.7805786 -0.8236389q-0.22276306 -0.36671448 -0.53881836 -1.1993713l-1.824234 -4.806061l1.3148956 -0.49858093l1.6301727 4.2947845q0.39367676 1.0371704 0.59980774 1.3600616q0.33110046 0.47602844 0.83647156 0.6186218q0.51997375 0.13703918 1.1043701 -0.08454895q0.598999 -0.22712708 0.99946594 -0.71318054q0.40951538 -0.5062103 0.41444397 -1.1096497q0.01953125 -0.60899353 -0.35751343 -1.6023407l-1.5747223 -4.148697l1.3148956 -0.49858093l2.9442902 7.756897l-1.168808 0.44317627zm7.5913696 -5.735977l1.4197388 -0.3545227q0.13323975 1.3197479 -0.49383545 2.309494q-0.6124878 0.98420715 -1.9565887 1.493866q-1.7093658 0.64816284 -3.1020813 -0.026916504q-1.3927002 -0.67507935 -2.1079712 -2.5595245q-0.7430115 -1.9574738 -0.14523315 -3.4207153q0.5977783 -1.4632416 2.2048798 -2.0726166q1.548645 -0.58721924 2.9322968 0.10800171q1.3926849 0.67507935 2.1190643 2.5887299q0.04437256 0.116867065 0.13308716 0.3506012l-5.785568 2.193756q0.5609894 1.2578125 1.4644318 1.7006378q0.91252136 0.42268372 1.87677 0.057052612q0.73049927 -0.2769928 1.0976868 -0.85069275q0.3671875 -0.57369995 0.34332275 -1.5171509zm-5.1194763 -0.49855042l4.3245544 -1.6397705q-0.45915222 -0.94551086 -1.0512085 -1.2724609q-0.91656494 -0.5214081 -1.9100494 -0.1446991q-0.9058075 0.34346008 -1.3011627 1.195221q-0.38627625 0.83158875 -0.06213379 1.8617096zm7.6770325 -0.27069092l1.2226562 -0.69755554q0.40170288 0.75006104 1.0592346 0.9853363q0.66659546 0.21513367 1.5578003 -0.122787476q0.90582275 -0.34347534 1.2055054 -0.8748627q0.29412842 -0.54600525 0.10562134 -1.0426788q-0.16635132 -0.43824768 -0.6460266 -0.5571594q-0.3441162 -0.07003784 -1.5104675 0.07142639q-1.5849915 0.18322754 -2.2545776 0.13633728q-0.660553 -0.06704712 -1.130188 -0.42370605q-0.4550171 -0.36219788 -0.67126465 -0.9319153q-0.19961548 -0.52589417 -0.13220215 -1.0527649q0.06741333 -0.526886 0.3656006 -0.9741516q0.21810913 -0.35006714 0.68862915 -0.69558716q0.47955322 -0.36566162 1.0785828 -0.5927887q0.92041016 -0.34901428 1.7068787 -0.34643555q0.786499 0.0025787354 1.2797852 0.33355713q0.5023804 0.31082153 0.9222107 1.0205841l-1.2191467 0.662796q-0.31500244 -0.5656891 -0.86621094 -0.74102783q-0.551239 -0.17532349 -1.3109436 0.11274719q-0.90582275 0.34346008 -1.1838379 0.7998047q-0.26898193 0.436203 -0.119262695 0.8306122q0.09979248 0.2629547 0.33813477 0.40652466q0.23834229 0.14356995 0.6298218 0.1622467q0.23226929 -0.0045166016 1.2963257 -0.10720825q1.5265808 -0.16107178 2.1759949 -0.12324524q0.6439209 0.023223877 1.1226196 0.35972595q0.49328613 0.3309784 0.74835205 1.0029602q0.24951172 0.6573639 0.07684326 1.3912506q-0.16360474 0.7137604 -0.77212524 1.3121185q-0.5939026 0.5928345 -1.4997253 0.93629456q-1.5194397 0.57614136 -2.546814 0.2471466q-1.0273438 -0.32901 -1.717804 -1.4875946zm11.302307 -2.9821777l0.6335144 1.0966339q-0.5108032 0.32737732 -0.9491272 0.49357605q-0.71588135 0.2714386 -1.193512 0.2019043q-0.4831848 -0.08416748 -0.78253174 -0.38842773q-0.3048706 -0.31886292 -0.7539978 -1.502121l-1.6911621 -4.455475l-0.9642639 0.3656311l-0.38812256 -1.0225677l0.9642639 -0.36561584l-0.7319336 -1.9282684l1.0155029 -1.2874146l1.031311 2.717102l1.3149109 -0.49858093l0.38812256 1.0225525l-1.3148804 0.49858093l1.7188721 4.5285187q0.21624756 0.56970215 0.33569336 0.7082367q0.1340332 0.1329956 0.33355713 0.1743164q0.19396973 0.02670288 0.48617554 -0.08409119q0.21914673 -0.083099365 0.5476074 -0.27449036z" fill-rule="nonzero"/><path fill="#000000" fill-opacity="0.0" d="m603.15765 119.28503l96.28345 9.732277l-3.1810913 31.181107l-96.28345 -9.732285z" fill-rule="evenodd"/><path fill="#999999" d="m614.24536 144.8899l1.1624756 -11.393982l5.052368 0.5106964q1.5234985 0.1539917 2.284607 0.5450134q0.7626953 0.37548828 1.1497803 1.1998444q0.4025879 0.82592773 0.3059082 1.7741241q-0.12371826 1.2124634 -1.0021973 1.9717102q-0.8613281 0.74528503 -2.531372 0.79634094q0.57611084 0.35662842 0.8585205 0.6678467q0.59106445 0.67222595 1.0898438 1.6335144l1.6726685 3.3099976l-1.8966064 -0.19171143l-1.2652588 -2.5307007q-0.5638428 -1.0934906 -0.9436035 -1.6815491q-0.3642578 -0.58647156 -0.684021 -0.8386688q-0.30426025 -0.25061035 -0.65393066 -0.36447144q-0.2423706 -0.08732605 -0.8331299 -0.14703369l-1.7410889 -0.17599487l-0.5169678 5.067444l-1.5079956 -0.15242004zm2.158142 -6.220749l3.2335205 0.32684326q1.041565 0.105285645 1.6373901 -0.038650513q0.6129761 -0.15791321 0.9558716 -0.59439087q0.36010742 -0.45043945 0.41558838 -0.9944916q0.082458496 -0.80830383 -0.45593262 -1.3809814q-0.5368042 -0.58821106 -1.7960205 -0.7154999l-3.6066284 -0.36454773l-0.38378906 3.7617188zm15.050171 5.2746735l1.4283447 0.3171234q-0.4720459 1.2400665 -1.4761353 1.8452759q-0.9885864 0.606781 -2.4188232 0.46221924q-1.8188477 -0.18385315 -2.7617798 -1.4098969q-0.9429321 -1.2260437 -0.7383423 -3.2312622q0.21252441 -2.0829315 1.4025269 -3.1247864q1.1900024 -1.0418549 2.9000244 -0.8690033q1.6478271 0.16654968 2.5736694 1.4065704q0.9429321 1.2260437 0.73516846 3.2623596q-0.0126953125 0.12434387 -0.038024902 0.37306213l-6.156128 -0.6222687q-0.061828613 1.3757629 0.5476074 2.1754913q0.62664795 0.78575134 1.6526489 0.8894501q0.7772827 0.078567505 1.3626099 -0.2705841q0.58532715 -0.3491516 0.9866333 -1.2037506zm-4.354431 -2.7330322l4.6015625 0.46513367q0.012939453 -1.0509033 -0.36999512 -1.6078644q-0.58599854 -0.87586975 -1.6431274 -0.98272705q-0.96380615 -0.09742737 -1.6989136 0.48786926q-0.71795654 0.5713196 -0.88952637 1.6375885zm6.985962 3.1874847l1.4058228 -0.07777405q0.02319336 0.8503876 0.5057373 1.354599q0.49969482 0.49024963 1.447998 0.5860901q0.96380615 0.09742737 1.4698486 -0.24403381q0.5076294 -0.3570099 0.56152344 -0.88552856q0.047546387 -0.46632385 -0.32806396 -0.78697205q-0.2763672 -0.21638489 -1.3826294 -0.6109009q-1.4993896 -0.5441742 -2.0771484 -0.8852539q-0.5606079 -0.35505676 -0.8208008 -0.8838959q-0.24456787 -0.5272827 -0.18273926 -1.1334991q0.05706787 -0.55960083 0.35339355 -1.0007935q0.29632568 -0.44117737 0.76330566 -0.70806885q0.35180664 -0.2157135 0.9273071 -0.31459045q0.59265137 -0.112838745 1.2300415 -0.048416138q0.9793701 0.09899902 1.6815186 0.45265198q0.7020874 0.3536377 0.9949341 0.87008667q0.30999756 0.5024719 0.36743164 1.3249207l-1.387085 0.04824829q-0.028259277 -0.6467438 -0.44256592 -1.0498352q-0.41436768 -0.40309143 -1.2227783 -0.48480225q-0.96380615 -0.09741211 -1.4168701 0.18658447q-0.4359131 0.2700348 -0.47869873 0.6897278q-0.028564453 0.27980042 0.12023926 0.5147095q0.14880371 0.2348938 0.49047852 0.42648315q0.2097168 0.09971619 1.2072144 0.4832306q1.4371948 0.5378876 2.0009766 0.8618469q0.56536865 0.3084259 0.84265137 0.8233032q0.29284668 0.5164337 0.21990967 1.2314758q-0.0713501 0.6994934 -0.5545044 1.2788391q-0.46606445 0.5653839 -1.2782593 0.8287811q-0.79663086 0.26498413 -1.760437 0.16755676q-1.6167603 -0.16342163 -2.3880615 -0.916687q-0.77130127 -0.7532501 -0.86968994 -2.0980835zm7.9434814 6.5036926l1.1655884 -11.425079l1.2747192 0.12884521l-0.109436035 1.0725555q0.51586914 -0.59173584 1.1072388 -0.8460541q0.6069336 -0.25274658 1.4152832 -0.17103577q1.0571289 0.10684204 1.8099976 0.732605q0.75286865 0.62576294 1.055542 1.6614532q0.31988525 1.0217285 0.19934082 2.2030945q-0.13006592 1.2746277 -0.6995239 2.2378693q-0.55389404 0.96481323 -1.4799194 1.4208679q-0.91052246 0.45762634 -1.8743896 0.36019897q-0.69958496 -0.07070923 -1.229065 -0.42262268q-0.51397705 -0.35032654 -0.8255615 -0.837265l-0.41070557 4.0259857l-1.3991089 -0.14141846zm1.9997559 -7.1319275q-0.16333008 1.6010742 0.3963623 2.4271698q0.5751953 0.82766724 1.4923706 0.92037964q0.9328003 0.09428406 1.6821289 -0.6309204q0.7493286 -0.7251892 0.91741943 -2.372879q0.16174316 -1.5855255 -0.41186523 -2.4287415q-0.5720215 -0.8587494 -1.4736938 -0.94989014q-0.8861084 -0.08956909 -1.6713257 0.67910767q-0.7696533 0.7702637 -0.9313965 2.355774zm7.0703125 0.66755676q0.2331543 -2.285019 1.6204834 -3.2598114q1.1661987 -0.8086853 2.6896973 -0.6546936q1.710022 0.1728363 2.668518 1.4004517q0.975647 1.2136536 0.77423096 3.1877747q-0.16174316 1.5855255 -0.73724365 2.4539337q-0.5755005 0.86839294 -1.545044 1.2886505q-0.9523926 0.40628052 -2.0405884 0.2962799q-1.7255859 -0.17442322 -2.685669 -1.3864899q-0.95843506 -1.2276154 -0.74438477 -3.3260956zm1.4458008 0.14613342q-0.1618042 1.5855255 0.4413452 2.4474182q0.6187134 0.8634796 1.6602783 0.96875q1.041565 0.105285645 1.8064575 -0.6183319q0.7803955 -0.7220459 0.94696045 -2.3542023q0.15539551 -1.523346 -0.46331787 -2.3868103q-0.6030884 -0.86190796 -1.6446533 -0.9671936q-1.041626 -0.105270386 -1.8220215 0.6167755q-0.76330566 0.70806885 -0.9250488 2.2935944zm7.514282 4.936966l0.842041 -8.254028l1.2592163 0.12727356l-0.118896484 1.1658325q1.0396118 -1.2612152 2.7651978 -1.0868073q0.7461548 0.07543945 1.3410645 0.4025421q0.59484863 0.32710266 0.86138916 0.79377747q0.2664795 0.46665955 0.32904053 1.0854645q0.038024902 0.39646912 -0.0602417 1.3602142l-0.5186157 5.0829926l-1.3991089 -0.14141846l0.51220703 -5.0208282q0.08721924 -0.8549347 -0.04095459 -1.2919159q-0.11102295 -0.45095825 -0.5053711 -0.7420807q-0.3788452 -0.28956604 -0.93847656 -0.34614563q-0.90167236 -0.09112549 -1.6132812 0.41801453q-0.694458 0.49516296 -0.8562012 2.0806885l-0.4598999 4.5078583l-1.3991089 -0.14143372zm8.545837 -1.6332245l1.4057617 -0.07777405q0.02319336 0.85040283 0.5057373 1.3546143q0.49969482 0.49023438 1.447998 0.5860901q0.96380615 0.09742737 1.4698486 -0.24404907q0.5076294 -0.3570099 0.56152344 -0.8855133q0.047607422 -0.46632385 -0.32806396 -0.7869873q-0.2763672 -0.21638489 -1.3826294 -0.6108856q-1.4993896 -0.5441742 -2.0771484 -0.8852539q-0.5606079 -0.35505676 -0.82073975 -0.88391113q-0.2446289 -0.52726746 -0.1828003 -1.1334991q0.05706787 -0.5595856 0.35339355 -1.0007782q0.29632568 -0.44119263 0.76330566 -0.7080841q0.35186768 -0.21569824 0.92736816 -0.3145752q0.59259033 -0.112854004 1.2299805 -0.048431396q0.9793701 0.09899902 1.6815186 0.45265198q0.7020874 0.35365295 0.9949341 0.8701019q0.30999756 0.5024719 0.36743164 1.3249054l-1.387085 0.04826355q-0.028259277 -0.6467438 -0.44256592 -1.0498352q-0.41436768 -0.40309143 -1.2227783 -0.48480225q-0.96380615 -0.09742737 -1.4168701 0.18658447q-0.4359131 0.27001953 -0.47869873 0.6897278q-0.028564453 0.27980042 0.12023926 0.5146942q0.14880371 0.23490906 0.49047852 0.4264984q0.2097168 0.09971619 1.2072144 0.4832306q1.4371948 0.5378876 2.0009766 0.8618469q0.56536865 0.3084259 0.84265137 0.82328796q0.29284668 0.516449 0.21990967 1.2314911q-0.0713501 0.6994934 -0.5545044 1.2788391q-0.46606445 0.56536865 -1.2782593 0.8287811q-0.79663086 0.26496887 -1.760437 0.16755676q-1.6167603 -0.16342163 -2.3880615 -0.916687q-0.77124023 -0.7532654 -0.8696289 -2.0980988zm14.181213 1.2449799l1.4282837 0.3171234q-0.4720459 1.2400665 -1.4761353 1.8452759q-0.9885254 0.606781 -2.4187622 0.46221924q-1.8188477 -0.18385315 -2.7617798 -1.4098969q-0.9429321 -1.2260437 -0.7384033 -3.2312622q0.21252441 -2.0829315 1.4025269 -3.1247864q1.1900024 -1.0418549 2.9000854 -0.8690033q1.6478271 0.16656494 2.5736084 1.4065704q0.9429321 1.2260437 0.7352295 3.2623596q-0.0126953125 0.12434387 -0.038085938 0.37306213l-6.156128 -0.6222687q-0.061828613 1.3757629 0.54766846 2.1754913q0.6265869 0.78575134 1.6526489 0.8894501q0.7772827 0.078567505 1.3626099 -0.2705841q0.58532715 -0.3491516 0.9866333 -1.2037506zm-4.354492 -2.733017l4.6015625 0.4651184q0.013000488 -1.0509033 -0.36999512 -1.6078644q-0.58599854 -0.87586975 -1.6430664 -0.98272705q-0.9638672 -0.09741211 -1.6989136 0.48786926q-0.71795654 0.5713196 -0.8895874 1.6376038z" fill-rule="nonzero"/><path fill="#000000" fill-opacity="0.0" d="m1007.91406 -1.0l0 138.99213l-42.86615 0l0 -138.99213z" fill-rule="evenodd"/><path fill="#0000ff" d="m980.9941 32.69204l13.359375 0l0 9.015625l-1.578125 0l0 -7.25l-4.140625 0l0 6.265625l-1.578125 0l0 -6.265625l-6.0625 0l0 -1.765625zm0 11.083481l9.671875 0l0 1.46875l-1.46875 0q1.03125 0.5625 1.359375 1.03125q0.328125 0.484375 0.328125 1.0625q0 0.828125 -0.53125 1.6875l-1.515625 -0.5625q0.359375 -0.609375 0.359375 -1.203125q0 -0.546875 -0.328125 -0.96875q-0.328125 -0.421875 -0.890625 -0.609375q-0.875 -0.28125 -1.921875 -0.28125l-5.0625 0l0 -1.625zm4.84375 5.618927q2.6875 0 3.96875 1.484375q1.078125 1.25 1.078125 3.046875q0 2.0 -1.3125 3.265625q-1.296875 1.265625 -3.609375 1.265625q-1.859375 0 -2.9375 -0.5625q-1.0625 -0.5625 -1.65625 -1.640625q-0.59375 -1.0625 -0.59375 -2.328125q0 -2.03125 1.296875 -3.28125q1.3125 -1.25 3.765625 -1.25zm0 1.6875q-1.859375 0 -2.796875 0.796875q-0.921875 0.8125 -0.921875 2.046875q0 1.21875 0.921875 2.03125q0.9375 0.8125 2.84375 0.8125q1.796875 0 2.71875 -0.8125q0.921875 -0.8125 0.921875 -2.03125q0 -1.234375 -0.921875 -2.046875q-0.90625 -0.796875 -2.765625 -0.796875zm-4.84375 9.297592l9.671875 0l0 1.46875l-1.375 0q1.59375 1.0625 1.59375 3.078125q0 0.875 -0.3125 1.609375q-0.3125 0.734375 -0.828125 1.09375q-0.5 0.375 -1.203125 0.515625q-0.453125 0.09375 -1.59375 0.09375l-5.953125 0l0 -1.640625l5.890625 0q1.0 0 1.484375 -0.203125q0.5 -0.1875 0.796875 -0.671875q0.296875 -0.484375 0.296875 -1.140625q0 -1.046875 -0.671875 -1.8125q-0.65625 -0.75 -2.515625 -0.75l-5.28125 0l0 -1.640625zm1.46875 13.953842l-1.453125 0.234375q-0.140625 -0.6875 -0.140625 -1.234375q0 -0.890625 0.28125 -1.390625q0.28125 -0.484375 0.734375 -0.6875q0.46875 -0.203125 1.9375 -0.203125l5.578125 0l0 -1.203125l1.265625 0l0 1.203125l2.390625 0l0.984375 1.625l-3.375 0l0 1.65625l-1.265625 0l0 -1.65625l-5.671875 0q-0.6875 0 -0.890625 0.078125q-0.203125 0.09375 -0.328125 0.28125q-0.109375 0.203125 -0.109375 0.578125q0 0.265625 0.0625 0.71875zm1.640625 8.230179l-0.203125 1.6875q-1.484375 -0.40625 -2.3125 -1.484375q-0.8125 -1.078125 -0.8125 -2.765625q0 -2.125 1.296875 -3.375q1.3125 -1.234375 3.671875 -1.234375q2.453125 0 3.796875 1.25q1.34375 1.265625 1.34375 3.265625q0 1.9375 -1.328125 3.15625q-1.3125 1.234375 -3.703125 1.234375q-0.15625 0 -0.4375 0l0 -7.21875q-1.59375 0.09375 -2.453125 0.90625q-0.84375 0.8125 -0.84375 2.015625q0 0.90625 0.46875 1.546875q0.484375 0.640625 1.515625 1.015625zm2.65625 -5.390625l0 5.40625q1.21875 -0.109375 1.828125 -0.625q0.953125 -0.78125 0.953125 -2.03125q0 -1.125 -0.765625 -1.90625q-0.75 -0.765625 -2.015625 -0.84375zm-5.765625 9.141342l9.671875 0l0 1.46875l-1.375 0q1.59375 1.0625 1.59375 3.078125q0 0.875 -0.3125 1.609375q-0.3125 0.734375 -0.828125 1.09375q-0.5 0.375 -1.203125 0.515625q-0.453125 0.09375 -1.59375 0.09375l-5.953125 0l0 -1.640625l5.890625 0q1.0 0 1.484375 -0.203125q0.5 -0.1875 0.796875 -0.671875q0.296875 -0.484375 0.296875 -1.140625q0 -1.046875 -0.671875 -1.8125q-0.65625 -0.75 -2.515625 -0.75l-5.28125 0l0 -1.640625zm0 16.641342l1.21875 0q-1.4375 -0.90625 -1.4375 -2.703125q0 -1.15625 0.640625 -2.125q0.640625 -0.96875 1.78125 -1.5q1.140625 -0.53125 2.625 -0.53125q1.453125 0 2.625 0.484375q1.1875 0.484375 1.8125 1.4375q0.625 0.96875 0.625 2.171875q0 0.875 -0.375 1.546875q-0.359375 0.6875 -0.953125 1.109375l4.796875 0l0 1.640625l-13.359375 0l0 -1.53125zm4.828125 -5.171875q-1.859375 0 -2.78125 0.78125q-0.921875 0.78125 -0.921875 1.84375q0 1.078125 0.875 1.828125q0.890625 0.75 2.6875 0.75q1.984375 0 2.90625 -0.765625q0.9375 -0.765625 0.9375 -1.890625q0 -1.078125 -0.890625 -1.8125q-0.890625 -0.734375 -2.8125 -0.734375z" fill-rule="nonzero"/><path fill="#000000" fill-opacity="0.0" d="m1007.91406 158.00787l0 138.99213l-42.86615 0l0 -138.99213z" fill-rule="evenodd"/><path fill="#0000ff" d="m980.9941 192.56197l13.359375 0l0 5.015625q0 1.53125 -0.40625 2.453125q-0.40625 0.921875 -1.25 1.4375q-0.84375 0.53125 -1.765625 0.53125q-0.859375 0 -1.625 -0.46875q-0.75 -0.453125 -1.203125 -1.390625q-0.359375 1.203125 -1.21875 1.859375q-0.859375 0.65625 -2.015625 0.65625q-0.9375 0 -1.75 -0.40625q-0.796875 -0.390625 -1.234375 -0.984375q-0.4375 -0.578125 -0.671875 -1.453125q-0.21875 -0.875 -0.21875 -2.15625l0 -5.09375zm7.75 1.78125l0 2.875q0 1.1875 0.140625 1.6875q0.203125 0.671875 0.671875 1.015625q0.46875 0.34375 1.171875 0.34375q0.65625 0 1.15625 -0.328125q0.515625 -0.3125 0.703125 -0.90625q0.1875 -0.59375 0.1875 -2.03125l0 -2.65625l-4.03125 0zm-6.171875 0l0 3.3125q0 0.859375 0.0625 1.203125q0.109375 0.609375 0.359375 1.015625q0.265625 0.421875 0.75 0.6875q0.484375 0.265625 1.125 0.265625q0.75 0 1.296875 -0.390625q0.546875 -0.375 0.765625 -1.0625q0.234375 -0.671875 0.234375 -1.953125l0 -3.078125l-4.59375 0zm-0.390625 16.849823q-0.765625 -0.921875 -1.09375 -1.765625q-0.3125 -0.828125 -0.3125 -1.796875q0 -1.59375 0.78125 -2.453125q0.78125 -0.859375 1.984375 -0.859375q0.71875 0 1.296875 0.328125q0.59375 0.328125 0.9375 0.84375q0.359375 0.53125 0.546875 1.1875q0.125 0.46875 0.25 1.453125q0.234375 1.984375 0.5625 2.921875q0.34375 0.015625 0.421875 0.015625q1.0 0 1.421875 -0.46875q0.546875 -0.625 0.546875 -1.875q0 -1.15625 -0.40625 -1.703125q-0.40625 -0.546875 -1.421875 -0.8125l0.21875 -1.609375q1.015625 0.21875 1.640625 0.71875q0.640625 0.5 0.984375 1.453125q0.34375 0.953125 0.34375 2.1875q0 1.25 -0.296875 2.015625q-0.28125 0.78125 -0.734375 1.140625q-0.4375 0.375 -1.109375 0.515625q-0.421875 0.078125 -1.515625 0.078125l-2.1875 0q-2.28125 0 -2.890625 0.109375q-0.59375 0.109375 -1.15625 0.40625l0 -1.703125q0.515625 -0.265625 1.1875 -0.328125zm3.671875 -0.140625q-0.375 -0.890625 -0.625 -2.671875q-0.140625 -1.015625 -0.328125 -1.4375q-0.1875 -0.421875 -0.53125 -0.65625q-0.34375 -0.21875 -0.78125 -0.21875q-0.65625 0 -1.09375 0.5q-0.4375 0.5 -0.4375 1.453125q0 0.9375 0.40625 1.671875q0.421875 0.75 1.140625 1.09375q0.5625 0.265625 1.640625 0.265625l0.609375 0zm-1.3125 10.516342l-0.21875 1.609375q-1.65625 -0.265625 -2.609375 -1.359375q-0.9375 -1.078125 -0.9375 -2.671875q0 -1.984375 1.296875 -3.1875q1.296875 -1.203125 3.71875 -1.203125q1.578125 0 2.75 0.515625q1.171875 0.515625 1.75 1.578125q0.59375 1.0625 0.59375 2.3125q0 1.578125 -0.796875 2.578125q-0.796875 1.0 -2.265625 1.28125l-0.234375 -1.59375q0.96875 -0.234375 1.453125 -0.8125q0.5 -0.578125 0.5 -1.390625q0 -1.234375 -0.890625 -2.015625q-0.890625 -0.78125 -2.8125 -0.78125q-1.953125 0 -2.84375 0.75q-0.875 0.75 -0.875 1.953125q0 0.96875 0.59375 1.609375q0.59375 0.65625 1.828125 0.828125zm-3.546875 3.015625l13.359375 0l0 1.640625l-7.625 0l3.9375 3.890625l0 2.109375l-3.59375 -3.6875l-6.078125 4.0625l0 -2.015625l4.953125 -3.203125l-1.125 -1.15625l-3.828125 0l0 -1.640625zm3.109375 15.953125l-0.203125 1.6875q-1.484375 -0.40625 -2.3125 -1.484375q-0.8125 -1.078125 -0.8125 -2.765625q0 -2.125 1.296875 -3.375q1.3125 -1.234375 3.671875 -1.234375q2.453125 0 3.796875 1.25q1.34375 1.265625 1.34375 3.265625q0 1.9375 -1.328125 3.15625q-1.3125 1.234375 -3.703125 1.234375q-0.15625 0 -0.4375 0l0 -7.21875q-1.59375 0.09375 -2.453125 0.90625q-0.84375 0.8125 -0.84375 2.015625q0 0.90625 0.46875 1.546875q0.484375 0.640625 1.515625 1.015625zm2.65625 -5.390625l0 5.40625q1.21875 -0.109375 1.828125 -0.625q0.953125 -0.78125 0.953125 -2.03125q0 -1.125 -0.765625 -1.90625q-0.75 -0.765625 -2.015625 -0.84375zm-5.765625 9.141342l9.671875 0l0 1.46875l-1.375 0q1.59375 1.0625 1.59375 3.078125q0 0.875 -0.3125 1.609375q-0.3125 0.734375 -0.828125 1.09375q-0.5 0.375 -1.203125 0.515625q-0.453125 0.09375 -1.59375 0.09375l-5.953125 0l0 -1.640625l5.890625 0q1.0 0 1.484375 -0.203125q0.5 -0.1875 0.796875 -0.671875q0.296875 -0.484375 0.296875 -1.140625q0 -1.046875 -0.671875 -1.8125q-0.65625 -0.75 -2.515625 -0.75l-5.28125 0l0 -1.640625zm0 16.641342l1.21875 0q-1.4375 -0.90625 -1.4375 -2.703125q0 -1.15625 0.640625 -2.125q0.640625 -0.96875 1.78125 -1.5q1.140625 -0.53125 2.625 -0.53125q1.453125 0 2.625 0.484375q1.1875 0.484375 1.8125 1.4375q0.625 0.96875 0.625 2.171875q0 0.875 -0.375 1.546875q-0.359375 0.6875 -0.953125 1.109375l4.796875 0l0 1.640625l-13.359375 0l0 -1.53125zm4.828125 -5.171875q-1.859375 0 -2.78125 0.78125q-0.921875 0.78125 -0.921875 1.84375q0 1.078125 0.875 1.828125q0.890625 0.75 2.6875 0.75q1.984375 0 2.90625 -0.765625q0.9375 -0.765625 0.9375 -1.890625q0 -1.078125 -0.890625 -1.8125q-0.890625 -0.734375 -2.8125 -0.734375z" fill-rule="nonzero"/></g></svg>